{
.appVersion = "998";
copyright = "Copyright 2015 Google Inc. All Rights Reserved.";
customParameters = (
{
name = description;
value = "Designed by Monotype design team.";
},
{
name = vendorID;
value = GOOG;
},
{
name = glyphOrder;
value = (
.notdef,
NULL,
CR,
space,
uni10A0,
uni10A1,
uni10A2,
uni10A3,
uni10A4,
uni10A5,
uni10A6,
uni10A7,
uni10A8,
uni10A9,
uni10AA,
uni10AB,
uni10AC,
uni10AD,
uni10AE,
uni10AF,
uni10B0,
uni10B1,
uni10B2,
uni10B3,
uni10B4,
uni10B5,
uni10B6,
uni10B7,
uni10B8,
uni10B9,
uni10BA,
uni10BB,
uni10BC,
uni10BD,
uni10BE,
uni10BF,
uni10C0,
uni10C1,
uni10C2,
uni10C3,
uni10C4,
uni10C5,
uni10D0,
uni10D1,
uni10D2,
uni10D3,
uni10D4,
uni10D5,
uni10D6,
uni10D7,
uni10D8,
uni10D9,
uni10DA,
uni10DB,
uni10DC,
uni10DD,
uni10DE,
uni10DF,
uni10E0,
uni10E1,
uni10E2,
uni10E3,
uni10E4,
uni10E5,
uni10E6,
uni10E7,
uni10E8,
uni10E9,
uni10EA,
uni10EB,
uni10EC,
uni10ED,
uni10EE,
uni10EF,
uni10F0,
uni10F1,
uni10F2,
uni10F3,
uni10F4,
uni10F5,
uni10F6,
uni10F7,
uni10F8,
uni10F9,
uni10FA,
uni10FB,
uni10FC,
uni2D00,
uni2D01,
uni2D02,
uni2D03,
uni2D04,
uni2D05,
uni2D06,
uni2D07,
uni2D08,
uni2D09,
uni2D0A,
uni2D0B,
uni2D0C,
uni2D0D,
uni2D0E,
uni2D0F,
uni2D10,
uni2D11,
uni2D12,
uni2D13,
uni2D14,
uni2D15,
uni2D16,
uni2D17,
uni2D18,
uni2D19,
uni2D1A,
uni2D1B,
uni2D1C,
uni2D1D,
uni2D1E,
uni2D1F,
uni2D20,
uni2D21,
uni2D22,
uni2D23,
uni2D24,
uni2D25,
uni0589,
uniFEFF
);
},
{
name = fsType;
value = (
);
},
{
name = licenseURL;
value = "http://scripts.sil.org/OFL";
},
{
name = trademark;
value = "Noto is a trademark of Google Inc.";
},
{
name = license;
value = "This Font Software is licensed under the SIL Open Font License, Version 1.1. This Font Software is distributed on an \"AS IS\" BASIS, WITHOUT WARRANTIES OR CONDITIONS OF ANY KIND, either express or implied. See the SIL Open Font License for the specific language, permissions and limitations governing your use of this Font Software.";
},
{
name = versionString;
value = "Version 1.902";
},
{
name = "Has WWS Names";

glyphs = (
{
glyphname = .notdef;
lastChange = "2017-03-28 19:12:04 +0000";
layers = (
{
layerId = "F1E1AA8A-A3F5-4941-B4E6-C7B9A7EBF3CF";
paths = (
{
closed = 1;
nodes = (
"505 0 LINE",
"505 714 LINE",
"94 714 LINE",
"94 0 LINE"
);
},
{
closed = 1;
nodes = (
"145 663 LINE",
"454 663 LINE",
"454 51 LINE",
"145 51 LINE"
);
}
);
width = 600;
},
{
layerId = "29BFE51A-F5BD-45F8-BEBC-9AD34273B132";
paths = (
{
closed = 1;
nodes = (
"505 0 LINE",
"505 714 LINE",
"94 714 LINE",
"94 0 LINE"
);
},
{
closed = 1;
nodes = (
"145 663 LINE",
"454 663 LINE",
"454 51 LINE",
"145 51 LINE"
);
}
);
width = 600;
},
{
layerId = "0228171D-2638-482B-876E-783119597845";
paths = (
{
closed = 1;
nodes = (
"505 0 LINE",
"505 714 LINE",
"94 714 LINE",
"94 0 LINE"
);
},
{
closed = 1;
nodes = (
"145 663 LINE",
"454 663 LINE",
"454 51 LINE",
"145 51 LINE"
);
}
);
width = 600;
},
{
layerId = "5ABCF6AD-94E3-4DCD-A28A-F55CA80EA6B2";
paths = (
{
closed = 1;
nodes = (
"505 0 LINE",
"505 714 LINE",
"94 714 LINE",
"94 0 LINE"
);
},
{
closed = 1;
nodes = (
"145 663 LINE",
"454 663 LINE",
"454 51 LINE",
"145 51 LINE"
);
}
);
width = 600;
},
{
layerId = "E419AE99-0260-44D0-87A9-BD030FD7659A";
paths = (
{
closed = 1;
nodes = (
"505 0 LINE",
"505 714 LINE",
"94 714 LINE",
"94 0 LINE"
);
},
{
closed = 1;
nodes = (
"145 663 LINE",
"454 663 LINE",
"454 51 LINE",
"145 51 LINE"
);
}
);
width = 600;
},
{
layerId = "C7A62E0A-0606-4C56-A5B0-C8EA8B1CCAFA";
paths = (
{
closed = 1;
nodes = (
"505 0 LINE",
"505 714 LINE",
"94 714 LINE",
"94 0 LINE"
);
},
{
closed = 1;
nodes = (
"145 663 LINE",
"454 663 LINE",
"454 51 LINE",
"145 51 LINE"
);
}
);
width = 600;
},
{
layerId = "9503992B-9F6A-43B6-8DBC-EB382B06F8D4";
paths = (
{
closed = 1;
nodes = (
"505 0 LINE",
"505 714 LINE",
"94 714 LINE",
"94 0 LINE"
);
},
{
closed = 1;
nodes = (
"145 663 LINE",
"454 663 LINE",
"454 51 LINE",
"145 51 LINE"
);
}
);
width = 600;
},
{
layerId = "2D9814BA-45F0-4FCB-8967-A366BFC6AA80";
paths = (
{
closed = 1;
nodes = (
"505 0 LINE",
"505 714 LINE",
"94 714 LINE",
"94 0 LINE"
);
},
{
closed = 1;
nodes = (
"145 663 LINE",
"454 663 LINE",
"454 51 LINE",
"145 51 LINE"
);
}
);
width = 600;
}
);
note = .notdef;
},
{
glyphname = "An-oldgeorgian";
lastChange = "2017-03-30 18:15:23 +0000";
layers = (
{
layerId = "F1E1AA8A-A3F5-4941-B4E6-C7B9A7EBF3CF";
paths = (
{
closed = 1;
nodes = (
"471 -10 OFFCURVE",
"532 4 OFFCURVE",
"576 21 CURVE",
"576 44 LINE",
"528 27 OFFCURVE",
"469 15 OFFCURVE",
"392 15 CURVE SMOOTH",
"208 15 OFFCURVE",
"91 138 OFFCURVE",
"91 346 CURVE SMOOTH",
"91 543 OFFCURVE",
"202 689 OFFCURVE",
"440 689 CURVE SMOOTH",
"576 689 LINE",
"576 714 LINE",
"80 714 LINE",
"80 691 LINE",
"297 691 LINE",
"297 689 LINE",
"154 648 OFFCURVE",
"64 528 OFFCURVE",
"64 346 CURVE SMOOTH",
"64 126 OFFCURVE",
"188 -10 OFFCURVE",
"392 -10 CURVE SMOOTH"
);
}
);
width = 627;
},
{
layerId = "29BFE51A-F5BD-45F8-BEBC-9AD34273B132";
paths = (
{
closed = 1;
nodes = (
"469 -10 OFFCURVE",
"534 2 OFFCURVE",
"597 30 CURVE",
"597 193 LINE",
"537 168 OFFCURVE",
"479 148 OFFCURVE",
"416 148 CURVE SMOOTH",
"322 148 OFFCURVE",
"253 216 OFFCURVE",
"253 331 CURVE SMOOTH",
"253 459 OFFCURVE",
"326 556 OFFCURVE",
"461 556 CURVE SMOOTH",
"597 556 LINE",
"597 714 LINE",
"69 714 LINE",
"69 561 LINE",
"172 561 LINE",
"172 557 LINE",
"98 505 OFFCURVE",
"51 414 OFFCURVE",
"51 306 CURVE SMOOTH",
"51 120 OFFCURVE",
"195 -10 OFFCURVE",
"405 -10 CURVE SMOOTH"
);
}
);
width = 641;
},
{
layerId = "0228171D-2638-482B-876E-783119597845";
paths = (
{
closed = 1;
nodes = (
"307 -10 OFFCURVE",
"345 1 OFFCURVE",
"370 16 CURVE",
"370 43 LINE",
"350 31 OFFCURVE",
"314 15 OFFCURVE",
"269 15 CURVE SMOOTH",
"151 15 OFFCURVE",
"81 134 OFFCURVE",
"81 347 CURVE SMOOTH",
"81 543 OFFCURVE",
"163 689 OFFCURVE",
"311 689 CURVE SMOOTH",
"370 689 LINE",
"370 714 LINE",
"94 714 LINE",
"94 690 LINE",
"221 690 LINE",
"221 688 LINE",
"115 647 OFFCURVE",
"54 523 OFFCURVE",
"54 347 CURVE SMOOTH",
"54 126 OFFCURVE",
"130 -10 OFFCURVE",
"269 -10 CURVE SMOOTH"
);
}
);
width = 412;
},
{
layerId = "5ABCF6AD-94E3-4DCD-A28A-F55CA80EA6B2";
paths = (
{
closed = 1;
nodes = (
"330 -10 OFFCURVE",
"369 -1 OFFCURVE",
"401 17 CURVE",
"401 93 LINE",
"369 77 OFFCURVE",
"334 66 OFFCURVE",
"294 66 CURVE SMOOTH",
"198 66 OFFCURVE",
"133 161 OFFCURVE",
"133 340 CURVE SMOOTH",
"133 514 OFFCURVE",
"207 638 OFFCURVE",
"321 638 CURVE SMOOTH",
"401 638 LINE",
"401 714 LINE",
"67 714 LINE",
"67 641 LINE",
"173 641 LINE",
"173 638 LINE",
"98 594 OFFCURVE",
"48 483 OFFCURVE",
"48 337 CURVE SMOOTH",
"48 123 OFFCURVE",
"132 -10 OFFCURVE",
"284 -10 CURVE SMOOTH"
);
}
);
width = 441;
},
{
layerId = "E419AE99-0260-44D0-87A9-BD030FD7659A";
paths = (
{
closed = 1;
nodes = (
"354 -10 OFFCURVE",
"402 1 OFFCURVE",
"443 25 CURVE",
"443 148 LINE",
"404 126 OFFCURVE",
"365 109 OFFCURVE",
"321 109 CURVE SMOOTH",
"229 109 OFFCURVE",
"185 185 OFFCURVE",
"185 339 CURVE SMOOTH",
"185 493 OFFCURVE",
"244 595 OFFCURVE",
"357 595 CURVE SMOOTH",
"443 595 LINE",
"443 714 LINE",
"62 714 LINE",
"62 597 LINE",
"158 597 LINE",
"158 593 LINE",
"87 547 OFFCURVE",
"43 451 OFFCURVE",
"43 328 CURVE SMOOTH",
"43 120 OFFCURVE",
"134 -10 OFFCURVE",
"300 -10 CURVE SMOOTH"
);
}
);
width = 476;
},
{
layerId = "C7A62E0A-0606-4C56-A5B0-C8EA8B1CCAFA";
paths = (
{
closed = 1;
nodes = (
"368 -10 OFFCURVE",
"421 3 OFFCURVE",
"467 30 CURVE",
"467 182 LINE",
"424 157 OFFCURVE",
"382 137 OFFCURVE",
"336 137 CURVE SMOOTH",
"247 137 OFFCURVE",
"216 202 OFFCURVE",
"216 339 CURVE SMOOTH",
"216 478 OFFCURVE",
"266 567 OFFCURVE",
"378 567 CURVE SMOOTH",
"467 567 LINE",
"467 714 LINE",
"58 714 LINE",
"58 569 LINE",
"147 569 LINE",
"147 565 LINE",
"79 517 OFFCURVE",
"39 431 OFFCURVE",
"39 321 CURVE SMOOTH",
"39 118 OFFCURVE",
"135 -10 OFFCURVE",
"309 -10 CURVE SMOOTH"
);
}
);
width = 497;
},
{
layerId = "9503992B-9F6A-43B6-8DBC-EB382B06F8D4";
paths = (
{
closed = 1;
nodes = (
"475 -10 OFFCURVE",
"527 -1 OFFCURVE",
"580 19 CURVE",
"580 97 LINE",
"526 81 OFFCURVE",
"471 69 OFFCURVE",
"409 69 CURVE SMOOTH",
"245 69 OFFCURVE",
"156 167 OFFCURVE",
"156 339 CURVE SMOOTH",
"156 517 OFFCURVE",
"266 636 OFFCURVE",
"454 636 CURVE SMOOTH",
"580 636 LINE",
"580 714 LINE",
"79 714 LINE",
"79 640 LINE",
"244 640 LINE",
"244 637 LINE",
"139 587 OFFCURVE",
"61 476 OFFCURVE",
"61 328 CURVE SMOOTH",
"61 122 OFFCURVE",
"196 -10 OFFCURVE",
"396 -10 CURVE SMOOTH"
);
}
);
width = 631;
},
{
layerId = "2D9814BA-45F0-4FCB-8967-A366BFC6AA80";
paths = (
{
closed = 1;
nodes = (
"474 -10 OFFCURVE",
"534 1 OFFCURVE",
"593 26 CURVE",
"593 154 LINE",
"536 133 OFFCURVE",
"479 116 OFFCURVE",
"416 116 CURVE SMOOTH",
"294 116 OFFCURVE",
"217 197 OFFCURVE",
"217 334 CURVE SMOOTH",
"217 483 OFFCURVE",
"304 588 OFFCURVE",
"461 588 CURVE SMOOTH",
"593 588 LINE",
"593 714 LINE",
"76 714 LINE",
"76 593 LINE",
"204 593 LINE",
"204 589 LINE",
"122 539 OFFCURVE",
"58 439 OFFCURVE",
"58 315 CURVE SMOOTH",
"58 121 OFFCURVE",
"198 -10 OFFCURVE",
"405 -10 CURVE SMOOTH"
);
}
);
width = 637;
}
);
leftKerningGroup = "Don-oldgeorgian";
leftMetricsKey = "Don-oldgeorgian";
note = uni10A0;
unicode = 10A0;
},
{
glyphname = "Ban-oldgeorgian";
lastChange = "2017-03-30 18:15:23 +0000";
layers = (
{
layerId = "F1E1AA8A-A3F5-4941-B4E6-C7B9A7EBF3CF";
paths = (
{
closed = 1;
nodes = (
"709 0 LINE",
"709 25 LINE",
"517 25 LINE",
"517 714 LINE",
"491 714 LINE",
"491 486 LINE SMOOTH",
"491 309 OFFCURVE",
"396 244 OFFCURVE",
"281 244 CURVE SMOOTH",
"158 244 OFFCURVE",
"86 333 OFFCURVE",
"86 457 CURVE SMOOTH",
"86 572 OFFCURVE",
"116 646 OFFCURVE",
"165 714 CURVE",
"133 714 LINE",
"83 635 OFFCURVE",
"59 566 OFFCURVE",
"59 457 CURVE SMOOTH",
"59 309 OFFCURVE",
"150 218 OFFCURVE",
"281 218 CURVE SMOOTH",
"379 218 OFFCURVE",
"459 266 OFFCURVE",
"491 353 CURVE",
"493 353 LINE",
"492 329 OFFCURVE",
"491 274 OFFCURVE",
"491 233 CURVE SMOOTH",
"491 0 LINE"
);
}
);
width = 719;
},
{
layerId = "29BFE51A-F5BD-45F8-BEBC-9AD34273B132";
paths = (
{
closed = 1;
nodes = (
"875 0 LINE",
"875 157 LINE",
"673 155 LINE",
"673 714 LINE",
"479 714 LINE",
"479 528 LINE SMOOTH",
"479 415 OFFCURVE",
"431 360 OFFCURVE",
"354 360 CURVE SMOOTH",
"285 360 OFFCURVE",
"240 396 OFFCURVE",
"240 473 CURVE SMOOTH",
"240 555 OFFCURVE",
"264 640 OFFCURVE",
"307 714 CURVE",
"104 714 LINE",
"66 640 OFFCURVE",
"46 556 OFFCURVE",
"46 461 CURVE SMOOTH",
"46 300 OFFCURVE",
"145 203 OFFCURVE",
"295 203 CURVE SMOOTH",
"381 203 OFFCURVE",
"445 238 OFFCURVE",
"483 290 CURVE",
"488 290 LINE",
"481 231 OFFCURVE",
"479 179 OFFCURVE",
"479 133 CURVE SMOOTH",
"479 0 LINE"
);
}
);
width = 875;
},
{
layerId = "0228171D-2638-482B-876E-783119597845";
paths = (
{
closed = 1;
nodes = (
"492 0 LINE",
"492 25 LINE",
"358 25 LINE",
"358 714 LINE",
"332 714 LINE",
"332 484 LINE SMOOTH",
"332 300 OFFCURVE",
"274 243 OFFCURVE",
"196 243 CURVE SMOOTH",
"113 243 OFFCURVE",
"76 327 OFFCURVE",
"76 450 CURVE SMOOTH",
"76 566 OFFCURVE",
"97 644 OFFCURVE",
"129 714 CURVE",
"100 714 LINE",
"66 635 OFFCURVE",
"49 560 OFFCURVE",
"49 450 CURVE SMOOTH",
"49 304 OFFCURVE",
"102 218 OFFCURVE",
"196 218 CURVE SMOOTH",
"261 218 OFFCURVE",
"310 255 OFFCURVE",
"332 333 CURVE",
"334 333 LINE",
"333 311 OFFCURVE",
"332 263 OFFCURVE",
"332 218 CURVE SMOOTH",
"332 0 LINE"
);
}
);
width = 502;
},
{
layerId = "5ABCF6AD-94E3-4DCD-A28A-F55CA80EA6B2";
paths = (
{
closed = 1;
nodes = (
"573 0 LINE",
"573 73 LINE",
"432 73 LINE",
"432 714 LINE",
"349 714 LINE",
"349 501 LINE SMOOTH",
"349 341 OFFCURVE",
"301 283 OFFCURVE",
"232 283 CURVE SMOOTH",
"162 283 OFFCURVE",
"128 350 OFFCURVE",
"128 461 CURVE SMOOTH",
"128 566 OFFCURVE",
"147 644 OFFCURVE",
"177 714 CURVE",
"91 714 LINE",
"60 638 OFFCURVE",
"43 561 OFFCURVE",
"43 460 CURVE SMOOTH",
"43 306 OFFCURVE",
"106 214 OFFCURVE",
"209 214 CURVE SMOOTH",
"278 214 OFFCURVE",
"324 250 OFFCURVE",
"350 322 CURVE",
"354 322 LINE",
"351 288 OFFCURVE",
"349 241 OFFCURVE",
"349 198 CURVE SMOOTH",
"349 0 LINE"
);
}
);
width = 583;
},
{
layerId = "E419AE99-0260-44D0-87A9-BD030FD7659A";
paths = (
{
closed = 1;
nodes = (
"661 0 LINE",
"661 120 LINE",
"503 120 LINE",
"503 714 LINE",
"367 714 LINE",
"367 517 LINE SMOOTH",
"367 380 OFFCURVE",
"327 321 OFFCURVE",
"267 321 CURVE SMOOTH",
"209 321 OFFCURVE",
"178 372 OFFCURVE",
"178 471 CURVE SMOOTH",
"178 567 OFFCURVE",
"195 643 OFFCURVE",
"224 714 CURVE",
"84 714 LINE",
"56 641 OFFCURVE",
"38 562 OFFCURVE",
"38 469 CURVE SMOOTH",
"38 308 OFFCURVE",
"110 211 OFFCURVE",
"222 211 CURVE SMOOTH",
"294 211 OFFCURVE",
"339 246 OFFCURVE",
"368 312 CURVE",
"373 312 LINE",
"369 265 OFFCURVE",
"367 220 OFFCURVE",
"367 179 CURVE SMOOTH",
"367 0 LINE"
);
}
);
width = 666;
},
{
layerId = "C7A62E0A-0606-4C56-A5B0-C8EA8B1CCAFA";
paths = (
{
closed = 1;
nodes = (
"705 0 LINE",
"705 149 LINE",
"547 149 LINE",
"547 714 LINE",
"377 714 LINE",
"377 527 LINE SMOOTH",
"377 405 OFFCURVE",
"343 345 OFFCURVE",
"289 345 CURVE SMOOTH",
"238 345 OFFCURVE",
"209 386 OFFCURVE",
"209 477 CURVE SMOOTH",
"209 567 OFFCURVE",
"225 643 OFFCURVE",
"253 714 CURVE",
"78 714 LINE",
"52 643 OFFCURVE",
"34 563 OFFCURVE",
"34 475 CURVE SMOOTH",
"34 309 OFFCURVE",
"112 209 OFFCURVE",
"230 209 CURVE SMOOTH",
"304 209 OFFCURVE",
"347 243 OFFCURVE",
"379 305 CURVE",
"385 305 LINE",
"380 251 OFFCURVE",
"377 206 OFFCURVE",
"377 167 CURVE SMOOTH",
"377 0 LINE"
);
}
);
width = 705;
},
{
layerId = "9503992B-9F6A-43B6-8DBC-EB382B06F8D4";
paths = (
{
closed = 1;
nodes = (
"767 0 LINE",
"767 78 LINE",
"581 78 LINE",
"581 714 LINE",
"491 714 LINE",
"491 507 LINE SMOOTH",
"491 356 OFFCURVE",
"431 293 OFFCURVE",
"300 293 CURVE SMOOTH",
"198 293 OFFCURVE",
"151 358 OFFCURVE",
"151 469 CURVE SMOOTH",
"151 561 OFFCURVE",
"187 659 OFFCURVE",
"235 714 CURVE",
"130 714 LINE",
"81 635 OFFCURVE",
"56 554 OFFCURVE",
"56 470 CURVE SMOOTH",
"56 308 OFFCURVE",
"140 215 OFFCURVE",
"286 215 CURVE SMOOTH",
"371 215 OFFCURVE",
"451 253 OFFCURVE",
"490 312 CURVE",
"495 312 LINE",
"492 274 OFFCURVE",
"490 250 OFFCURVE",
"490 242 CURVE SMOOTH",
"490 0 LINE"
);
}
);
width = 777;
},
{
layerId = "2D9814BA-45F0-4FCB-8967-A366BFC6AA80";
paths = (
{
closed = 1;
nodes = (
"852 0 LINE",
"852 124 LINE",
"644 124 LINE",
"644 714 LINE",
"493 714 LINE",
"493 527 LINE SMOOTH",
"493 401 OFFCURVE",
"443 338 OFFCURVE",
"342 338 CURVE SMOOTH",
"250 338 OFFCURVE",
"209 382 OFFCURVE",
"209 489 CURVE SMOOTH",
"209 574 OFFCURVE",
"235 659 OFFCURVE",
"276 714 CURVE",
"120 714 LINE",
"82 660 OFFCURVE",
"53 564 OFFCURVE",
"53 482 CURVE SMOOTH",
"53 313 OFFCURVE",
"145 212 OFFCURVE",
"298 212 CURVE SMOOTH",
"385 212 OFFCURVE",
"450 245 OFFCURVE",
"492 311 CURVE",
"500 311 LINE",
"496 260 OFFCURVE",
"493 217 OFFCURVE",
"493 182 CURVE SMOOTH",
"493 0 LINE"
);
}
);
width = 857;
}
);
leftKerningGroup = "Ban-oldgeorgian";
leftMetricsKey = "=Don-oldgeorgian-5";
note = uni10A1;
rightKerningGroup = "Ban-oldgeorgian";
rightMetricsKey = "Gan-oldgeorgian";
unicode = 10A1;
},
{
glyphname = "Gan-oldgeorgian";
lastChange = "2017-03-30 18:15:23 +0000";
layers = (
{
layerId = "F1E1AA8A-A3F5-4941-B4E6-C7B9A7EBF3CF";
paths = (
{
closed = 1;
nodes = (
"688 0 LINE",
"688 25 LINE",
"496 25 LINE",
"496 714 LINE",
"86 714 LINE",
"86 407 LINE",
"112 407 LINE",
"112 688 LINE",
"470 688 LINE",
"470 0 LINE"
);
}
);
width = 698;
},
{
layerId = "29BFE51A-F5BD-45F8-BEBC-9AD34273B132";
paths = (
{
closed = 1;
nodes = (
"821 0 LINE",
"821 157 LINE",
"621 157 LINE",
"621 714 LINE",
"63 714 LINE",
"63 363 LINE",
"254 363 LINE",
"254 555 LINE",
"427 555 LINE",
"427 0 LINE"
);
}
);
width = 821;
},
{
layerId = "0228171D-2638-482B-876E-783119597845";
paths = (
{
closed = 1;
nodes = (
"494 0 LINE",
"494 25 LINE",
"360 25 LINE",
"360 714 LINE",
"68 714 LINE",
"68 407 LINE",
"94 407 LINE",
"94 689 LINE",
"334 689 LINE",
"334 0 LINE"
);
}
);
width = 504;
},
{
layerId = "5ABCF6AD-94E3-4DCD-A28A-F55CA80EA6B2";
paths = (
{
closed = 1;
nodes = (
"548 0 LINE",
"548 73 LINE",
"406 73 LINE",
"406 714 LINE",
"60 714 LINE",
"60 396 LINE",
"142 396 LINE",
"142 641 LINE",
"324 641 LINE",
"324 0 LINE"
);
}
);
width = 558;
},
{
layerId = "E419AE99-0260-44D0-87A9-BD030FD7659A";
paths = (
{
closed = 1;
nodes = (
"623 0 LINE",
"623 120 LINE",
"465 120 LINE",
"465 714 LINE",
"57 714 LINE",
"57 381 LINE",
"193 381 LINE",
"193 595 LINE",
"329 595 LINE",
"329 0 LINE"
);
}
);
width = 628;
},
{
layerId = "C7A62E0A-0606-4C56-A5B0-C8EA8B1CCAFA";
paths = (
{
closed = 1;
nodes = (
"660 0 LINE",
"660 149 LINE",
"502 149 LINE",
"502 714 LINE",
"48 714 LINE",
"48 369 LINE",
"218 369 LINE",
"218 567 LINE",
"332 567 LINE",
"332 0 LINE"
);
}
);
width = 660;
},
{
layerId = "9503992B-9F6A-43B6-8DBC-EB382B06F8D4";
paths = (
{
closed = 1;
nodes = (
"731 0 LINE",
"731 78 LINE",
"544 78 LINE",
"544 714 LINE",
"76 714 LINE",
"76 390 LINE",
"166 390 LINE",
"166 636 LINE",
"454 636 LINE",
"454 0 LINE"
);
}
);
width = 741;
},
{
layerId = "2D9814BA-45F0-4FCB-8967-A366BFC6AA80";
paths = (
{
closed = 1;
nodes = (
"781 0 LINE",
"781 124 LINE",
"583 124 LINE",
"583 714 LINE",
"71 714 LINE",
"71 370 LINE",
"222 370 LINE",
"222 587 LINE",
"432 587 LINE",
"432 0 LINE"
);
}
);
width = 786;
}
);
leftKerningGroup = "Gan-oldgeorgian";
leftMetricsKey = "En-oldgeorgian";
note = uni10A2;
rightKerningGroup = "Ban-oldgeorgian";
unicode = 10A2;
},
{
glyphname = "Don-oldgeorgian";
lastChange = "2017-03-30 18:15:23 +0000";
layers = (
{
layerId = "F1E1AA8A-A3F5-4941-B4E6-C7B9A7EBF3CF";
paths = (
{
closed = 1;
nodes = (
"566 -10 OFFCURVE",
"685 105 OFFCURVE",
"685 283 CURVE SMOOTH",
"685 452 OFFCURVE",
"564 569 OFFCURVE",
"390 573 CURVE",
"390 689 LINE",
"638 689 LINE",
"638 714 LINE",
"111 714 LINE",
"111 689 LINE",
"363 689 LINE",
"363 573 LINE",
"194 566 OFFCURVE",
"64 452 OFFCURVE",
"64 282 CURVE SMOOTH",
"64 112 OFFCURVE",
"176 -10 OFFCURVE",
"371 -10 CURVE SMOOTH"
);
},
{
closed = 1;
nodes = (
"204 16 OFFCURVE",
"91 114 OFFCURVE",
"91 282 CURVE SMOOTH",
"91 446 OFFCURVE",
"216 549 OFFCURVE",
"378 549 CURVE SMOOTH",
"540 549 OFFCURVE",
"658 446 OFFCURVE",
"658 282 CURVE SMOOTH",
"658 115 OFFCURVE",
"543 16 OFFCURVE",
"371 16 CURVE SMOOTH"
);
}
);
width = 749;
},
{
layerId = "29BFE51A-F5BD-45F8-BEBC-9AD34273B132";
paths = (
{
closed = 1;
nodes = (
"620 -10 OFFCURVE",
"727 97 OFFCURVE",
"727 261 CURVE SMOOTH",
"727 402 OFFCURVE",
"652 500 OFFCURVE",
"486 525 CURVE",
"486 559 LINE",
"710 559 LINE",
"710 714 LINE",
"68 714 LINE",
"68 559 LINE",
"293 559 LINE",
"293 524 LINE",
"132 499 OFFCURVE",
"51 402 OFFCURVE",
"51 262 CURVE SMOOTH",
"51 96 OFFCURVE",
"159 -10 OFFCURVE",
"389 -10 CURVE SMOOTH"
);
},
{
closed = 1;
nodes = (
"296 147 OFFCURVE",
"254 192 OFFCURVE",
"254 262 CURVE SMOOTH",
"254 332 OFFCURVE",
"295 378 OFFCURVE",
"390 378 CURVE SMOOTH",
"485 378 OFFCURVE",
"524 332 OFFCURVE",
"524 262 CURVE SMOOTH",
"524 192 OFFCURVE",
"485 147 OFFCURVE",
"389 147 CURVE SMOOTH"
);
}
);
width = 779;
},
{
layerId = "0228171D-2638-482B-876E-783119597845";
paths = (
{
closed = 1;
nodes = (
"391 -10 OFFCURVE",
"463 106 OFFCURVE",
"463 283 CURVE SMOOTH",
"463 455 OFFCURVE",
"386 568 OFFCURVE",
"272 573 CURVE",
"272 689 LINE",
"434 689 LINE",
"434 714 LINE",
"83 714 LINE",
"83 689 LINE",
"246 689 LINE",
"246 573 LINE",
"135 568 OFFCURVE",
"54 455 OFFCURVE",
"54 282 CURVE SMOOTH",
"54 106 OFFCURVE",
"122 -10 OFFCURVE",
"257 -10 CURVE SMOOTH"
);
},
{
closed = 1;
nodes = (
"145 15 OFFCURVE",
"81 110 OFFCURVE",
"81 282 CURVE SMOOTH",
"81 449 OFFCURVE",
"157 550 OFFCURVE",
"260 550 CURVE SMOOTH",
"364 550 OFFCURVE",
"436 449 OFFCURVE",
"436 283 CURVE SMOOTH",
"436 111 OFFCURVE",
"369 15 OFFCURVE",
"257 15 CURVE SMOOTH"
);
}
);
width = 517;
},
{
layerId = "5ABCF6AD-94E3-4DCD-A28A-F55CA80EA6B2";
paths = (
{
closed = 1;
nodes = (
"426 -10 OFFCURVE",
"506 107 OFFCURVE",
"506 276 CURVE SMOOTH",
"506 435 OFFCURVE",
"431 541 OFFCURVE",
"317 554 CURVE",
"317 638 LINE",
"485 638 LINE",
"485 714 LINE",
"69 714 LINE",
"69 638 LINE",
"238 638 LINE",
"238 554 LINE",
"125 541 OFFCURVE",
"48 435 OFFCURVE",
"48 276 CURVE SMOOTH",
"48 107 OFFCURVE",
"125 -10 OFFCURVE",
"276 -10 CURVE SMOOTH"
);
},
{
closed = 1;
nodes = (
"185 63 OFFCURVE",
"134 139 OFFCURVE",
"134 275 CURVE SMOOTH",
"134 410 OFFCURVE",
"193 486 OFFCURVE",
"279 486 CURVE SMOOTH",
"365 486 OFFCURVE",
"421 410 OFFCURVE",
"421 276 CURVE SMOOTH",
"421 139 OFFCURVE",
"369 63 OFFCURVE",
"277 63 CURVE SMOOTH"
);
}
);
width = 554;
},
{
layerId = "E419AE99-0260-44D0-87A9-BD030FD7659A";
paths = (
{
closed = 1;
nodes = (
"461 -10 OFFCURVE",
"547 108 OFFCURVE",
"547 270 CURVE SMOOTH",
"547 416 OFFCURVE",
"475 515 OFFCURVE",
"360 536 CURVE",
"360 595 LINE",
"534 595 LINE",
"534 714 LINE",
"56 714 LINE",
"56 595 LINE",
"230 595 LINE",
"230 536 LINE",
"116 515 OFFCURVE",
"43 416 OFFCURVE",
"43 271 CURVE SMOOTH",
"43 108 OFFCURVE",
"128 -10 OFFCURVE",
"296 -10 CURVE SMOOTH"
);
},
{
closed = 1;
nodes = (
"223 110 OFFCURVE",
"184 166 OFFCURVE",
"184 269 CURVE SMOOTH",
"184 372 OFFCURVE",
"226 425 OFFCURVE",
"296 425 CURVE SMOOTH",
"366 425 OFFCURVE",
"406 372 OFFCURVE",
"406 269 CURVE SMOOTH",
"406 167 OFFCURVE",
"368 110 OFFCURVE",
"295 110 CURVE SMOOTH"
);
}
);
width = 589;
},
{
layerId = "C7A62E0A-0606-4C56-A5B0-C8EA8B1CCAFA";
paths = (
{
closed = 1;
nodes = (
"482 -10 OFFCURVE",
"573 109 OFFCURVE",
"573 266 CURVE SMOOTH",
"573 404 OFFCURVE",
"502 499 OFFCURVE",
"387 525 CURVE",
"387 567 LINE",
"565 567 LINE",
"565 714 LINE",
"47 714 LINE",
"47 567 LINE",
"225 567 LINE",
"225 525 LINE",
"109 498 OFFCURVE",
"39 404 OFFCURVE",
"39 267 CURVE SMOOTH",
"39 108 OFFCURVE",
"129 -10 OFFCURVE",
"307 -10 CURVE SMOOTH"
);
},
{
closed = 1;
nodes = (
"247 139 OFFCURVE",
"216 184 OFFCURVE",
"216 265 CURVE SMOOTH",
"216 348 OFFCURVE",
"248 386 OFFCURVE",
"307 386 CURVE SMOOTH",
"366 386 OFFCURVE",
"396 348 OFFCURVE",
"396 265 CURVE SMOOTH",
"396 184 OFFCURVE",
"367 139 OFFCURVE",
"307 139 CURVE SMOOTH"
);
}
);
width = 612;
},
{
layerId = "9503992B-9F6A-43B6-8DBC-EB382B06F8D4";
paths = (
{
closed = 1;
nodes = (
"584 -10 OFFCURVE",
"702 99 OFFCURVE",
"702 281 CURVE SMOOTH",
"702 449 OFFCURVE",
"601 558 OFFCURVE",
"427 572 CURVE",
"427 635 LINE",
"669 635 LINE",
"669 714 LINE",
"94 714 LINE",
"94 635 LINE",
"337 635 LINE",
"337 572 LINE",
"166 557 OFFCURVE",
"61 447 OFFCURVE",
"61 281 CURVE SMOOTH",
"61 102 OFFCURVE",
"181 -10 OFFCURVE",
"380 -10 CURVE SMOOTH"
);
},
{
closed = 1;
nodes = (
"236 69 OFFCURVE",
"156 144 OFFCURVE",
"156 282 CURVE SMOOTH",
"156 421 OFFCURVE",
"237 496 OFFCURVE",
"381 496 CURVE SMOOTH",
"526 496 OFFCURVE",
"607 419 OFFCURVE",
"607 282 CURVE SMOOTH",
"607 143 OFFCURVE",
"525 69 OFFCURVE",
"380 69 CURVE SMOOTH"
);
}
);
width = 763;
},
{
layerId = "2D9814BA-45F0-4FCB-8967-A366BFC6AA80";
paths = (
{
closed = 1;
nodes = (
"597 -10 OFFCURVE",
"718 93 OFFCURVE",
"718 268 CURVE SMOOTH",
"718 426 OFFCURVE",
"625 523 OFFCURVE",
"457 542 CURVE",
"457 590 LINE",
"698 590 LINE",
"698 714 LINE",
"78 714 LINE",
"78 590 LINE",
"319 590 LINE",
"319 542 LINE",
"149 522 OFFCURVE",
"58 429 OFFCURVE",
"58 269 CURVE SMOOTH",
"58 92 OFFCURVE",
"179 -10 OFFCURVE",
"388 -10 CURVE SMOOTH"
);
},
{
closed = 1;
nodes = (
"271 114 OFFCURVE",
"214 168 OFFCURVE",
"214 268 CURVE SMOOTH",
"214 371 OFFCURVE",
"274 425 OFFCURVE",
"389 425 CURVE SMOOTH",
"504 425 OFFCURVE",
"562 373 OFFCURVE",
"562 268 CURVE SMOOTH",
"562 165 OFFCURVE",
"504 114 OFFCURVE",
"388 114 CURVE SMOOTH"
);
}
);
width = 776;
}
);
leftKerningGroup = "Don-oldgeorgian";
note = uni10A3;
rightKerningGroup = "Don-oldgeorgian";
unicode = 10A3;
},
{
glyphname = "En-oldgeorgian";
lastChange = "2017-03-30 18:15:23 +0000";
layers = (
{
layerId = "F1E1AA8A-A3F5-4941-B4E6-C7B9A7EBF3CF";
paths = (
{
closed = 1;
nodes = (
"496 0 LINE",
"496 714 LINE",
"86 714 LINE",
"86 407 LINE",
"112 407 LINE",
"112 688 LINE",
"470 688 LINE",
"470 0 LINE"
);
}
);
width = 599;
},
{
layerId = "29BFE51A-F5BD-45F8-BEBC-9AD34273B132";
paths = (
{
closed = 1;
nodes = (
"621 0 LINE",
"621 714 LINE",
"63 714 LINE",
"63 363 LINE",
"254 363 LINE",
"254 555 LINE",
"427 555 LINE",
"427 0 LINE"
);
}
);
width = 698;
},
{
layerId = "0228171D-2638-482B-876E-783119597845";
paths = (
{
closed = 1;
nodes = (
"360 0 LINE",
"360 714 LINE",
"68 714 LINE",
"68 407 LINE",
"94 407 LINE",
"94 689 LINE",
"334 689 LINE",
"334 0 LINE"
);
}
);
width = 438;
},
{
layerId = "5ABCF6AD-94E3-4DCD-A28A-F55CA80EA6B2";
paths = (
{
closed = 1;
nodes = (
"406 0 LINE",
"406 714 LINE",
"60 714 LINE",
"60 396 LINE",
"142 396 LINE",
"142 641 LINE",
"324 641 LINE",
"324 0 LINE"
);
}
);
width = 478;
},
{
layerId = "E419AE99-0260-44D0-87A9-BD030FD7659A";
paths = (
{
closed = 1;
nodes = (
"465 0 LINE",
"465 714 LINE",
"57 714 LINE",
"57 381 LINE",
"193 381 LINE",
"193 595 LINE",
"329 595 LINE",
"329 0 LINE"
);
}
);
width = 529;
},
{
layerId = "C7A62E0A-0606-4C56-A5B0-C8EA8B1CCAFA";
paths = (
{
closed = 1;
nodes = (
"502 0 LINE",
"502 714 LINE",
"48 714 LINE",
"48 369 LINE",
"218 369 LINE",
"218 567 LINE",
"332 567 LINE",
"332 0 LINE"
);
}
);
width = 561;
},
{
layerId = "9503992B-9F6A-43B6-8DBC-EB382B06F8D4";
paths = (
{
closed = 1;
nodes = (
"544 0 LINE",
"544 714 LINE",
"76 714 LINE",
"76 390 LINE",
"166 390 LINE",
"166 636 LINE",
"454 636 LINE",
"454 0 LINE"
);
}
);
width = 642;
},
{
layerId = "2D9814BA-45F0-4FCB-8967-A366BFC6AA80";
paths = (
{
closed = 1;
nodes = (
"583 0 LINE",
"583 714 LINE",
"71 714 LINE",
"71 370 LINE",
"222 370 LINE",
"222 587 LINE",
"432 587 LINE",
"432 0 LINE"
);
}
);
width = 673;
}
);
leftKerningGroup = "Gan-oldgeorgian";
note = uni10A4;
rightKerningGroup = "En-oldgeorgian";
unicode = 10A4;
},
{
glyphname = "Vin-oldgeorgian";
lastChange = "2017-03-30 18:15:23 +0000";
layers = (
{
layerId = "F1E1AA8A-A3F5-4941-B4E6-C7B9A7EBF3CF";
paths = (
{
closed = 1;
nodes = (
"496 0 LINE",
"496 368 LINE",
"698 368 LINE",
"698 185 LINE",
"724 185 LINE",
"724 393 LINE",
"496 393 LINE",
"496 714 LINE",
"86 714 LINE",
"86 407 LINE",
"112 407 LINE",
"112 688 LINE",
"470 688 LINE",
"470 0 LINE"
);
}
);
width = 776;
},
{
layerId = "29BFE51A-F5BD-45F8-BEBC-9AD34273B132";
paths = (
{
closed = 1;
nodes = (
"621 0 LINE",
"621 283 LINE",
"704 283 LINE",
"704 174 LINE",
"871 174 LINE",
"871 440 LINE",
"621 440 LINE",
"621 714 LINE",
"63 714 LINE",
"63 363 LINE",
"254 363 LINE",
"254 555 LINE",
"427 555 LINE",
"427 0 LINE"
);
}
);
width = 906;
},
{
layerId = "0228171D-2638-482B-876E-783119597845";
paths = (
{
closed = 1;
nodes = (
"360 0 LINE",
"360 368 LINE",
"494 368 LINE",
"494 214 LINE",
"520 214 LINE",
"520 393 LINE",
"360 393 LINE",
"360 714 LINE",
"68 714 LINE",
"68 407 LINE",
"94 407 LINE",
"94 689 LINE",
"334 689 LINE",
"334 0 LINE"
);
}
);
width = 554;
},
{
layerId = "5ABCF6AD-94E3-4DCD-A28A-F55CA80EA6B2";
paths = (
{
closed = 1;
nodes = (
"406 0 LINE",
"406 342 LINE",
"500 342 LINE",
"500 198 LINE",
"574 198 LINE",
"574 411 LINE",
"406 411 LINE",
"406 714 LINE",
"60 714 LINE",
"60 396 LINE",
"142 396 LINE",
"142 641 LINE",
"324 641 LINE",
"324 0 LINE"
);
}
);
width = 608;
},
{
layerId = "E419AE99-0260-44D0-87A9-BD030FD7659A";
paths = (
{
closed = 1;
nodes = (
"470 0 LINE",
"470 316 LINE",
"555 316 LINE",
"555 189 LINE",
"676 189 LINE",
"676 429 LINE",
"470 429 LINE",
"470 714 LINE",
"57 714 LINE",
"57 379 LINE",
"194 379 LINE",
"194 595 LINE",
"333 595 LINE",
"333 0 LINE"
);
}
);
width = 708;
},
{
layerId = "C7A62E0A-0606-4C56-A5B0-C8EA8B1CCAFA";
paths = (
{
closed = 1;
nodes = (
"502 0 LINE",
"502 301 LINE",
"581 301 LINE",
"581 184 LINE",
"730 184 LINE",
"730 440 LINE",
"502 440 LINE",
"502 714 LINE",
"48 714 LINE",
"48 369 LINE",
"218 369 LINE",
"218 567 LINE",
"332 567 LINE",
"332 0 LINE"
);
}
);
width = 759;
},
{
layerId = "9503992B-9F6A-43B6-8DBC-EB382B06F8D4";
paths = (
{
closed = 1;
nodes = (
"544 0 LINE",
"544 339 LINE",
"695 339 LINE",
"695 174 LINE",
"781 174 LINE",
"781 417 LINE",
"544 417 LINE",
"544 714 LINE",
"76 714 LINE",
"76 390 LINE",
"166 390 LINE",
"166 636 LINE",
"454 636 LINE",
"454 0 LINE"
);
}
);
width = 825;
},
{
layerId = "2D9814BA-45F0-4FCB-8967-A366BFC6AA80";
paths = (
{
closed = 1;
nodes = (
"592 0 LINE",
"592 306 LINE",
"709 306 LINE",
"709 174 LINE",
"843 174 LINE",
"843 431 LINE",
"592 431 LINE",
"592 714 LINE",
"71 714 LINE",
"71 374 LINE",
"221 374 LINE",
"221 588 LINE",
"441 588 LINE",
"441 0 LINE"
);
}
);
width = 882;
}
);
leftKerningGroup = "Gan-oldgeorgian";
leftMetricsKey = "En-oldgeorgian";
note = uni10A5;
rightKerningGroup = "Vin-oldgeorgian";
unicode = 10A5;
},
{
glyphname = "Zen-oldgeorgian";
lastChange = "2017-03-30 18:15:23 +0000";
layers = (
{
layerId = "F1E1AA8A-A3F5-4941-B4E6-C7B9A7EBF3CF";
paths = (
{
closed = 1;
nodes = (
"621 -10 OFFCURVE",
"725 99 OFFCURVE",
"725 264 CURVE SMOOTH",
"725 413 OFFCURVE",
"641 536 OFFCURVE",
"486 536 CURVE SMOOTH",
"373 536 OFFCURVE",
"294 480 OFFCURVE",
"250 384 CURVE",
"246 384 LINE",
"247 406 OFFCURVE",
"249 473 OFFCURVE",
"249 519 CURVE SMOOTH",
"249 714 LINE",
"10 714 LINE",
"10 689 LINE",
"223 689 LINE",
"223 260 LINE SMOOTH",
"223 95 OFFCURVE",
"305 -10 OFFCURVE",
"463 -10 CURVE SMOOTH"
);
},
{
closed = 1;
nodes = (
"320 16 OFFCURVE",
"249 114 OFFCURVE",
"249 260 CURVE SMOOTH",
"249 400 OFFCURVE",
"336 510 OFFCURVE",
"485 510 CURVE SMOOTH",
"614 510 OFFCURVE",
"698 412 OFFCURVE",
"698 264 CURVE SMOOTH",
"698 115 OFFCURVE",
"606 16 OFFCURVE",
"463 16 CURVE SMOOTH"
);
}
);
width = 784;
},
{
layerId = "29BFE51A-F5BD-45F8-BEBC-9AD34273B132";
paths = (
{
closed = 1;
nodes = (
"656 -10 OFFCURVE",
"757 99 OFFCURVE",
"757 277 CURVE SMOOTH",
"757 456 OFFCURVE",
"666 562 OFFCURVE",
"527 562 CURVE SMOOTH",
"455 562 OFFCURVE",
"406 539 OFFCURVE",
"366 498 CURVE",
"359 498 LINE",
"364 542 OFFCURVE",
"366 576 OFFCURVE",
"366 615 CURVE SMOOTH",
"366 714 LINE",
"-10 714 LINE",
"-10 560 LINE",
"175 560 LINE",
"175 279 LINE SMOOTH",
"175 96 OFFCURVE",
"264 -10 OFFCURVE",
"459 -10 CURVE SMOOTH"
);
},
{
closed = 1;
nodes = (
"398 147 OFFCURVE",
"366 184 OFFCURVE",
"366 277 CURVE SMOOTH",
"366 369 OFFCURVE",
"400 405 OFFCURVE",
"464 405 CURVE SMOOTH",
"526 405 OFFCURVE",
"558 369 OFFCURVE",
"558 277 CURVE SMOOTH",
"558 184 OFFCURVE",
"520 147 OFFCURVE",
"459 147 CURVE SMOOTH"
);
}
);
width = 804;
},
{
layerId = "0228171D-2638-482B-876E-783119597845";
paths = (
{
closed = 1;
nodes = (
"449 -10 OFFCURVE",
"497 99 OFFCURVE",
"497 263 CURVE SMOOTH",
"497 424 OFFCURVE",
"442 535 OFFCURVE",
"334 535 CURVE SMOOTH",
"264 535 OFFCURVE",
"216 485 OFFCURVE",
"190 408 CURVE",
"187 408 LINE",
"189 441 OFFCURVE",
"190 481 OFFCURVE",
"190 518 CURVE SMOOTH",
"190 714 LINE",
"10 714 LINE",
"10 689 LINE",
"164 689 LINE",
"164 247 LINE SMOOTH",
"164 95 OFFCURVE",
"214 -10 OFFCURVE",
"328 -10 CURVE SMOOTH"
);
},
{
closed = 1;
nodes = (
"234 15 OFFCURVE",
"190 105 OFFCURVE",
"190 259 CURVE SMOOTH",
"190 401 OFFCURVE",
"241 510 OFFCURVE",
"334 510 CURVE SMOOTH",
"415 510 OFFCURVE",
"470 424 OFFCURVE",
"470 263 CURVE SMOOTH",
"470 103 OFFCURVE",
"423 15 OFFCURVE",
"328 15 CURVE SMOOTH"
);
}
);
width = 546;
},
{
layerId = "5ABCF6AD-94E3-4DCD-A28A-F55CA80EA6B2";
paths = (
{
closed = 1;
nodes = (
"476 -10 OFFCURVE",
"537 99 OFFCURVE",
"537 268 CURVE SMOOTH",
"537 435 OFFCURVE",
"480 544 OFFCURVE",
"369 544 CURVE SMOOTH",
"305 544 OFFCURVE",
"261 503 OFFCURVE",
"235 436 CURVE",
"231 436 LINE",
"234 473 OFFCURVE",
"235 514 OFFCURVE",
"235 552 CURVE SMOOTH",
"235 714 LINE",
"4 714 LINE",
"4 641 LINE",
"153 641 LINE",
"153 258 LINE SMOOTH",
"153 96 OFFCURVE",
"211 -10 OFFCURVE",
"342 -10 CURVE SMOOTH"
);
},
{
closed = 1;
nodes = (
"267 63 OFFCURVE",
"235 134 OFFCURVE",
"235 265 CURVE SMOOTH",
"235 388 OFFCURVE",
"272 471 OFFCURVE",
"345 471 CURVE SMOOTH",
"412 471 OFFCURVE",
"451 402 OFFCURVE",
"451 267 CURVE SMOOTH",
"451 133 OFFCURVE",
"414 63 OFFCURVE",
"342 63 CURVE SMOOTH"
);
}
);
width = 580;
},
{
layerId = "E419AE99-0260-44D0-87A9-BD030FD7659A";
paths = (
{
closed = 1;
nodes = (
"501 -10 OFFCURVE",
"576 98 OFFCURVE",
"576 273 CURVE SMOOTH",
"576 445 OFFCURVE",
"517 553 OFFCURVE",
"402 553 CURVE SMOOTH",
"345 553 OFFCURVE",
"305 521 OFFCURVE",
"279 464 CURVE",
"273 464 LINE",
"277 503 OFFCURVE",
"279 546 OFFCURVE",
"279 585 CURVE SMOOTH",
"279 714 LINE",
"-2 714 LINE",
"-2 596 LINE",
"143 596 LINE",
"143 269 LINE SMOOTH",
"143 97 OFFCURVE",
"208 -10 OFFCURVE",
"356 -10 CURVE SMOOTH"
);
},
{
closed = 1;
nodes = (
"298 110 OFFCURVE",
"278 162 OFFCURVE",
"278 270 CURVE SMOOTH",
"278 376 OFFCURVE",
"302 433 OFFCURVE",
"356 433 CURVE SMOOTH",
"408 433 OFFCURVE",
"434 381 OFFCURVE",
"434 271 CURVE SMOOTH",
"434 162 OFFCURVE",
"406 110 OFFCURVE",
"355 110 CURVE SMOOTH"
);
}
);
width = 613;
},
{
layerId = "C7A62E0A-0606-4C56-A5B0-C8EA8B1CCAFA";
paths = (
{
closed = 1;
nodes = (
"517 -10 OFFCURVE",
"600 98 OFFCURVE",
"600 276 CURVE SMOOTH",
"600 451 OFFCURVE",
"540 558 OFFCURVE",
"423 558 CURVE SMOOTH",
"370 558 OFFCURVE",
"332 532 OFFCURVE",
"306 481 CURVE",
"299 481 LINE",
"304 522 OFFCURVE",
"306 566 OFFCURVE",
"306 606 CURVE SMOOTH",
"306 714 LINE",
"-10 714 LINE",
"-10 567 LINE",
"136 567 LINE",
"136 276 LINE SMOOTH",
"136 98 OFFCURVE",
"205 -10 OFFCURVE",
"364 -10 CURVE SMOOTH"
);
},
{
closed = 1;
nodes = (
"318 139 OFFCURVE",
"306 180 OFFCURVE",
"306 274 CURVE SMOOTH",
"306 368 OFFCURVE",
"321 409 OFFCURVE",
"364 409 CURVE SMOOTH",
"407 409 OFFCURVE",
"423 367 OFFCURVE",
"423 274 CURVE SMOOTH",
"423 180 OFFCURVE",
"401 139 OFFCURVE",
"364 139 CURVE SMOOTH"
);
}
);
width = 634;
},
{
layerId = "9503992B-9F6A-43B6-8DBC-EB382B06F8D4";
paths = (
{
closed = 1;
nodes = (
"642 -10 OFFCURVE",
"743 98 OFFCURVE",
"743 269 CURVE SMOOTH",
"743 431 OFFCURVE",
"652 546 OFFCURVE",
"495 546 CURVE SMOOTH",
"409 546 OFFCURVE",
"352 518 OFFCURVE",
"301 444 CURVE",
"295 444 LINE",
"298 474 OFFCURVE",
"300 512 OFFCURVE",
"300 530 CURVE SMOOTH",
"300 714 LINE",
"5 714 LINE",
"5 636 LINE",
"210 636 LINE",
"210 267 LINE SMOOTH",
"210 97 OFFCURVE",
"307 -10 OFFCURVE",
"471 -10 CURVE SMOOTH"
);
},
{
closed = 1;
nodes = (
"363 68 OFFCURVE",
"300 143 OFFCURVE",
"300 267 CURVE SMOOTH",
"300 391 OFFCURVE",
"365 468 OFFCURVE",
"481 468 CURVE SMOOTH",
"588 468 OFFCURVE",
"650 396 OFFCURVE",
"650 269 CURVE SMOOTH",
"650 142 OFFCURVE",
"583 68 OFFCURVE",
"470 68 CURVE SMOOTH"
);
}
);
width = 799;
},
{
layerId = "2D9814BA-45F0-4FCB-8967-A366BFC6AA80";
paths = (
{
closed = 1;
nodes = (
"625 -10 OFFCURVE",
"732 97 OFFCURVE",
"732 274 CURVE SMOOTH",
"732 448 OFFCURVE",
"641 556 OFFCURVE",
"494 556 CURVE SMOOTH",
"416 556 OFFCURVE",
"368 534 OFFCURVE",
"322 473 CURVE",
"314 473 LINE",
"319 513 OFFCURVE",
"321 561 OFFCURVE",
"321 602 CURVE SMOOTH",
"321 714 LINE",
"-5 714 LINE",
"-5 590 LINE",
"170 590 LINE",
"170 274 LINE SMOOTH",
"170 99 OFFCURVE",
"279 -10 OFFCURVE",
"447 -10 CURVE SMOOTH"
);
},
{
closed = 1;
nodes = (
"359 116 OFFCURVE",
"321 166 OFFCURVE",
"321 266 CURVE SMOOTH",
"321 382 OFFCURVE",
"358 430 OFFCURVE",
"450 430 CURVE SMOOTH",
"535 430 OFFCURVE",
"576 381 OFFCURVE",
"576 274 CURVE SMOOTH",
"576 168 OFFCURVE",
"531 116 OFFCURVE",
"449 116 CURVE SMOOTH"
);
}
);
width = 785;
}
);
leftKerningGroup = "Zen-oldgeorgian";
note = uni10A6;
rightKerningGroup = "Zen-oldgeorgian";
rightMetricsKey = "=Don-oldgeorgian-5";
unicode = 10A6;
},
{
glyphname = "Tan-oldgeorgian";
lastChange = "2017-03-30 18:15:23 +0000";
layers = (
{
layerId = "F1E1AA8A-A3F5-4941-B4E6-C7B9A7EBF3CF";
paths = (
{
closed = 1;
nodes = (
"589 714 LINE",
"447 714 LINE SMOOTH",
"197 714 OFFCURVE",
"64 591 OFFCURVE",
"64 352 CURVE SMOOTH",
"64 125 OFFCURVE",
"188 0 OFFCURVE",
"424 0 CURVE SMOOTH",
"589 0 LINE",
"589 368 LINE",
"791 368 LINE",
"791 185 LINE",
"817 185 LINE",
"817 393 LINE",
"589 393 LINE"
);
},
{
closed = 1;
nodes = (
"434 25 LINE SMOOTH",
"202 25 OFFCURVE",
"91 141 OFFCURVE",
"91 353 CURVE SMOOTH",
"91 580 OFFCURVE",
"215 689 OFFCURVE",
"444 689 CURVE SMOOTH",
"563 689 LINE",
"563 25 LINE"
);
}
);
width = 869;
},
{
layerId = "29BFE51A-F5BD-45F8-BEBC-9AD34273B132";
paths = (
{
closed = 1;
nodes = (
"657 714 LINE",
"426 714 LINE SMOOTH",
"199 714 OFFCURVE",
"51 591 OFFCURVE",
"51 342 CURVE SMOOTH",
"51 121 OFFCURVE",
"180 0 OFFCURVE",
"410 0 CURVE SMOOTH",
"657 0 LINE",
"657 283 LINE",
"740 283 LINE",
"740 174 LINE",
"907 174 LINE",
"907 440 LINE",
"657 440 LINE"
);
},
{
closed = 1;
nodes = (
"408 156 LINE SMOOTH",
"303 156 OFFCURVE",
"251 219 OFFCURVE",
"251 349 CURVE SMOOTH",
"251 489 OFFCURVE",
"304 556 OFFCURVE",
"421 556 CURVE SMOOTH",
"464 556 LINE",
"464 156 LINE"
);
}
);
width = 942;
},
{
layerId = "0228171D-2638-482B-876E-783119597845";
paths = (
{
closed = 1;
nodes = (
"404 714 LINE",
"303 714 LINE SMOOTH",
"151 714 OFFCURVE",
"54 596 OFFCURVE",
"54 352 CURVE SMOOTH",
"54 124 OFFCURVE",
"151 0 OFFCURVE",
"303 0 CURVE SMOOTH",
"404 0 LINE",
"404 368 LINE",
"538 368 LINE",
"538 214 LINE",
"564 214 LINE",
"564 393 LINE",
"404 393 LINE"
);
},
{
closed = 1;
nodes = (
"303 25 LINE SMOOTH",
"159 25 OFFCURVE",
"81 148 OFFCURVE",
"81 352 CURVE SMOOTH",
"81 573 OFFCURVE",
"159 689 OFFCURVE",
"303 689 CURVE SMOOTH",
"378 689 LINE",
"378 25 LINE"
);
}
);
width = 598;
},
{
layerId = "5ABCF6AD-94E3-4DCD-A28A-F55CA80EA6B2";
paths = (
{
closed = 1;
nodes = (
"452 714 LINE",
"319 714 LINE SMOOTH",
"150 714 OFFCURVE",
"48 589 OFFCURVE",
"48 352 CURVE SMOOTH",
"48 123 OFFCURVE",
"149 0 OFFCURVE",
"314 0 CURVE SMOOTH",
"452 0 LINE",
"452 342 LINE",
"546 342 LINE",
"546 198 LINE",
"620 198 LINE",
"620 411 LINE",
"452 411 LINE"
);
},
{
closed = 1;
nodes = (
"315 73 LINE SMOOTH",
"196 73 OFFCURVE",
"133 170 OFFCURVE",
"133 355 CURVE SMOOTH",
"133 544 OFFCURVE",
"196 641 OFFCURVE",
"319 641 CURVE SMOOTH",
"370 641 LINE",
"370 73 LINE"
);
}
);
width = 654;
},
{
layerId = "E419AE99-0260-44D0-87A9-BD030FD7659A";
paths = (
{
closed = 1;
nodes = (
"499 714 LINE",
"335 714 LINE SMOOTH",
"151 714 OFFCURVE",
"43 583 OFFCURVE",
"43 352 CURVE SMOOTH",
"43 122 OFFCURVE",
"147 0 OFFCURVE",
"326 0 CURVE SMOOTH",
"499 0 LINE",
"499 316 LINE",
"584 316 LINE",
"584 189 LINE",
"705 189 LINE",
"705 429 LINE",
"499 429 LINE"
);
},
{
closed = 1;
nodes = (
"327 118 LINE SMOOTH",
"232 118 OFFCURVE",
"183 191 OFFCURVE",
"183 357 CURVE SMOOTH",
"183 516 OFFCURVE",
"232 595 OFFCURVE",
"335 595 CURVE SMOOTH",
"363 595 LINE",
"363 118 LINE"
);
}
);
width = 737;
},
{
layerId = "C7A62E0A-0606-4C56-A5B0-C8EA8B1CCAFA";
paths = (
{
closed = 1;
nodes = (
"528 714 LINE",
"344 714 LINE SMOOTH",
"150 714 OFFCURVE",
"39 579 OFFCURVE",
"39 352 CURVE SMOOTH",
"39 121 OFFCURVE",
"145 0 OFFCURVE",
"332 0 CURVE SMOOTH",
"528 0 LINE",
"528 301 LINE",
"607 301 LINE",
"607 184 LINE",
"756 184 LINE",
"756 440 LINE",
"528 440 LINE"
);
},
{
closed = 1;
nodes = (
"335 147 LINE SMOOTH",
"255 147 OFFCURVE",
"215 204 OFFCURVE",
"215 359 CURVE SMOOTH",
"215 498 OFFCURVE",
"255 566 OFFCURVE",
"345 566 CURVE SMOOTH",
"358 566 LINE",
"358 147 LINE"
);
}
);
width = 785;
},
{
layerId = "9503992B-9F6A-43B6-8DBC-EB382B06F8D4";
paths = (
{
closed = 1;
nodes = (
"633 714 LINE",
"434 714 LINE SMOOTH",
"194 714 OFFCURVE",
"61 586 OFFCURVE",
"61 350 CURVE SMOOTH",
"61 130 OFFCURVE",
"189 0 OFFCURVE",
"413 0 CURVE SMOOTH",
"633 0 LINE",
"633 339 LINE",
"784 339 LINE",
"784 174 LINE",
"870 174 LINE",
"870 417 LINE",
"633 417 LINE"
);
},
{
closed = 1;
nodes = (
"426 77 LINE SMOOTH",
"247 77 OFFCURVE",
"156 171 OFFCURVE",
"156 353 CURVE SMOOTH",
"156 541 OFFCURVE",
"253 637 OFFCURVE",
"446 637 CURVE SMOOTH",
"543 637 LINE",
"543 77 LINE"
);
}
);
width = 914;
},
{
layerId = "2D9814BA-45F0-4FCB-8967-A366BFC6AA80";
paths = (
{
closed = 1;
nodes = (
"650 714 LINE",
"426 714 LINE SMOOTH",
"195 714 OFFCURVE",
"58 586 OFFCURVE",
"58 364 CURVE SMOOTH",
"58 129 OFFCURVE",
"196 0 OFFCURVE",
"448 0 CURVE SMOOTH",
"650 0 LINE",
"650 306 LINE",
"767 306 LINE",
"767 174 LINE",
"901 174 LINE",
"901 431 LINE",
"650 431 LINE"
);
},
{
closed = 1;
nodes = (
"434 125 LINE SMOOTH",
"288 125 OFFCURVE",
"215 203 OFFCURVE",
"215 360 CURVE SMOOTH",
"215 513 OFFCURVE",
"283 590 OFFCURVE",
"418 590 CURVE SMOOTH",
"499 590 LINE",
"499 125 LINE"
);
}
);
width = 940;
}
);
leftKerningGroup = "Tan-oldgeorgian";
leftMetricsKey = "Don-oldgeorgian";
note = uni10A7;
rightKerningGroup = "Vin-oldgeorgian";
rightMetricsKey = "Vin-oldgeorgian";
unicode = 10A7;
},
{
glyphname = "In-oldgeorgian";
lastChange = "2017-03-30 18:15:23 +0000";
layers = (
{
layerId = "F1E1AA8A-A3F5-4941-B4E6-C7B9A7EBF3CF";
paths = (
{
closed = 1;
nodes = (
"336 0 LINE",
"336 714 LINE",
"10 714 LINE",
"10 689 LINE",
"310 689 LINE",
"310 0 LINE"
);
}
);
width = 439;
},
{
layerId = "29BFE51A-F5BD-45F8-BEBC-9AD34273B132";
paths = (
{
closed = 1;
nodes = (
"466 0 LINE",
"466 714 LINE",
"-10 714 LINE",
"-10 558 LINE",
"272 558 LINE",
"272 0 LINE"
);
}
);
width = 543;
},
{
layerId = "0228171D-2638-482B-876E-783119597845";
paths = (
{
closed = 1;
nodes = (
"236 0 LINE",
"236 714 LINE",
"10 714 LINE",
"10 689 LINE",
"210 689 LINE",
"210 0 LINE"
);
}
);
width = 314;
},
{
layerId = "5ABCF6AD-94E3-4DCD-A28A-F55CA80EA6B2";
paths = (
{
closed = 1;
nodes = (
"292 0 LINE",
"292 714 LINE",
"4 714 LINE",
"4 641 LINE",
"210 641 LINE",
"210 0 LINE"
);
}
);
width = 364;
},
{
layerId = "E419AE99-0260-44D0-87A9-BD030FD7659A";
paths = (
{
closed = 1;
nodes = (
"345 0 LINE",
"345 714 LINE",
"-2 714 LINE",
"-2 596 LINE",
"209 596 LINE",
"209 0 LINE"
);
}
);
width = 409;
},
{
layerId = "C7A62E0A-0606-4C56-A5B0-C8EA8B1CCAFA";
paths = (
{
closed = 1;
nodes = (
"375 0 LINE",
"375 714 LINE",
"-10 714 LINE",
"-10 567 LINE",
"205 567 LINE",
"205 0 LINE"
);
}
);
width = 434;
},
{
layerId = "9503992B-9F6A-43B6-8DBC-EB382B06F8D4";
paths = (
{
closed = 1;
nodes = (
"384 0 LINE",
"384 714 LINE",
"5 714 LINE",
"5 636 LINE",
"294 636 LINE",
"294 0 LINE"
);
}
);
width = 482;
},
{
layerId = "2D9814BA-45F0-4FCB-8967-A366BFC6AA80";
paths = (
{
closed = 1;
nodes = (
"425 0 LINE",
"425 714 LINE",
"-5 714 LINE",
"-5 588 LINE",
"274 588 LINE",
"274 0 LINE"
);
}
);
width = 515;
}
);
leftKerningGroup = "Zen-oldgeorgian";
leftMetricsKey = "Zen-oldgeorgian";
note = uni10A8;
rightKerningGroup = "En-oldgeorgian";
rightMetricsKey = "En-oldgeorgian";
unicode = 10A8;
},
{
glyphname = "Kan-oldgeorgian";
lastChange = "2017-03-28 19:12:04 +0000";
layers = (
{
layerId = "F1E1AA8A-A3F5-4941-B4E6-C7B9A7EBF3CF";
paths = (
{
closed = 1;
nodes = (
"603 0 LINE",
"603 356 LINE SMOOTH",
"603 495 OFFCURVE",
"520 616 OFFCURVE",
"356 616 CURVE SMOOTH",
"264 616 OFFCURVE",
"172 572 OFFCURVE",
"122 468 CURVE",
"118 468 LINE",
"119 497 OFFCURVE",
"121 527 OFFCURVE",
"121 560 CURVE SMOOTH",
"121 714 LINE",
"95 714 LINE",
"95 362 LINE SMOOTH",
"95 214 OFFCURVE",
"190 102 OFFCURVE",
"356 102 CURVE SMOOTH",
"448 102 OFFCURVE",
"535 147 OFFCURVE",
"575 237 CURVE",
"580 237 LINE",
"579 215 OFFCURVE",
"577 169 OFFCURVE",
"577 146 CURVE SMOOTH",
"577 0 LINE"
);
},
{
closed = 1;
nodes = (
"216 128 OFFCURVE",
"121 215 OFFCURVE",
"121 363 CURVE SMOOTH",
"121 483 OFFCURVE",
"216 590 OFFCURVE",
"356 590 CURVE SMOOTH",
"485 590 OFFCURVE",
"577 499 OFFCURVE",
"577 356 CURVE SMOOTH",
"577 219 OFFCURVE",
"484 128 OFFCURVE",
"356 128 CURVE SMOOTH"
);
}
);
width = 697;
},
{
layerId = "29BFE51A-F5BD-45F8-BEBC-9AD34273B132";
paths = (
{
closed = 1;
nodes = (
"666 0 LINE",
"666 374 LINE SMOOTH",
"666 533 OFFCURVE",
"583 632 OFFCURVE",
"437 632 CURVE SMOOTH",
"356 632 OFFCURVE",
"298 603 OFFCURVE",
"261 555 CURVE",
"256 555 LINE",
"262 600 OFFCURVE",
"263 648 OFFCURVE",
"263 686 CURVE SMOOTH",
"263 714 LINE",
"69 714 LINE",
"69 356 LINE SMOOTH",
"69 197 OFFCURVE",
"151 98 OFFCURVE",
"297 98 CURVE SMOOTH",
"378 98 OFFCURVE",
"436 127 OFFCURVE",
"473 176 CURVE",
"478 176 LINE",
"472 120 OFFCURVE",
"472 71 OFFCURVE",
"472 28 CURVE SMOOTH",
"472 0 LINE"
);
},
{
closed = 1;
nodes = (
"292 255 OFFCURVE",
"263 295 OFFCURVE",
"263 365 CURVE SMOOTH",
"263 434 OFFCURVE",
"300 475 OFFCURVE",
"370 475 CURVE SMOOTH",
"441 475 OFFCURVE",
"472 434 OFFCURVE",
"472 365 CURVE SMOOTH",
"472 295 OFFCURVE",
"435 255 OFFCURVE",
"364 255 CURVE SMOOTH"
);
}
);
width = 735;
},
{
layerId = "0228171D-2638-482B-876E-783119597845";
paths = (
{
closed = 1;
nodes = (
"408 0 LINE",
"408 355 LINE SMOOTH",
"408 509 OFFCURVE",
"356 615 OFFCURVE",
"244 615 CURVE SMOOTH",
"185 615 OFFCURVE",
"126 575 OFFCURVE",
"99 490 CURVE",
"96 490 LINE",
"97 514 OFFCURVE",
"98 549 OFFCURVE",
"98 595 CURVE SMOOTH",
"98 714 LINE",
"72 714 LINE",
"72 362 LINE SMOOTH",
"72 199 OFFCURVE",
"128 102 OFFCURVE",
"241 102 CURVE SMOOTH",
"300 102 OFFCURVE",
"354 143 OFFCURVE",
"380 227 CURVE",
"384 227 LINE",
"383 189 OFFCURVE",
"382 152 OFFCURVE",
"382 109 CURVE SMOOTH",
"382 0 LINE"
);
},
{
closed = 1;
nodes = (
"148 127 OFFCURVE",
"98 205 OFFCURVE",
"98 363 CURVE SMOOTH",
"98 492 OFFCURVE",
"156 590 OFFCURVE",
"244 590 CURVE SMOOTH",
"331 590 OFFCURVE",
"382 503 OFFCURVE",
"382 355 CURVE SMOOTH",
"382 216 OFFCURVE",
"317 127 OFFCURVE",
"241 127 CURVE SMOOTH"
);
}
);
width = 479;
},
{
layerId = "5ABCF6AD-94E3-4DCD-A28A-F55CA80EA6B2";
paths = (
{
closed = 1;
nodes = (
"453 0 LINE",
"453 365 LINE SMOOTH",
"453 520 OFFCURVE",
"400 622 OFFCURVE",
"286 622 CURVE SMOOTH",
"226 622 OFFCURVE",
"175 586 OFFCURVE",
"148 515 CURVE",
"144 515 LINE",
"147 544 OFFCURVE",
"147 581 OFFCURVE",
"147 622 CURVE SMOOTH",
"147 714 LINE",
"65 714 LINE",
"65 357 LINE SMOOTH",
"65 197 OFFCURVE",
"120 100 OFFCURVE",
"235 100 CURVE SMOOTH",
"295 100 OFFCURVE",
"343 134 OFFCURVE",
"369 207 CURVE",
"373 207 LINE",
"372 168 OFFCURVE",
"371 130 OFFCURVE",
"371 91 CURVE SMOOTH",
"371 0 LINE"
);
},
{
closed = 1;
nodes = (
"184 170 OFFCURVE",
"148 233 OFFCURVE",
"148 363 CURVE SMOOTH",
"148 477 OFFCURVE",
"189 552 OFFCURVE",
"261 552 CURVE SMOOTH",
"333 552 OFFCURVE",
"370 484 OFFCURVE",
"370 360 CURVE SMOOTH",
"370 239 OFFCURVE",
"325 170 OFFCURVE",
"259 170 CURVE SMOOTH"
);
}
);
width = 518;
},
{
layerId = "E419AE99-0260-44D0-87A9-BD030FD7659A";
paths = (
{
closed = 1;
nodes = (
"496 0 LINE",
"496 375 LINE SMOOTH",
"496 531 OFFCURVE",
"443 628 OFFCURVE",
"326 628 CURVE SMOOTH",
"265 628 OFFCURVE",
"223 596 OFFCURVE",
"196 539 CURVE",
"190 539 LINE",
"195 573 OFFCURVE",
"195 611 OFFCURVE",
"195 648 CURVE SMOOTH",
"195 714 LINE",
"59 714 LINE",
"59 353 LINE SMOOTH",
"59 194 OFFCURVE",
"113 99 OFFCURVE",
"230 99 CURVE SMOOTH",
"291 99 OFFCURVE",
"333 126 OFFCURVE",
"360 188 CURVE",
"364 188 LINE",
"362 149 OFFCURVE",
"361 109 OFFCURVE",
"361 73 CURVE SMOOTH",
"361 0 LINE"
);
},
{
closed = 1;
nodes = (
"219 211 OFFCURVE",
"196 259 OFFCURVE",
"196 362 CURVE SMOOTH",
"196 463 OFFCURVE",
"220 516 OFFCURVE",
"278 516 CURVE SMOOTH",
"336 516 OFFCURVE",
"360 466 OFFCURVE",
"360 364 CURVE SMOOTH",
"360 262 OFFCURVE",
"333 211 OFFCURVE",
"277 211 CURVE SMOOTH"
);
}
);
width = 555;
},
{
layerId = "C7A62E0A-0606-4C56-A5B0-C8EA8B1CCAFA";
paths = (
{
closed = 1;
nodes = (
"524 0 LINE",
"524 381 LINE SMOOTH",
"524 538 OFFCURVE",
"470 632 OFFCURVE",
"352 632 CURVE SMOOTH",
"290 632 OFFCURVE",
"253 603 OFFCURVE",
"226 554 CURVE",
"220 554 LINE",
"225 592 OFFCURVE",
"225 630 OFFCURVE",
"225 664 CURVE SMOOTH",
"225 714 LINE",
"55 714 LINE",
"55 350 LINE SMOOTH",
"55 193 OFFCURVE",
"109 98 OFFCURVE",
"227 98 CURVE SMOOTH",
"288 98 OFFCURVE",
"327 121 OFFCURVE",
"354 176 CURVE",
"358 176 LINE",
"355 136 OFFCURVE",
"354 95 OFFCURVE",
"354 62 CURVE SMOOTH",
"354 0 LINE"
);
},
{
closed = 1;
nodes = (
"242 237 OFFCURVE",
"227 276 OFFCURVE",
"227 362 CURVE SMOOTH",
"227 454 OFFCURVE",
"241 493 OFFCURVE",
"289 493 CURVE SMOOTH",
"338 493 OFFCURVE",
"353 454 OFFCURVE",
"353 367 CURVE SMOOTH",
"353 276 OFFCURVE",
"338 237 OFFCURVE",
"289 237 CURVE SMOOTH"
);
}
);
width = 579;
},
{
layerId = "9503992B-9F6A-43B6-8DBC-EB382B06F8D4";
paths = (
{
closed = 1;
nodes = (
"623 0 LINE",
"623 362 LINE SMOOTH",
"623 514 OFFCURVE",
"531 624 OFFCURVE",
"375 624 CURVE SMOOTH",
"290 624 OFFCURVE",
"232 596 OFFCURVE",
"181 522 CURVE",
"175 522 LINE",
"178 571 OFFCURVE",
"180 600 OFFCURVE",
"180 608 CURVE SMOOTH",
"180 714 LINE",
"90 714 LINE",
"90 362 LINE SMOOTH",
"90 206 OFFCURVE",
"184 100 OFFCURVE",
"338 100 CURVE",
"423 100 OFFCURVE",
"485 133 OFFCURVE",
"532 202 CURVE",
"538 202 LINE",
"536 174 OFFCURVE",
"533 142 OFFCURVE",
"533 116 CURVE SMOOTH",
"533 0 LINE"
);
},
{
closed = 1;
nodes = (
"243 178 OFFCURVE",
"180 247 OFFCURVE",
"180 362 CURVE SMOOTH",
"180 477 OFFCURVE",
"247 546 OFFCURVE",
"362 546 CURVE SMOOTH",
"469 546 OFFCURVE",
"533 479 OFFCURVE",
"533 362 CURVE SMOOTH",
"533 248 OFFCURVE",
"466 178 OFFCURVE",
"351 178 CURVE SMOOTH"
);
}
);
width = 703;
},
{
layerId = "2D9814BA-45F0-4FCB-8967-A366BFC6AA80";
paths = (
{
closed = 1;
nodes = (
"632 0 LINE",
"632 368 LINE SMOOTH",
"632 532 OFFCURVE",
"542 632 OFFCURVE",
"399 632 CURVE SMOOTH",
"321 632 OFFCURVE",
"272 611 OFFCURVE",
"227 554 CURVE",
"219 554 LINE",
"223 588 OFFCURVE",
"226 622 OFFCURVE",
"226 654 CURVE SMOOTH",
"226 714 LINE",
"75 714 LINE",
"75 362 LINE SMOOTH",
"75 198 OFFCURVE",
"165 98 OFFCURVE",
"308 98 CURVE SMOOTH",
"386 98 OFFCURVE",
"436 119 OFFCURVE",
"481 176 CURVE",
"488 176 LINE",
"485 143 OFFCURVE",
"481 105 OFFCURVE",
"481 76 CURVE SMOOTH",
"481 0 LINE"
);
},
{
closed = 1;
nodes = (
"278 224 OFFCURVE",
"226 267 OFFCURVE",
"226 361 CURVE SMOOTH",
"226 464 OFFCURVE",
"273 506 OFFCURVE",
"355 506 CURVE SMOOTH",
"431 506 OFFCURVE",
"481 462 OFFCURVE",
"481 368 CURVE SMOOTH",
"481 267 OFFCURVE",
"434 224 OFFCURVE",
"352 224 CURVE SMOOTH"
);
}
);
width = 707;
}
);
note = uni10A9;
unicode = 10A9;
},
{
glyphname = "Las-oldgeorgian";
lastChange = "2017-03-30 18:15:23 +0000";
layers = (
{
layerId = "F1E1AA8A-A3F5-4941-B4E6-C7B9A7EBF3CF";
paths = (
{
closed = 1;
nodes = (
"828 -10 OFFCURVE",
"932 99 OFFCURVE",
"932 264 CURVE SMOOTH",
"932 413 OFFCURVE",
"848 536 OFFCURVE",
"693 536 CURVE SMOOTH",
"580 536 OFFCURVE",
"501 480 OFFCURVE",
"457 384 CURVE",
"453 384 LINE",
"454 406 OFFCURVE",
"456 473 OFFCURVE",
"456 519 CURVE SMOOTH",
"456 714 LINE",
"86 714 LINE",
"86 407 LINE",
"112 407 LINE",
"112 688 LINE",
"430 688 LINE",
"430 260 LINE SMOOTH",
"430 95 OFFCURVE",
"512 -10 OFFCURVE",
"670 -10 CURVE SMOOTH"
);
},
{
closed = 1;
nodes = (
"527 16 OFFCURVE",
"456 114 OFFCURVE",
"456 260 CURVE SMOOTH",
"456 400 OFFCURVE",
"543 510 OFFCURVE",
"692 510 CURVE SMOOTH",
"821 510 OFFCURVE",
"905 412 OFFCURVE",
"905 264 CURVE SMOOTH",
"905 115 OFFCURVE",
"813 16 OFFCURVE",
"670 16 CURVE SMOOTH"
);
}
);
width = 991;
},
{
layerId = "29BFE51A-F5BD-45F8-BEBC-9AD34273B132";
paths = (
{
closed = 1;
nodes = (
"871 -10 OFFCURVE",
"972 99 OFFCURVE",
"972 277 CURVE SMOOTH",
"972 456 OFFCURVE",
"881 562 OFFCURVE",
"742 562 CURVE SMOOTH",
"670 562 OFFCURVE",
"621 539 OFFCURVE",
"581 498 CURVE",
"574 498 LINE",
"579 542 OFFCURVE",
"581 576 OFFCURVE",
"581 615 CURVE SMOOTH",
"581 714 LINE",
"63 714 LINE",
"63 363 LINE",
"254 363 LINE",
"254 555 LINE",
"390 555 LINE",
"390 279 LINE SMOOTH",
"390 96 OFFCURVE",
"479 -10 OFFCURVE",
"674 -10 CURVE SMOOTH"
);
},
{
closed = 1;
nodes = (
"613 147 OFFCURVE",
"581 184 OFFCURVE",
"581 277 CURVE SMOOTH",
"581 369 OFFCURVE",
"615 405 OFFCURVE",
"679 405 CURVE SMOOTH",
"741 405 OFFCURVE",
"773 369 OFFCURVE",
"773 277 CURVE SMOOTH",
"773 184 OFFCURVE",
"735 147 OFFCURVE",
"674 147 CURVE SMOOTH"
);
}
);
width = 1019;
},
{
layerId = "0228171D-2638-482B-876E-783119597845";
paths = (
{
closed = 1;
nodes = (
"589 -10 OFFCURVE",
"637 99 OFFCURVE",
"637 263 CURVE SMOOTH",
"637 424 OFFCURVE",
"582 535 OFFCURVE",
"474 535 CURVE SMOOTH",
"404 535 OFFCURVE",
"356 485 OFFCURVE",
"330 408 CURVE",
"327 408 LINE",
"329 441 OFFCURVE",
"330 481 OFFCURVE",
"330 518 CURVE SMOOTH",
"330 714 LINE",
"68 714 LINE",
"68 407 LINE",
"94 407 LINE",
"94 689 LINE",
"304 689 LINE",
"304 247 LINE SMOOTH",
"304 95 OFFCURVE",
"354 -10 OFFCURVE",
"468 -10 CURVE SMOOTH"
);
},
{
closed = 1;
nodes = (
"374 15 OFFCURVE",
"330 105 OFFCURVE",
"330 259 CURVE SMOOTH",
"330 401 OFFCURVE",
"381 510 OFFCURVE",
"474 510 CURVE SMOOTH",
"555 510 OFFCURVE",
"610 424 OFFCURVE",
"610 263 CURVE SMOOTH",
"610 103 OFFCURVE",
"563 15 OFFCURVE",
"468 15 CURVE SMOOTH"
);
}
);
width = 686;
},
{
layerId = "5ABCF6AD-94E3-4DCD-A28A-F55CA80EA6B2";
paths = (
{
closed = 1;
nodes = (
"616 -10 OFFCURVE",
"678 99 OFFCURVE",
"678 268 CURVE SMOOTH",
"678 435 OFFCURVE",
"621 544 OFFCURVE",
"509 544 CURVE SMOOTH",
"446 544 OFFCURVE",
"402 503 OFFCURVE",
"376 436 CURVE",
"371 436 LINE",
"374 473 OFFCURVE",
"376 514 OFFCURVE",
"376 552 CURVE SMOOTH",
"376 714 LINE",
"60 714 LINE",
"60 396 LINE",
"142 396 LINE",
"142 641 LINE",
"294 641 LINE",
"294 258 LINE SMOOTH",
"294 96 OFFCURVE",
"351 -10 OFFCURVE",
"482 -10 CURVE SMOOTH"
);
},
{
closed = 1;
nodes = (
"408 63 OFFCURVE",
"376 134 OFFCURVE",
"376 265 CURVE SMOOTH",
"376 388 OFFCURVE",
"413 471 OFFCURVE",
"486 471 CURVE SMOOTH",
"553 471 OFFCURVE",
"592 402 OFFCURVE",
"592 267 CURVE SMOOTH",
"592 133 OFFCURVE",
"555 63 OFFCURVE",
"483 63 CURVE SMOOTH"
);
}
);
width = 721;
},
{
layerId = "E419AE99-0260-44D0-87A9-BD030FD7659A";
paths = (
{
closed = 1;
nodes = (
"663 -10 OFFCURVE",
"737 98 OFFCURVE",
"737 273 CURVE SMOOTH",
"737 445 OFFCURVE",
"678 553 OFFCURVE",
"564 553 CURVE SMOOTH",
"506 553 OFFCURVE",
"466 521 OFFCURVE",
"440 464 CURVE",
"434 464 LINE",
"438 503 OFFCURVE",
"440 546 OFFCURVE",
"440 585 CURVE SMOOTH",
"440 714 LINE",
"57 714 LINE",
"57 381 LINE",
"193 381 LINE",
"193 595 LINE",
"304 595 LINE",
"304 269 LINE SMOOTH",
"304 97 OFFCURVE",
"369 -10 OFFCURVE",
"517 -10 CURVE SMOOTH"
);
},
{
closed = 1;
nodes = (
"460 110 OFFCURVE",
"440 162 OFFCURVE",
"440 270 CURVE SMOOTH",
"440 376 OFFCURVE",
"464 433 OFFCURVE",
"518 433 CURVE SMOOTH",
"570 433 OFFCURVE",
"596 381 OFFCURVE",
"596 271 CURVE SMOOTH",
"596 162 OFFCURVE",
"568 110 OFFCURVE",
"517 110 CURVE SMOOTH"
);
}
);
width = 774;
},
{
layerId = "C7A62E0A-0606-4C56-A5B0-C8EA8B1CCAFA";
paths = (
{
closed = 1;
nodes = (
"693 -10 OFFCURVE",
"776 98 OFFCURVE",
"776 276 CURVE SMOOTH",
"776 451 OFFCURVE",
"716 558 OFFCURVE",
"599 558 CURVE SMOOTH",
"546 558 OFFCURVE",
"508 532 OFFCURVE",
"482 481 CURVE",
"475 481 LINE",
"480 522 OFFCURVE",
"482 566 OFFCURVE",
"482 606 CURVE SMOOTH",
"482 714 LINE",
"48 714 LINE",
"48 369 LINE",
"218 369 LINE",
"218 567 LINE",
"312 567 LINE",
"312 276 LINE SMOOTH",
"312 98 OFFCURVE",
"381 -10 OFFCURVE",
"540 -10 CURVE SMOOTH"
);
},
{
closed = 1;
nodes = (
"494 139 OFFCURVE",
"482 180 OFFCURVE",
"482 274 CURVE SMOOTH",
"482 368 OFFCURVE",
"497 409 OFFCURVE",
"540 409 CURVE SMOOTH",
"583 409 OFFCURVE",
"599 367 OFFCURVE",
"599 274 CURVE SMOOTH",
"599 180 OFFCURVE",
"577 139 OFFCURVE",
"540 139 CURVE SMOOTH"
);
}
);
width = 810;
},
{
layerId = "9503992B-9F6A-43B6-8DBC-EB382B06F8D4";
paths = (
{
closed = 1;
nodes = (
"840 -10 OFFCURVE",
"947 96 OFFCURVE",
"947 269 CURVE SMOOTH",
"947 427 OFFCURVE",
"858 546 OFFCURVE",
"699 546 CURVE SMOOTH",
"614 546 OFFCURVE",
"556 518 OFFCURVE",
"505 444 CURVE",
"499 444 LINE",
"502 493 OFFCURVE",
"504 521 OFFCURVE",
"504 530 CURVE SMOOTH",
"504 714 LINE",
"76 714 LINE",
"76 390 LINE",
"166 390 LINE",
"166 636 LINE",
"414 636 LINE",
"414 267 LINE SMOOTH",
"414 96 OFFCURVE",
"513 -10 OFFCURVE",
"675 -10 CURVE SMOOTH"
);
},
{
closed = 1;
nodes = (
"566 68 OFFCURVE",
"504 143 OFFCURVE",
"504 267 CURVE SMOOTH",
"504 392 OFFCURVE",
"570 468 OFFCURVE",
"685 468 CURVE SMOOTH",
"792 468 OFFCURVE",
"854 396 OFFCURVE",
"854 269 CURVE SMOOTH",
"854 142 OFFCURVE",
"787 68 OFFCURVE",
"674 68 CURVE SMOOTH"
);
}
);
width = 1003;
},
{
layerId = "2D9814BA-45F0-4FCB-8967-A366BFC6AA80";
paths = (
{
closed = 1;
nodes = (
"846 -10 OFFCURVE",
"954 97 OFFCURVE",
"954 274 CURVE SMOOTH",
"954 449 OFFCURVE",
"864 556 OFFCURVE",
"716 556 CURVE SMOOTH",
"638 556 OFFCURVE",
"590 534 OFFCURVE",
"544 473 CURVE",
"536 473 LINE",
"539 513 OFFCURVE",
"543 556 OFFCURVE",
"543 580 CURVE SMOOTH",
"543 714 LINE",
"71 714 LINE",
"71 370 LINE",
"222 370 LINE",
"222 587 LINE",
"392 587 LINE",
"392 274 LINE SMOOTH",
"392 100 OFFCURVE",
"500 -10 OFFCURVE",
"669 -10 CURVE SMOOTH"
);
},
{
closed = 1;
nodes = (
"581 116 OFFCURVE",
"543 166 OFFCURVE",
"543 266 CURVE SMOOTH",
"543 382 OFFCURVE",
"581 430 OFFCURVE",
"672 430 CURVE SMOOTH",
"758 430 OFFCURVE",
"798 379 OFFCURVE",
"798 274 CURVE SMOOTH",
"798 168 OFFCURVE",
"754 116 OFFCURVE",
"671 116 CURVE SMOOTH"
);
}
);
width = 1007;
}
);
leftKerningGroup = "Gan-oldgeorgian";
leftMetricsKey = "En-oldgeorgian";
note = uni10AA;
rightKerningGroup = "Zen-oldgeorgian";
rightMetricsKey = "=Don-oldgeorgian-5";
unicode = 10AA;
},
{
glyphname = "Man-oldgeorgian";
lastChange = "2017-03-28 19:12:04 +0000";
layers = (
{
layerId = "F1E1AA8A-A3F5-4941-B4E6-C7B9A7EBF3CF";
paths = (
{
closed = 1;
nodes = (
"465 -10 OFFCURVE",
"543 87 OFFCURVE",
"543 272 CURVE SMOOTH",
"543 428 LINE",
"705 428 LINE",
"705 453 LINE",
"543 453 LINE",
"543 714 LINE",
"107 714 LINE",
"107 689 LINE",
"517 689 LINE",
"517 453 LINE",
"329 453 LINE SMOOTH",
"159 453 OFFCURVE",
"64 383 OFFCURVE",
"64 226 CURVE SMOOTH",
"64 89 OFFCURVE",
"145 -10 OFFCURVE",
"300 -10 CURVE SMOOTH"
);
},
{
closed = 1;
nodes = (
"166 15 OFFCURVE",
"91 101 OFFCURVE",
"91 226 CURVE SMOOTH",
"91 371 OFFCURVE",
"179 428 OFFCURVE",
"329 428 CURVE SMOOTH",
"517 428 LINE",
"517 272 LINE SMOOTH",
"517 102 OFFCURVE",
"444 15 OFFCURVE",
"300 15 CURVE SMOOTH"
);
}
);
width = 757;
},
{
layerId = "29BFE51A-F5BD-45F8-BEBC-9AD34273B132";
paths = (
{
closed = 1;
nodes = (
"514 -10 OFFCURVE",
"623 96 OFFCURVE",
"623 243 CURVE SMOOTH",
"623 332 LINE",
"787 332 LINE",
"787 479 LINE",
"623 479 LINE",
"623 714 LINE",
"83 714 LINE",
"83 558 LINE",
"432 558 LINE",
"432 479 LINE",
"337 479 LINE SMOOTH",
"155 479 OFFCURVE",
"51 395 OFFCURVE",
"51 237 CURVE SMOOTH",
"51 85 OFFCURVE",
"166 -10 OFFCURVE",
"335 -10 CURVE SMOOTH"
);
},
{
closed = 1;
nodes = (
"286 147 OFFCURVE",
"250 181 OFFCURVE",
"250 239 CURVE SMOOTH",
"250 298 OFFCURVE",
"286 332 OFFCURVE",
"337 332 CURVE SMOOTH",
"432 332 LINE",
"432 252 LINE SMOOTH",
"432 192 OFFCURVE",
"398 147 OFFCURVE",
"337 147 CURVE SMOOTH"
);
}
);
width = 822;
},
{
layerId = "0228171D-2638-482B-876E-783119597845";
paths = (
{
closed = 1;
nodes = (
"308 -10 OFFCURVE",
"352 83 OFFCURVE",
"352 232 CURVE SMOOTH",
"352 425 LINE",
"446 425 LINE",
"446 450 LINE",
"352 450 LINE",
"352 714 LINE",
"89 714 LINE",
"89 689 LINE",
"326 689 LINE",
"326 450 LINE",
"230 450 LINE SMOOTH",
"116 450 OFFCURVE",
"54 384 OFFCURVE",
"54 225 CURVE SMOOTH",
"54 83 OFFCURVE",
"102 -10 OFFCURVE",
"204 -10 CURVE SMOOTH"
);
},
{
closed = 1;
nodes = (
"122 15 OFFCURVE",
"81 93 OFFCURVE",
"81 225 CURVE SMOOTH",
"81 373 OFFCURVE",
"134 425 OFFCURVE",
"230 425 CURVE SMOOTH",
"326 425 LINE",
"326 233 LINE SMOOTH",
"326 93 OFFCURVE",
"288 15 OFFCURVE",
"204 15 CURVE SMOOTH"
);
}
);
width = 480;
},
{
layerId = "5ABCF6AD-94E3-4DCD-A28A-F55CA80EA6B2";
paths = (
{
closed = 1;
nodes = (
"365 -10 OFFCURVE",
"425 85 OFFCURVE",
"425 242 CURVE SMOOTH",
"425 393 LINE",
"529 393 LINE",
"529 462 LINE",
"425 462 LINE",
"425 714 LINE",
"89 714 LINE",
"89 641 LINE",
"343 641 LINE",
"343 462 LINE",
"256 462 LINE SMOOTH",
"124 462 OFFCURVE",
"48 396 OFFCURVE",
"48 230 CURVE SMOOTH",
"48 85 OFFCURVE",
"116 -10 OFFCURVE",
"239 -10 CURVE SMOOTH"
);
},
{
closed = 1;
nodes = (
"168 63 OFFCURVE",
"133 127 OFFCURVE",
"133 231 CURVE SMOOTH",
"133 353 OFFCURVE",
"174 392 OFFCURVE",
"256 392 CURVE SMOOTH",
"342 392 LINE",
"342 242 LINE SMOOTH",
"342 127 OFFCURVE",
"310 63 OFFCURVE",
"238 63 CURVE SMOOTH"
);
}
);
width = 563;
},
{
layerId = "E419AE99-0260-44D0-87A9-BD030FD7659A";
paths = (
{
closed = 1;
nodes = (
"394 -10 OFFCURVE",
"470 86 OFFCURVE",
"470 239 CURVE SMOOTH",
"470 361 LINE",
"584 361 LINE",
"584 473 LINE",
"470 473 LINE",
"470 714 LINE",
"83 714 LINE",
"83 595 LINE",
"333 595 LINE",
"333 473 LINE",
"266 473 LINE SMOOTH",
"142 473 OFFCURVE",
"43 408 OFFCURVE",
"43 234 CURVE SMOOTH",
"43 86 OFFCURVE",
"125 -10 OFFCURVE",
"256 -10 CURVE SMOOTH"
);
},
{
closed = 1;
nodes = (
"210 105 OFFCURVE",
"185 154 OFFCURVE",
"185 237 CURVE SMOOTH",
"185 333 OFFCURVE",
"224 360 OFFCURVE",
"266 360 CURVE SMOOTH",
"332 360 LINE",
"332 240 LINE SMOOTH",
"332 154 OFFCURVE",
"307 105 OFFCURVE",
"256 105 CURVE SMOOTH"
);
}
);
width = 616;
},
{
layerId = "C7A62E0A-0606-4C56-A5B0-C8EA8B1CCAFA";
paths = (
{
closed = 1;
nodes = (
"428 -10 OFFCURVE",
"509 87 OFFCURVE",
"509 237 CURVE SMOOTH",
"509 341 LINE",
"628 341 LINE",
"628 480 LINE",
"509 480 LINE",
"509 714 LINE",
"89 714 LINE",
"89 567 LINE",
"339 567 LINE",
"339 480 LINE",
"278 480 LINE SMOOTH",
"147 480 OFFCURVE",
"39 416 OFFCURVE",
"39 237 CURVE SMOOTH",
"39 87 OFFCURVE",
"135 -10 OFFCURVE",
"277 -10 CURVE SMOOTH"
);
},
{
closed = 1;
nodes = (
"239 130 OFFCURVE",
"216 170 OFFCURVE",
"216 240 CURVE SMOOTH",
"216 321 OFFCURVE",
"248 341 OFFCURVE",
"289 341 CURVE SMOOTH",
"339 341 LINE",
"339 255 LINE SMOOTH",
"339 170 OFFCURVE",
"321 130 OFFCURVE",
"277 130 CURVE SMOOTH"
);
}
);
width = 657;
},
{
layerId = "9503992B-9F6A-43B6-8DBC-EB382B06F8D4";
paths = (
{
closed = 1;
nodes = (
"488 -10 OFFCURVE",
"575 89 OFFCURVE",
"575 248 CURVE SMOOTH",
"575 399 LINE",
"706 399 LINE",
"706 477 LINE",
"575 477 LINE",
"575 714 LINE",
"116 714 LINE",
"116 636 LINE",
"485 636 LINE",
"485 477 LINE",
"316 477 LINE SMOOTH",
"158 477 OFFCURVE",
"61 389 OFFCURVE",
"61 233 CURVE SMOOTH",
"61 77 OFFCURVE",
"165 -10 OFFCURVE",
"317 -10 CURVE SMOOTH"
);
},
{
closed = 1;
nodes = (
"217 68 OFFCURVE",
"152 122 OFFCURVE",
"152 233 CURVE SMOOTH",
"152 343 OFFCURVE",
"210 399 OFFCURVE",
"321 399 CURVE SMOOTH",
"485 399 LINE",
"485 242 LINE SMOOTH",
"485 133 OFFCURVE",
"434 68 OFFCURVE",
"312 68 CURVE SMOOTH"
);
}
);
width = 750;
},
{
layerId = "2D9814BA-45F0-4FCB-8967-A366BFC6AA80";
paths = (
{
closed = 1;
nodes = (
"511 -10 OFFCURVE",
"611 93 OFFCURVE",
"611 245 CURVE SMOOTH",
"611 359 LINE",
"752 359 LINE",
"752 478 LINE",
"611 478 LINE",
"611 714 LINE",
"110 714 LINE",
"110 590 LINE",
"461 590 LINE",
"461 478 LINE",
"342 478 LINE SMOOTH",
"158 478 OFFCURVE",
"58 393 OFFCURVE",
"58 235 CURVE SMOOTH",
"58 82 OFFCURVE",
"164 -10 OFFCURVE",
"337 -10 CURVE SMOOTH"
);
},
{
closed = 1;
nodes = (
"256 115 OFFCURVE",
"212 157 OFFCURVE",
"212 237 CURVE SMOOTH",
"212 316 OFFCURVE",
"257 359 OFFCURVE",
"340 359 CURVE SMOOTH",
"461 359 LINE",
"461 248 LINE SMOOTH",
"461 168 OFFCURVE",
"420 115 OFFCURVE",
"337 115 CURVE SMOOTH"
);
}
);
width = 791;
}
);
leftMetricsKey = "Don-oldgeorgian";
note = uni10AB;
rightMetricsKey = "Vin-oldgeorgian";
unicode = 10AB;
},
{
glyphname = "Nar-oldgeorgian";
lastChange = "2017-03-30 18:15:23 +0000";
layers = (
{
layerId = "F1E1AA8A-A3F5-4941-B4E6-C7B9A7EBF3CF";
paths = (
{
closed = 1;
nodes = (
"129 0 LINE",
"129 224 LINE SMOOTH",
"129 378 OFFCURVE",
"212 456 OFFCURVE",
"337 456 CURVE SMOOTH",
"457 456 OFFCURVE",
"536 388 OFFCURVE",
"536 224 CURVE SMOOTH",
"536 0 LINE",
"562 0 LINE",
"562 225 LINE SMOOTH",
"562 420 OFFCURVE",
"457 482 OFFCURVE",
"339 482 CURVE SMOOTH",
"216 482 OFFCURVE",
"159 417 OFFCURVE",
"129 351 CURVE",
"126 351 LINE",
"128 380 OFFCURVE",
"129 430 OFFCURVE",
"129 447 CURVE SMOOTH",
"129 689 LINE",
"533 689 LINE",
"533 714 LINE",
"103 714 LINE",
"103 0 LINE"
);
}
);
width = 660;
},
{
layerId = "29BFE51A-F5BD-45F8-BEBC-9AD34273B132";
paths = (
{
closed = 1;
nodes = (
"271 0 LINE",
"271 157 LINE SMOOTH",
"271 270 OFFCURVE",
"306 325 OFFCURVE",
"388 325 CURVE SMOOTH",
"447 325 OFFCURVE",
"490 286 OFFCURVE",
"490 205 CURVE SMOOTH",
"490 0 LINE",
"684 0 LINE",
"684 224 LINE SMOOTH",
"684 383 OFFCURVE",
"598 482 OFFCURVE",
"445 482 CURVE SMOOTH",
"370 482 OFFCURVE",
"306 451 OFFCURVE",
"267 395 CURVE",
"262 395 LINE",
"269 454 OFFCURVE",
"271 505 OFFCURVE",
"271 551 CURVE SMOOTH",
"271 558 LINE",
"657 558 LINE",
"657 714 LINE",
"77 714 LINE",
"77 0 LINE"
);
}
);
width = 756;
},
{
layerId = "0228171D-2638-482B-876E-783119597845";
paths = (
{
closed = 1;
nodes = (
"97 0 LINE",
"97 224 LINE SMOOTH",
"97 385 OFFCURVE",
"147 456 OFFCURVE",
"233 456 CURVE SMOOTH",
"321 456 OFFCURVE",
"360 394 OFFCURVE",
"360 245 CURVE SMOOTH",
"360 0 LINE",
"386 0 LINE",
"386 247 LINE SMOOTH",
"386 426 OFFCURVE",
"326 481 OFFCURVE",
"235 481 CURVE SMOOTH",
"157 481 OFFCURVE",
"118 431 OFFCURVE",
"97 367 CURVE",
"95 367 LINE",
"97 394 OFFCURVE",
"97 426 OFFCURVE",
"97 444 CURVE SMOOTH",
"97 689 LINE",
"370 689 LINE",
"370 714 LINE",
"71 714 LINE",
"71 0 LINE"
);
}
);
width = 459;
},
{
layerId = "5ABCF6AD-94E3-4DCD-A28A-F55CA80EA6B2";
paths = (
{
closed = 1;
nodes = (
"148 0 LINE",
"148 212 LINE SMOOTH",
"148 355 OFFCURVE",
"190 413 OFFCURVE",
"263 413 CURVE SMOOTH",
"338 413 OFFCURVE",
"371 360 OFFCURVE",
"371 236 CURVE SMOOTH",
"371 0 LINE",
"453 0 LINE",
"453 242 LINE SMOOTH",
"453 408 OFFCURVE",
"394 481 OFFCURVE",
"290 481 CURVE SMOOTH",
"213 481 OFFCURVE",
"172 439 OFFCURVE",
"147 380 CURVE",
"145 380 LINE",
"147 411 OFFCURVE",
"148 448 OFFCURVE",
"148 472 CURVE SMOOTH",
"148 641 LINE",
"433 641 LINE",
"433 714 LINE",
"66 714 LINE",
"66 0 LINE"
);
}
);
width = 520;
},
{
layerId = "E419AE99-0260-44D0-87A9-BD030FD7659A";
paths = (
{
closed = 1;
nodes = (
"198 0 LINE",
"198 201 LINE SMOOTH",
"198 326 OFFCURVE",
"231 373 OFFCURVE",
"293 373 CURVE SMOOTH",
"355 373 OFFCURVE",
"381 328 OFFCURVE",
"381 227 CURVE SMOOTH",
"381 0 LINE",
"518 0 LINE",
"518 237 LINE SMOOTH",
"518 391 OFFCURVE",
"460 482 OFFCURVE",
"343 482 CURVE SMOOTH",
"268 482 OFFCURVE",
"223 446 OFFCURVE",
"196 393 CURVE",
"193 393 LINE",
"196 427 OFFCURVE",
"198 469 OFFCURVE",
"198 498 CURVE SMOOTH",
"198 596 LINE",
"493 596 LINE",
"493 714 LINE",
"62 714 LINE",
"62 0 LINE"
);
}
);
width = 577;
},
{
layerId = "C7A62E0A-0606-4C56-A5B0-C8EA8B1CCAFA";
paths = (
{
closed = 1;
nodes = (
"229 0 LINE",
"229 194 LINE SMOOTH",
"229 307 OFFCURVE",
"257 347 OFFCURVE",
"311 347 CURVE SMOOTH",
"365 347 OFFCURVE",
"388 308 OFFCURVE",
"388 222 CURVE SMOOTH",
"388 0 LINE",
"559 0 LINE",
"559 234 LINE SMOOTH",
"559 380 OFFCURVE",
"501 482 OFFCURVE",
"376 482 CURVE SMOOTH",
"302 482 OFFCURVE",
"256 451 OFFCURVE",
"227 401 CURVE",
"223 401 LINE",
"227 437 OFFCURVE",
"229 482 OFFCURVE",
"229 515 CURVE SMOOTH",
"229 567 LINE",
"531 567 LINE",
"531 714 LINE",
"59 714 LINE",
"59 0 LINE"
);
}
);
width = 613;
},
{
layerId = "9503992B-9F6A-43B6-8DBC-EB382B06F8D4";
paths = (
{
closed = 1;
nodes = (
"188 0 LINE",
"188 220 LINE SMOOTH",
"188 337 OFFCURVE",
"257 410 OFFCURVE",
"374 410 CURVE SMOOTH",
"473 410 OFFCURVE",
"527 352 OFFCURVE",
"527 230 CURVE SMOOTH",
"527 0 LINE",
"617 0 LINE",
"617 229 LINE SMOOTH",
"617 401 OFFCURVE",
"533 488 OFFCURVE",
"391 488 CURVE SMOOTH",
"303 488 OFFCURVE",
"237 456 OFFCURVE",
"189 386 CURVE",
"183 386 LINE",
"187 435 OFFCURVE",
"188 464 OFFCURVE",
"188 472 CURVE SMOOTH",
"188 636 LINE",
"589 636 LINE",
"589 714 LINE",
"98 714 LINE",
"98 0 LINE"
);
}
);
width = 710;
},
{
layerId = "2D9814BA-45F0-4FCB-8967-A366BFC6AA80";
paths = (
{
closed = 1;
nodes = (
"241 0 LINE",
"241 167 LINE SMOOTH",
"241 302 OFFCURVE",
"281 356 OFFCURVE",
"392 356 CURVE SMOOTH",
"474 356 OFFCURVE",
"515 303 OFFCURVE",
"515 215 CURVE SMOOTH",
"515 0 LINE",
"666 0 LINE",
"666 233 LINE SMOOTH",
"666 385 OFFCURVE",
"576 482 OFFCURVE",
"436 482 CURVE SMOOTH",
"349 482 OFFCURVE",
"283 451 OFFCURVE",
"239 389 CURVE",
"234 389 LINE",
"239 436 OFFCURVE",
"241 475 OFFCURVE",
"241 496 CURVE",
"241 588 LINE",
"639 588 LINE",
"639 714 LINE",
"90 714 LINE",
"90 0 LINE"
);
}
);
width = 751;
}
);
leftKerningGroup = "Tar-oldgeorgian";
leftMetricsKey = "Nar-oldgeorgian";
note = uni10AC;
rightKerningGroup = "Don-oldgeorgian";
rightMetricsKey = "=En-oldgeorgian-5";
unicode = 10AC;
},
{
glyphname = "On-oldgeorgian";
lastChange = "2017-03-30 18:15:23 +0000";
layers = (
{
layerId = "F1E1AA8A-A3F5-4941-B4E6-C7B9A7EBF3CF";
paths = (
{
closed = 1;
nodes = (
"457 -10 OFFCURVE",
"522 12 OFFCURVE",
"571 51 CURVE",
"603 13 OFFCURVE",
"638 -10 OFFCURVE",
"691 -10 CURVE SMOOTH",
"762 -10 OFFCURVE",
"796 47 OFFCURVE",
"796 113 CURVE",
"769 113 LINE",
"769 60 OFFCURVE",
"739 12 OFFCURVE",
"691 12 CURVE SMOOTH",
"648 12 OFFCURVE",
"616 34 OFFCURVE",
"589 67 CURVE",
"657 132 OFFCURVE",
"691 235 OFFCURVE",
"691 358 CURVE SMOOTH",
"691 590 OFFCURVE",
"580 724 OFFCURVE",
"383 724 CURVE SMOOTH",
"178 724 OFFCURVE",
"64 574 OFFCURVE",
"64 359 CURVE SMOOTH",
"64 143 OFFCURVE",
"169 -10 OFFCURVE",
"377 -10 CURVE SMOOTH"
);
},
{
closed = 1;
nodes = (
"183 15 OFFCURVE",
"91 159 OFFCURVE",
"91 359 CURVE SMOOTH",
"91 556 OFFCURVE",
"187 699 OFFCURVE",
"383 699 CURVE SMOOTH",
"563 699 OFFCURVE",
"664 575 OFFCURVE",
"664 358 CURVE SMOOTH",
"664 156 OFFCURVE",
"574 15 OFFCURVE",
"378 15 CURVE SMOOTH"
);
}
);
width = 806;
},
{
layerId = "29BFE51A-F5BD-45F8-BEBC-9AD34273B132";
paths = (
{
closed = 1;
nodes = (
"490 -10 OFFCURVE",
"562 11 OFFCURVE",
"616 49 CURVE",
"661 13 OFFCURVE",
"712 -10 OFFCURVE",
"770 -10 CURVE SMOOTH",
"913 -10 OFFCURVE",
"951 65 OFFCURVE",
"953 207 CURVE",
"791 207 LINE",
"791 151 OFFCURVE",
"768 120 OFFCURVE",
"729 120 CURVE SMOOTH",
"716 120 OFFCURVE",
"705 121 OFFCURVE",
"691 128 CURVE",
"728 189 OFFCURVE",
"745 267 OFFCURVE",
"745 358 CURVE SMOOTH",
"745 579 OFFCURVE",
"643 724 OFFCURVE",
"399 724 CURVE SMOOTH",
"158 724 OFFCURVE",
"51 580 OFFCURVE",
"51 359 CURVE SMOOTH",
"51 136 OFFCURVE",
"158 -10 OFFCURVE",
"398 -10 CURVE SMOOTH"
);
},
{
closed = 1;
nodes = (
"295 151 OFFCURVE",
"254 229 OFFCURVE",
"254 358 CURVE SMOOTH",
"254 487 OFFCURVE",
"294 566 OFFCURVE",
"399 566 CURVE SMOOTH",
"504 566 OFFCURVE",
"542 487 OFFCURVE",
"542 358 CURVE SMOOTH",
"542 229 OFFCURVE",
"504 151 OFFCURVE",
"398 151 CURVE SMOOTH"
);
}
);
width = 953;
},
{
layerId = "0228171D-2638-482B-876E-783119597845";
paths = (
{
closed = 1;
nodes = (
"305 -10 OFFCURVE",
"342 6 OFFCURVE",
"370 33 CURVE",
"393 7 OFFCURVE",
"419 -10 OFFCURVE",
"451 -10 CURVE SMOOTH",
"509 -10 OFFCURVE",
"536 30 OFFCURVE",
"536 93 CURVE",
"509 93 LINE",
"509 43 OFFCURVE",
"491 12 OFFCURVE",
"451 12 CURVE SMOOTH",
"427 12 OFFCURVE",
"405 26 OFFCURVE",
"385 49 CURVE",
"440 117 OFFCURVE",
"457 234 OFFCURVE",
"457 358 CURVE SMOOTH",
"457 570 OFFCURVE",
"404 724 OFFCURVE",
"257 724 CURVE SMOOTH",
"126 724 OFFCURVE",
"54 602 OFFCURVE",
"54 358 CURVE SMOOTH",
"54 173 OFFCURVE",
"97 -10 OFFCURVE",
"257 -10 CURVE SMOOTH"
);
},
{
closed = 1;
nodes = (
"143 15 OFFCURVE",
"80 141 OFFCURVE",
"80 358 CURVE SMOOTH",
"80 574 OFFCURVE",
"137 699 OFFCURVE",
"257 699 CURVE SMOOTH",
"374 699 OFFCURVE",
"431 577 OFFCURVE",
"431 358 CURVE SMOOTH",
"431 135 OFFCURVE",
"374 15 OFFCURVE",
"257 15 CURVE SMOOTH"
);
}
);
width = 546;
},
{
layerId = "5ABCF6AD-94E3-4DCD-A28A-F55CA80EA6B2";
paths = (
{
closed = 1;
nodes = (
"323 -10 OFFCURVE",
"362 5 OFFCURVE",
"394 31 CURVE",
"416 9 OFFCURVE",
"445 -10 OFFCURVE",
"486 -10 CURVE SMOOTH",
"567 -10 OFFCURVE",
"605 40 OFFCURVE",
"605 127 CURVE",
"523 127 LINE",
"523 87 OFFCURVE",
"506 57 OFFCURVE",
"474 57 CURVE SMOOTH",
"459 57 OFFCURVE",
"445 63 OFFCURVE",
"432 73 CURVE",
"479 140 OFFCURVE",
"499 242 OFFCURVE",
"499 358 CURVE SMOOTH",
"499 563 OFFCURVE",
"436 724 OFFCURVE",
"274 724 CURVE SMOOTH",
"124 724 OFFCURVE",
"48 603 OFFCURVE",
"48 359 CURVE SMOOTH",
"48 156 OFFCURVE",
"109 -10 OFFCURVE",
"274 -10 CURVE SMOOTH"
);
},
{
closed = 1;
nodes = (
"183 67 OFFCURVE",
"135 166 OFFCURVE",
"135 358 CURVE SMOOTH",
"135 549 OFFCURVE",
"181 648 OFFCURVE",
"274 648 CURVE SMOOTH",
"364 648 OFFCURVE",
"410 551 OFFCURVE",
"410 358 CURVE SMOOTH",
"410 163 OFFCURVE",
"363 67 OFFCURVE",
"273 67 CURVE SMOOTH"
);
}
);
width = 615;
},
{
layerId = "E419AE99-0260-44D0-87A9-BD030FD7659A";
paths = (
{
closed = 1;
nodes = (
"358 -10 OFFCURVE",
"405 7 OFFCURVE",
"444 39 CURVE",
"475 12 OFFCURVE",
"515 -10 OFFCURVE",
"562 -10 CURVE SMOOTH",
"659 -10 OFFCURVE",
"702 55 OFFCURVE",
"702 170 CURVE",
"577 170 LINE",
"577 126 OFFCURVE",
"563 95 OFFCURVE",
"527 95 CURVE SMOOTH",
"516 95 OFFCURVE",
"506 98 OFFCURVE",
"497 104 CURVE",
"533 166 OFFCURVE",
"551 254 OFFCURVE",
"551 358 CURVE SMOOTH",
"551 583 OFFCURVE",
"470 724 OFFCURVE",
"298 724 CURVE SMOOTH",
"132 724 OFFCURVE",
"43 598 OFFCURVE",
"43 359 CURVE SMOOTH",
"43 134 OFFCURVE",
"126 -10 OFFCURVE",
"298 -10 CURVE SMOOTH"
);
},
{
closed = 1;
nodes = (
"223 111 OFFCURVE",
"185 194 OFFCURVE",
"185 358 CURVE SMOOTH",
"185 522 OFFCURVE",
"222 605 OFFCURVE",
"298 605 CURVE SMOOTH",
"372 605 OFFCURVE",
"408 525 OFFCURVE",
"408 358 CURVE SMOOTH",
"408 190 OFFCURVE",
"372 111 OFFCURVE",
"297 111 CURVE SMOOTH"
);
}
);
width = 707;
},
{
layerId = "C7A62E0A-0606-4C56-A5B0-C8EA8B1CCAFA";
paths = (
{
closed = 1;
nodes = (
"378 -10 OFFCURVE",
"432 8 OFFCURVE",
"475 44 CURVE",
"511 14 OFFCURVE",
"559 -10 OFFCURVE",
"610 -10 CURVE SMOOTH",
"717 -10 OFFCURVE",
"763 65 OFFCURVE",
"763 197 CURVE",
"611 197 LINE",
"611 151 OFFCURVE",
"598 120 OFFCURVE",
"559 120 CURVE SMOOTH",
"551 120 OFFCURVE",
"544 121 OFFCURVE",
"537 124 CURVE",
"567 183 OFFCURVE",
"582 261 OFFCURVE",
"582 358 CURVE SMOOTH",
"582 598 OFFCURVE",
"489 724 OFFCURVE",
"311 724 CURVE SMOOTH",
"134 724 OFFCURVE",
"39 596 OFFCURVE",
"39 359 CURVE SMOOTH",
"39 119 OFFCURVE",
"135 -10 OFFCURVE",
"311 -10 CURVE SMOOTH"
);
},
{
closed = 1;
nodes = (
"248 139 OFFCURVE",
"216 212 OFFCURVE",
"216 358 CURVE SMOOTH",
"216 505 OFFCURVE",
"248 578 OFFCURVE",
"311 578 CURVE SMOOTH",
"374 578 OFFCURVE",
"405 508 OFFCURVE",
"405 358 CURVE SMOOTH",
"405 208 OFFCURVE",
"375 139 OFFCURVE",
"311 139 CURVE SMOOTH"
);
}
);
width = 763;
},
{
layerId = "9503992B-9F6A-43B6-8DBC-EB382B06F8D4";
paths = (
{
closed = 1;
nodes = (
"474 -10 OFFCURVE",
"543 12 OFFCURVE",
"595 52 CURVE",
"632 15 OFFCURVE",
"675 -10 OFFCURVE",
"725 -10 CURVE SMOOTH",
"816 -10 OFFCURVE",
"854 50 OFFCURVE",
"854 137 CURVE",
"772 137 LINE",
"772 82 OFFCURVE",
"754 57 OFFCURVE",
"716 57 CURVE SMOOTH",
"686 57 OFFCURVE",
"663 69 OFFCURVE",
"636 92 CURVE",
"692 156 OFFCURVE",
"720 248 OFFCURVE",
"720 358 CURVE SMOOTH",
"720 579 OFFCURVE",
"606 724 OFFCURVE",
"392 724 CURVE SMOOTH",
"168 724 OFFCURVE",
"61 577 OFFCURVE",
"61 359 CURVE SMOOTH",
"61 138 OFFCURVE",
"168 -10 OFFCURVE",
"391 -10 CURVE SMOOTH"
);
},
{
closed = 1;
nodes = (
"230 68 OFFCURVE",
"156 178 OFFCURVE",
"156 358 CURVE SMOOTH",
"156 537 OFFCURVE",
"230 645 OFFCURVE",
"392 645 CURVE SMOOTH",
"553 645 OFFCURVE",
"625 537 OFFCURVE",
"625 358 CURVE SMOOTH",
"625 178 OFFCURVE",
"553 68 OFFCURVE",
"391 68 CURVE SMOOTH"
);
}
);
width = 864;
},
{
layerId = "2D9814BA-45F0-4FCB-8967-A366BFC6AA80";
paths = (
{
closed = 1;
nodes = (
"486 -10 OFFCURVE",
"557 11 OFFCURVE",
"610 50 CURVE",
"652 14 OFFCURVE",
"700 -10 OFFCURVE",
"754 -10 CURVE SMOOTH",
"876 -10 OFFCURVE",
"914 59 OFFCURVE",
"915 178 CURVE",
"786 178 LINE",
"786 123 OFFCURVE",
"765 94 OFFCURVE",
"727 94 CURVE SMOOTH",
"707 94 OFFCURVE",
"691 100 OFFCURVE",
"671 113 CURVE",
"716 175 OFFCURVE",
"738 259 OFFCURVE",
"738 358 CURVE SMOOTH",
"738 579 OFFCURVE",
"631 724 OFFCURVE",
"399 724 CURVE SMOOTH",
"165 724 OFFCURVE",
"58 579 OFFCURVE",
"58 359 CURVE SMOOTH",
"58 137 OFFCURVE",
"165 -10 OFFCURVE",
"398 -10 CURVE SMOOTH"
);
},
{
closed = 1;
nodes = (
"271 117 OFFCURVE",
"217 208 OFFCURVE",
"217 358 CURVE SMOOTH",
"217 507 OFFCURVE",
"271 598 OFFCURVE",
"399 598 CURVE SMOOTH",
"527 598 OFFCURVE",
"579 507 OFFCURVE",
"579 358 CURVE SMOOTH",
"579 208 OFFCURVE",
"527 117 OFFCURVE",
"398 117 CURVE SMOOTH"
);
}
);
width = 920;
}
);
leftKerningGroup = "Tan-oldgeorgian";
leftMetricsKey = "Don-oldgeorgian";
note = uni10AD;
rightMetricsKey = "Gan-oldgeorgian";
unicode = 10AD;
},
{
glyphname = "Par-oldgeorgian";
lastChange = "2017-03-30 18:15:23 +0000";
layers = (
{
layerId = "F1E1AA8A-A3F5-4941-B4E6-C7B9A7EBF3CF";
paths = (
{
closed = 1;
nodes = (
"638 -10 OFFCURVE",
"746 74 OFFCURVE",
"746 252 CURVE SMOOTH",
"746 714 LINE",
"720 714 LINE",
"720 244 LINE SMOOTH",
"720 92 OFFCURVE",
"626 15 OFFCURVE",
"484 15 CURVE SMOOTH",
"335 15 OFFCURVE",
"249 96 OFFCURVE",
"249 256 CURVE SMOOTH",
"249 714 LINE",
"10 714 LINE",
"10 689 LINE",
"223 689 LINE",
"223 254 LINE SMOOTH",
"223 81 OFFCURVE",
"318 -10 OFFCURVE",
"483 -10 CURVE SMOOTH"
);
}
);
width = 844;
},
{
layerId = "29BFE51A-F5BD-45F8-BEBC-9AD34273B132";
paths = (
{
closed = 1;
nodes = (
"684 -10 OFFCURVE",
"786 104 OFFCURVE",
"786 284 CURVE SMOOTH",
"786 714 LINE",
"593 714 LINE",
"593 296 LINE SMOOTH",
"593 194 OFFCURVE",
"560 151 OFFCURVE",
"481 151 CURVE SMOOTH",
"407 151 OFFCURVE",
"369 194 OFFCURVE",
"369 295 CURVE SMOOTH",
"369 714 LINE",
"-10 714 LINE",
"-10 556 LINE",
"175 556 LINE",
"175 280 LINE SMOOTH",
"175 95 OFFCURVE",
"281 -10 OFFCURVE",
"478 -10 CURVE SMOOTH"
);
}
);
width = 858;
},
{
layerId = "0228171D-2638-482B-876E-783119597845";
paths = (
{
closed = 1;
nodes = (
"430 -10 OFFCURVE",
"506 42 OFFCURVE",
"506 217 CURVE SMOOTH",
"506 714 LINE",
"480 714 LINE",
"480 221 LINE SMOOTH",
"480 63 OFFCURVE",
"420 15 OFFCURVE",
"335 15 CURVE SMOOTH",
"244 15 OFFCURVE",
"190 71 OFFCURVE",
"190 221 CURVE SMOOTH",
"190 714 LINE",
"10 714 LINE",
"10 689 LINE",
"164 689 LINE",
"164 217 LINE SMOOTH",
"164 59 OFFCURVE",
"225 -10 OFFCURVE",
"335 -10 CURVE SMOOTH"
);
}
);
width = 579;
},
{
layerId = "5ABCF6AD-94E3-4DCD-A28A-F55CA80EA6B2";
paths = (
{
closed = 1;
nodes = (
"469 -10 OFFCURVE",
"548 56 OFFCURVE",
"548 227 CURVE SMOOTH",
"548 714 LINE",
"466 714 LINE",
"466 231 LINE SMOOTH",
"466 104 OFFCURVE",
"421 63 OFFCURVE",
"351 63 CURVE SMOOTH",
"278 63 OFFCURVE",
"236 109 OFFCURVE",
"236 231 CURVE SMOOTH",
"236 714 LINE",
"4 714 LINE",
"4 641 LINE",
"153 641 LINE",
"153 225 LINE SMOOTH",
"153 64 OFFCURVE",
"223 -10 OFFCURVE",
"350 -10 CURVE SMOOTH"
);
}
);
width = 615;
},
{
layerId = "E419AE99-0260-44D0-87A9-BD030FD7659A";
paths = (
{
closed = 1;
nodes = (
"505 -10 OFFCURVE",
"588 69 OFFCURVE",
"588 236 CURVE SMOOTH",
"588 714 LINE",
"452 714 LINE",
"452 241 LINE SMOOTH",
"452 142 OFFCURVE",
"422 110 OFFCURVE",
"365 110 CURVE SMOOTH",
"309 110 OFFCURVE",
"279 145 OFFCURVE",
"279 240 CURVE SMOOTH",
"279 714 LINE",
"-2 714 LINE",
"-2 596 LINE",
"143 596 LINE",
"143 233 LINE SMOOTH",
"143 69 OFFCURVE",
"222 -10 OFFCURVE",
"364 -10 CURVE SMOOTH"
);
}
);
width = 647;
},
{
layerId = "C7A62E0A-0606-4C56-A5B0-C8EA8B1CCAFA";
paths = (
{
closed = 1;
nodes = (
"528 -10 OFFCURVE",
"613 77 OFFCURVE",
"613 242 CURVE SMOOTH",
"613 714 LINE",
"443 714 LINE",
"443 247 LINE SMOOTH",
"443 167 OFFCURVE",
"422 139 OFFCURVE",
"374 139 CURVE SMOOTH",
"329 139 OFFCURVE",
"306 168 OFFCURVE",
"306 246 CURVE SMOOTH",
"306 714 LINE",
"-10 714 LINE",
"-10 567 LINE",
"136 567 LINE",
"136 238 LINE SMOOTH",
"136 72 OFFCURVE",
"220 -10 OFFCURVE",
"372 -10 CURVE SMOOTH"
);
}
);
width = 667;
},
{
layerId = "9503992B-9F6A-43B6-8DBC-EB382B06F8D4";
paths = (
{
closed = 1;
nodes = (
"661 -10 OFFCURVE",
"760 90 OFFCURVE",
"760 254 CURVE SMOOTH",
"760 714 LINE",
"670 714 LINE",
"670 251 LINE SMOOTH",
"670 134 OFFCURVE",
"608 68 OFFCURVE",
"483 68 CURVE SMOOTH",
"364 68 OFFCURVE",
"299 135 OFFCURVE",
"299 252 CURVE SMOOTH",
"299 714 LINE",
"5 714 LINE",
"5 636 LINE",
"210 636 LINE",
"210 252 LINE SMOOTH",
"210 88 OFFCURVE",
"314 -10 OFFCURVE",
"488 -10 CURVE SMOOTH"
);
}
);
width = 853;
},
{
layerId = "2D9814BA-45F0-4FCB-8967-A366BFC6AA80";
paths = (
{
closed = 1;
nodes = (
"636 -10 OFFCURVE",
"756 82 OFFCURVE",
"756 252 CURVE SMOOTH",
"756 714 LINE",
"605 714 LINE",
"605 278 LINE SMOOTH",
"605 167 OFFCURVE",
"562 117 OFFCURVE",
"464 117 CURVE SMOOTH",
"362 117 OFFCURVE",
"321 167 OFFCURVE",
"321 277 CURVE SMOOTH",
"321 714 LINE",
"-5 714 LINE",
"-5 590 LINE",
"170 590 LINE",
"170 254 LINE SMOOTH",
"170 89 OFFCURVE",
"277 -10 OFFCURVE",
"460 -10 CURVE SMOOTH"
);
}
);
width = 841;
}
);
leftKerningGroup = "Zen-oldgeorgian";
leftMetricsKey = "Zen-oldgeorgian";
note = uni10AE;
rightKerningGroup = "En-oldgeorgian";
rightMetricsKey = "=En-oldgeorgian-5";
unicode = 10AE;
},
{
glyphname = "Zhar-oldgeorgian";
lastChange = "2017-03-30 18:15:23 +0000";
layers = (
{
layerId = "F1E1AA8A-A3F5-4941-B4E6-C7B9A7EBF3CF";
paths = (
{
closed = 1;
nodes = (
"582 0 LINE",
"582 714 LINE",
"556 714 LINE",
"556 486 LINE SMOOTH",
"556 313 OFFCURVE",
"454 248 OFFCURVE",
"344 248 CURVE SMOOTH",
"235 248 OFFCURVE",
"155 317 OFFCURVE",
"155 467 CURVE SMOOTH",
"155 568 OFFCURVE",
"195 634 OFFCURVE",
"279 686 CURVE",
"279 714 LINE",
"15 714 LINE",
"15 689 LINE",
"243 689 LINE",
"243 687 LINE",
"174 644 OFFCURVE",
"128 570 OFFCURVE",
"128 467 CURVE SMOOTH",
"128 303 OFFCURVE",
"218 221 OFFCURVE",
"344 221 CURVE SMOOTH",
"437 221 OFFCURVE",
"520 270 OFFCURVE",
"554 353 CURVE",
"559 353 LINE",
"558 333 OFFCURVE",
"556 293 OFFCURVE",
"556 248 CURVE SMOOTH",
"556 0 LINE"
);
}
);
width = 685;
},
{
layerId = "29BFE51A-F5BD-45F8-BEBC-9AD34273B132";
paths = (
{
closed = 1;
nodes = (
"711 0 LINE",
"711 714 LINE",
"517 714 LINE",
"517 508 LINE SMOOTH",
"517 415 OFFCURVE",
"469 360 OFFCURVE",
"392 360 CURVE SMOOTH",
"324 360 OFFCURVE",
"283 396 OFFCURVE",
"283 467 CURVE SMOOTH",
"283 525 OFFCURVE",
"308 564 OFFCURVE",
"360 578 CURVE",
"360 714 LINE",
"-5 714 LINE",
"-5 556 LINE",
"135 556 LINE",
"135 552 LINE",
"110 524 OFFCURVE",
"89 482 OFFCURVE",
"89 421 CURVE SMOOTH",
"89 300 OFFCURVE",
"182 203 OFFCURVE",
"333 203 CURVE SMOOTH",
"419 203 OFFCURVE",
"483 238 OFFCURVE",
"521 290 CURVE",
"526 290 LINE",
"519 231 OFFCURVE",
"517 179 OFFCURVE",
"517 133 CURVE SMOOTH",
"517 0 LINE"
);
}
);
width = 788;
},
{
layerId = "0228171D-2638-482B-876E-783119597845";
paths = (
{
closed = 1;
nodes = (
"384 0 LINE",
"384 714 LINE",
"358 714 LINE",
"358 484 LINE SMOOTH",
"358 300 OFFCURVE",
"300 243 OFFCURVE",
"222 243 CURVE SMOOTH",
"139 243 OFFCURVE",
"102 327 OFFCURVE",
"102 450 CURVE SMOOTH",
"102 546 OFFCURVE",
"121 616 OFFCURVE",
"186 685 CURVE",
"186 714 LINE",
"15 714 LINE",
"15 689 LINE",
"159 689 LINE",
"159 687 LINE",
"95 627 OFFCURVE",
"75 540 OFFCURVE",
"75 450 CURVE SMOOTH",
"75 304 OFFCURVE",
"128 218 OFFCURVE",
"222 218 CURVE SMOOTH",
"287 218 OFFCURVE",
"336 255 OFFCURVE",
"358 333 CURVE",
"360 333 LINE",
"359 311 OFFCURVE",
"358 263 OFFCURVE",
"358 218 CURVE SMOOTH",
"358 0 LINE"
);
}
);
width = 462;
},
{
layerId = "5ABCF6AD-94E3-4DCD-A28A-F55CA80EA6B2";
paths = (
{
closed = 1;
nodes = (
"468 0 LINE",
"468 714 LINE",
"385 714 LINE",
"385 501 LINE SMOOTH",
"385 341 OFFCURVE",
"337 283 OFFCURVE",
"268 283 CURVE SMOOTH",
"198 283 OFFCURVE",
"164 350 OFFCURVE",
"164 459 CURVE SMOOTH",
"164 528 OFFCURVE",
"178 589 OFFCURVE",
"234 641 CURVE",
"234 714 LINE",
"9 714 LINE",
"9 641 LINE",
"151 641 LINE",
"151 638 LINE",
"102 589 OFFCURVE",
"79 520 OFFCURVE",
"79 452 CURVE SMOOTH",
"79 306 OFFCURVE",
"142 214 OFFCURVE",
"245 214 CURVE SMOOTH",
"314 214 OFFCURVE",
"360 250 OFFCURVE",
"386 322 CURVE",
"390 322 LINE",
"387 288 OFFCURVE",
"385 241 OFFCURVE",
"385 198 CURVE SMOOTH",
"385 0 LINE"
);
}
);
width = 540;
},
{
layerId = "E419AE99-0260-44D0-87A9-BD030FD7659A";
paths = (
{
closed = 1;
nodes = (
"539 0 LINE",
"539 714 LINE",
"402 714 LINE",
"402 503 LINE SMOOTH",
"402 379 OFFCURVE",
"363 322 OFFCURVE",
"303 322 CURVE SMOOTH",
"245 322 OFFCURVE",
"214 372 OFFCURVE",
"214 457 CURVE SMOOTH",
"214 518 OFFCURVE",
"233 568 OFFCURVE",
"280 602 CURVE",
"280 714 LINE",
"3 714 LINE",
"3 595 LINE",
"135 595 LINE",
"135 591 LINE",
"95 552 OFFCURVE",
"73 498 OFFCURVE",
"73 430 CURVE SMOOTH",
"73 308 OFFCURVE",
"145 211 OFFCURVE",
"258 211 CURVE SMOOTH",
"330 211 OFFCURVE",
"374 246 OFFCURVE",
"404 311 CURVE",
"409 311 LINE",
"405 265 OFFCURVE",
"402 219 OFFCURVE",
"402 179 CURVE SMOOTH",
"402 0 LINE"
);
}
);
width = 603;
},
{
layerId = "C7A62E0A-0606-4C56-A5B0-C8EA8B1CCAFA";
paths = (
{
closed = 1;
nodes = (
"578 0 LINE",
"578 714 LINE",
"408 714 LINE",
"408 504 LINE SMOOTH",
"408 402 OFFCURVE",
"374 345 OFFCURVE",
"320 345 CURVE SMOOTH",
"269 345 OFFCURVE",
"240 386 OFFCURVE",
"240 456 CURVE SMOOTH",
"240 512 OFFCURVE",
"262 556 OFFCURVE",
"304 578 CURVE",
"304 714 LINE",
"-5 714 LINE",
"-5 567 LINE",
"121 567 LINE",
"121 563 LINE",
"87 529 OFFCURVE",
"65 485 OFFCURVE",
"65 416 CURVE SMOOTH",
"65 309 OFFCURVE",
"143 209 OFFCURVE",
"261 209 CURVE SMOOTH",
"335 209 OFFCURVE",
"378 243 OFFCURVE",
"410 305 CURVE",
"416 305 LINE",
"411 251 OFFCURVE",
"408 206 OFFCURVE",
"408 167 CURVE SMOOTH",
"408 0 LINE"
);
}
);
width = 637;
},
{
layerId = "9503992B-9F6A-43B6-8DBC-EB382B06F8D4";
paths = (
{
closed = 1;
nodes = (
"641 0 LINE",
"641 714 LINE",
"551 714 LINE",
"551 507 LINE SMOOTH",
"551 358 OFFCURVE",
"492 293 OFFCURVE",
"364 293 CURVE SMOOTH",
"262 293 OFFCURVE",
"211 352 OFFCURVE",
"211 469 CURVE SMOOTH",
"211 526 OFFCURVE",
"232 609 OFFCURVE",
"325 636 CURVE",
"325 714 LINE",
"10 714 LINE",
"10 636 LINE",
"200 636 LINE",
"200 633 LINE",
"151 597 OFFCURVE",
"116 537 OFFCURVE",
"116 451 CURVE SMOOTH",
"116 308 OFFCURVE",
"210 215 OFFCURVE",
"346 215 CURVE SMOOTH",
"432 215 OFFCURVE",
"511 254 OFFCURVE",
"550 312 CURVE",
"555 312 LINE",
"552 280 OFFCURVE",
"550 252 OFFCURVE",
"550 214 CURVE SMOOTH",
"550 0 LINE"
);
}
);
width = 739;
},
{
layerId = "2D9814BA-45F0-4FCB-8967-A366BFC6AA80";
paths = (
{
closed = 1;
nodes = (
"680 0 LINE",
"680 714 LINE",
"530 714 LINE",
"530 508 LINE SMOOTH",
"530 392 OFFCURVE",
"477 333 OFFCURVE",
"379 333 CURVE SMOOTH",
"297 333 OFFCURVE",
"252 378 OFFCURVE",
"252 468 CURVE SMOOTH",
"252 525 OFFCURVE",
"276 582 OFFCURVE",
"345 602 CURVE",
"345 714 LINE",
"0 714 LINE",
"0 589 LINE",
"160 589 LINE",
"160 585 LINE",
"126 554 OFFCURVE",
"99 505 OFFCURVE",
"99 433 CURVE SMOOTH",
"99 303 OFFCURVE",
"192 208 OFFCURVE",
"337 208 CURVE SMOOTH",
"423 208 OFFCURVE",
"493 245 OFFCURVE",
"532 299 CURVE",
"537 299 LINE",
"531 251 OFFCURVE",
"529 209 OFFCURVE",
"529 166 CURVE SMOOTH",
"529 0 LINE"
);
}
);
width = 770;
}
);
leftMetricsKey = "=Zen-oldgeorgian+5";
note = uni10AF;
rightKerningGroup = "En-oldgeorgian";
rightMetricsKey = "En-oldgeorgian";
unicode = 10AF;
},
{
glyphname = "Rae-oldgeorgian";
lastChange = "2017-03-30 18:15:23 +0000";
layers = (
{
layerId = "F1E1AA8A-A3F5-4941-B4E6-C7B9A7EBF3CF";
paths = (
{
closed = 1;
nodes = (
"430 -10 OFFCURVE",
"498 93 OFFCURVE",
"498 250 CURVE SMOOTH",
"498 310 LINE SMOOTH",
"498 444 OFFCURVE",
"581 513 OFFCURVE",
"660 513 CURVE SMOOTH",
"755 513 OFFCURVE",
"802 438 OFFCURVE",
"802 355 CURVE SMOOTH",
"802 316 OFFCURVE",
"791 275 OFFCURVE",
"771 242 CURVE",
"793 232 LINE",
"817 269 OFFCURVE",
"829 313 OFFCURVE",
"829 356 CURVE SMOOTH",
"829 450 OFFCURVE",
"772 538 OFFCURVE",
"660 538 CURVE SMOOTH",
"580 538 OFFCURVE",
"526 489 OFFCURVE",
"498 417 CURVE",
"495 417 LINE",
"497 446 OFFCURVE",
"498 496 OFFCURVE",
"498 513 CURVE SMOOTH",
"498 714 LINE",
"472 714 LINE",
"472 250 LINE SMOOTH",
"472 98 OFFCURVE",
"403 16 OFFCURVE",
"277 16 CURVE SMOOTH",
"156 16 OFFCURVE",
"85 99 OFFCURVE",
"85 219 CURVE SMOOTH",
"85 267 OFFCURVE",
"99 319 OFFCURVE",
"128 367 CURVE",
"107 377 LINE",
"74 326 OFFCURVE",
"59 271 OFFCURVE",
"59 218 CURVE SMOOTH",
"59 87 OFFCURVE",
"140 -10 OFFCURVE",
"277 -10 CURVE SMOOTH"
);
}
);
width = 881;
},
{
layerId = "29BFE51A-F5BD-45F8-BEBC-9AD34273B132";
paths = (
{
closed = 1;
nodes = (
"543 -10 OFFCURVE",
"644 94 OFFCURVE",
"644 260 CURVE SMOOTH",
"644 313 LINE SMOOTH",
"644 374 OFFCURVE",
"669 405 OFFCURVE",
"714 405 CURVE SMOOTH",
"762 405 OFFCURVE",
"784 366 OFFCURVE",
"784 321 CURVE SMOOTH",
"784 294 OFFCURVE",
"776 266 OFFCURVE",
"762 242 CURVE",
"932 189 LINE",
"963 232 OFFCURVE",
"982 290 OFFCURVE",
"982 348 CURVE SMOOTH",
"982 456 OFFCURVE",
"917 562 OFFCURVE",
"795 562 CURVE SMOOTH",
"715 562 OFFCURVE",
"679 537 OFFCURVE",
"640 485 CURVE",
"635 485 LINE",
"642 544 OFFCURVE",
"644 585 OFFCURVE",
"644 631 CURVE SMOOTH",
"644 714 LINE",
"450 714 LINE",
"450 293 LINE SMOOTH",
"450 194 OFFCURVE",
"413 151 OFFCURVE",
"347 151 CURVE SMOOTH",
"286 151 OFFCURVE",
"247 194 OFFCURVE",
"247 268 CURVE SMOOTH",
"247 312 OFFCURVE",
"260 349 OFFCURVE",
"283 385 CURVE",
"120 454 LINE",
"69 391 OFFCURVE",
"46 323 OFFCURVE",
"46 258 CURVE SMOOTH",
"46 115 OFFCURVE",
"160 -10 OFFCURVE",
"352 -10 CURVE SMOOTH"
);
}
);
width = 1017;
},
{
layerId = "0228171D-2638-482B-876E-783119597845";
paths = (
{
closed = 1;
nodes = (
"303 -10 OFFCURVE",
"342 86 OFFCURVE",
"342 220 CURVE SMOOTH",
"342 333 LINE SMOOTH",
"342 454 OFFCURVE",
"392 512 OFFCURVE",
"450 512 CURVE SMOOTH",
"512 512 OFFCURVE",
"543 454 OFFCURVE",
"543 382 CURVE SMOOTH",
"543 338 OFFCURVE",
"531 289 OFFCURVE",
"508 245 CURVE",
"531 236 LINE",
"555 281 OFFCURVE",
"570 333 OFFCURVE",
"570 381 CURVE SMOOTH",
"570 465 OFFCURVE",
"530 537 OFFCURVE",
"450 537 CURVE SMOOTH",
"407 537 OFFCURVE",
"363 507 OFFCURVE",
"342 442 CURVE",
"340 442 LINE",
"342 469 OFFCURVE",
"342 501 OFFCURVE",
"342 519 CURVE SMOOTH",
"342 714 LINE",
"316 714 LINE",
"316 220 LINE SMOOTH",
"316 88 OFFCURVE",
"277 15 OFFCURVE",
"197 15 CURVE SMOOTH",
"121 15 OFFCURVE",
"76 87 OFFCURVE",
"76 208 CURVE SMOOTH",
"76 270 OFFCURVE",
"91 325 OFFCURVE",
"113 361 CURVE",
"93 370 LINE",
"70 335 OFFCURVE",
"49 281 OFFCURVE",
"49 207 CURVE SMOOTH",
"49 87 OFFCURVE",
"94 -10 OFFCURVE",
"198 -10 CURVE SMOOTH"
);
}
);
width = 604;
},
{
layerId = "5ABCF6AD-94E3-4DCD-A28A-F55CA80EA6B2";
paths = (
{
closed = 1;
nodes = (
"357 -10 OFFCURVE",
"413 83 OFFCURVE",
"413 234 CURVE SMOOTH",
"413 358 LINE SMOOTH",
"413 445 OFFCURVE",
"455 479 OFFCURVE",
"499 479 CURVE SMOOTH",
"551 479 OFFCURVE",
"585 438 OFFCURVE",
"585 369 CURVE SMOOTH",
"585 336 OFFCURVE",
"575 300 OFFCURVE",
"554 266 CURVE",
"627 245 LINE",
"653 285 OFFCURVE",
"668 332 OFFCURVE",
"668 389 CURVE SMOOTH",
"668 466 OFFCURVE",
"616 547 OFFCURVE",
"525 547 CURVE SMOOTH",
"478 547 OFFCURVE",
"437 525 OFFCURVE",
"412 473 CURVE",
"410 473 LINE",
"412 504 OFFCURVE",
"413 541 OFFCURVE",
"413 565 CURVE SMOOTH",
"413 714 LINE",
"331 714 LINE",
"331 239 LINE SMOOTH",
"331 126 OFFCURVE",
"300 63 OFFCURVE",
"233 63 CURVE SMOOTH",
"168 63 OFFCURVE",
"132 126 OFFCURVE",
"132 210 CURVE SMOOTH",
"132 262 OFFCURVE",
"142 313 OFFCURVE",
"163 359 CURVE",
"89 385 LINE",
"60 338 OFFCURVE",
"43 276 OFFCURVE",
"43 213 CURVE SMOOTH",
"43 84 OFFCURVE",
"112 -10 OFFCURVE",
"235 -10 CURVE SMOOTH"
);
}
);
width = 702;
},
{
layerId = "E419AE99-0260-44D0-87A9-BD030FD7659A";
paths = (
{
closed = 1;
nodes = (
"404 -10 OFFCURVE",
"477 81 OFFCURVE",
"477 250 CURVE SMOOTH",
"477 351 LINE SMOOTH",
"477 417 OFFCURVE",
"508 447 OFFCURVE",
"544 447 CURVE SMOOTH",
"585 447 OFFCURVE",
"607 411 OFFCURVE",
"607 360 CURVE SMOOTH",
"607 330 OFFCURVE",
"600 296 OFFCURVE",
"583 267 CURVE",
"704 231 LINE",
"735 269 OFFCURVE",
"751 320 OFFCURVE",
"751 382 CURVE SMOOTH",
"751 465 OFFCURVE",
"695 557 OFFCURVE",
"598 557 CURVE SMOOTH",
"547 557 OFFCURVE",
"503 537 OFFCURVE",
"476 486 CURVE",
"472 486 LINE",
"476 520 OFFCURVE",
"477 562 OFFCURVE",
"477 592 CURVE SMOOTH",
"477 714 LINE",
"340 714 LINE",
"340 260 LINE SMOOTH",
"340 163 OFFCURVE",
"317 110 OFFCURVE",
"261 110 CURVE SMOOTH",
"208 110 OFFCURVE",
"182 164 OFFCURVE",
"182 235 CURVE SMOOTH",
"182 278 OFFCURVE",
"192 328 OFFCURVE",
"211 366 CURVE",
"91 407 LINE",
"56 355 OFFCURVE",
"38 293 OFFCURVE",
"38 232 CURVE SMOOTH",
"38 101 OFFCURVE",
"118 -10 OFFCURVE",
"263 -10 CURVE SMOOTH"
);
}
);
width = 783;
},
{
layerId = "C7A62E0A-0606-4C56-A5B0-C8EA8B1CCAFA";
paths = (
{
closed = 1;
nodes = (
"432 -10 OFFCURVE",
"515 79 OFFCURVE",
"515 260 CURVE SMOOTH",
"515 347 LINE SMOOTH",
"515 400 OFFCURVE",
"539 428 OFFCURVE",
"571 428 CURVE SMOOTH",
"604 428 OFFCURVE",
"620 394 OFFCURVE",
"620 354 CURVE SMOOTH",
"620 326 OFFCURVE",
"614 294 OFFCURVE",
"600 268 CURVE",
"750 223 LINE",
"783 260 OFFCURVE",
"801 313 OFFCURVE",
"801 377 CURVE SMOOTH",
"801 464 OFFCURVE",
"742 563 OFFCURVE",
"642 563 CURVE SMOOTH",
"588 563 OFFCURVE",
"542 544 OFFCURVE",
"513 494 CURVE",
"509 494 LINE",
"513 530 OFFCURVE",
"515 575 OFFCURVE",
"515 608 CURVE SMOOTH",
"515 714 LINE",
"345 714 LINE",
"345 273 LINE SMOOTH",
"345 185 OFFCURVE",
"326 139 OFFCURVE",
"277 139 CURVE SMOOTH",
"232 139 OFFCURVE",
"211 187 OFFCURVE",
"211 250 CURVE SMOOTH",
"211 288 OFFCURVE",
"221 337 OFFCURVE",
"239 370 CURVE",
"92 420 LINE",
"53 366 OFFCURVE",
"34 303 OFFCURVE",
"34 243 CURVE SMOOTH",
"34 112 OFFCURVE",
"121 -10 OFFCURVE",
"279 -10 CURVE SMOOTH"
);
}
);
width = 830;
},
{
layerId = "9503992B-9F6A-43B6-8DBC-EB382B06F8D4";
paths = (
{
closed = 1;
nodes = (
"448 -10 OFFCURVE",
"539 86 OFFCURVE",
"539 252 CURVE SMOOTH",
"539 328 LINE SMOOTH",
"539 415 OFFCURVE",
"588 468 OFFCURVE",
"665 468 CURVE SMOOTH",
"741 468 OFFCURVE",
"781 410 OFFCURVE",
"781 343 CURVE SMOOTH",
"781 312 OFFCURVE",
"773 279 OFFCURVE",
"756 248 CURVE",
"835 223 LINE",
"859 263 OFFCURVE",
"872 309 OFFCURVE",
"872 352 CURVE SMOOTH",
"872 454 OFFCURVE",
"808 546 OFFCURVE",
"692 546 CURVE SMOOTH",
"634 546 OFFCURVE",
"578 524 OFFCURVE",
"540 464 CURVE",
"534 464 LINE",
"538 513 OFFCURVE",
"539 542 OFFCURVE",
"539 550 CURVE SMOOTH",
"539 714 LINE",
"449 714 LINE",
"449 252 LINE SMOOTH",
"449 129 OFFCURVE",
"395 68 OFFCURVE",
"297 68 CURVE SMOOTH",
"201 68 OFFCURVE",
"150 145 OFFCURVE",
"150 234 CURVE SMOOTH",
"150 277 OFFCURVE",
"162 324 OFFCURVE",
"188 366 CURVE",
"111 398 LINE",
"74 346 OFFCURVE",
"56 294 OFFCURVE",
"56 232 CURVE SMOOTH",
"56 95 OFFCURVE",
"148 -10 OFFCURVE",
"298 -10 CURVE SMOOTH"
);
}
);
width = 916;
},
{
layerId = "2D9814BA-45F0-4FCB-8967-A366BFC6AA80";
paths = (
{
closed = 1;
nodes = (
"507 -10 OFFCURVE",
"604 91 OFFCURVE",
"604 257 CURVE SMOOTH",
"604 319 LINE SMOOTH",
"604 391 OFFCURVE",
"639 431 OFFCURVE",
"697 431 CURVE SMOOTH",
"756 431 OFFCURVE",
"786 384 OFFCURVE",
"786 330 CURVE SMOOTH",
"786 301 OFFCURVE",
"778 271 OFFCURVE",
"762 244 CURVE",
"895 203 LINE",
"923 245 OFFCURVE",
"940 298 OFFCURVE",
"940 350 CURVE SMOOTH",
"940 455 OFFCURVE",
"875 555 OFFCURVE",
"756 555 CURVE SMOOTH",
"685 555 OFFCURVE",
"641 532 OFFCURVE",
"602 476 CURVE",
"597 476 LINE",
"602 531 OFFCURVE",
"604 567 OFFCURVE",
"604 598 CURVE SMOOTH",
"604 714 LINE",
"452 714 LINE",
"452 276 LINE SMOOTH",
"452 167 OFFCURVE",
"409 117 OFFCURVE",
"329 117 CURVE SMOOTH",
"254 117 OFFCURVE",
"210 174 OFFCURVE",
"210 254 CURVE SMOOTH",
"210 298 OFFCURVE",
"223 339 OFFCURVE",
"247 377 CURVE",
"119 431 LINE",
"74 373 OFFCURVE",
"53 311 OFFCURVE",
"53 247 CURVE SMOOTH",
"53 107 OFFCURVE",
"158 -10 OFFCURVE",
"333 -10 CURVE SMOOTH"
);
}
);
width = 979;
}
);
leftKerningGroup = "Rae-oldgeorgian";
leftMetricsKey = "=Don-oldgeorgian-5";
note = uni10B0;
rightMetricsKey = "Vin-oldgeorgian";
unicode = 10B0;
},
{
glyphname = "San-oldgeorgian";
lastChange = "2017-03-30 18:15:23 +0000";
layers = (
{
layerId = "F1E1AA8A-A3F5-4941-B4E6-C7B9A7EBF3CF";
paths = (
{
closed = 1;
nodes = (
"456 -10 OFFCURVE",
"537 87 OFFCURVE",
"537 218 CURVE SMOOTH",
"537 271 OFFCURVE",
"522 326 OFFCURVE",
"489 377 CURVE",
"468 367 LINE",
"497 319 OFFCURVE",
"511 267 OFFCURVE",
"511 219 CURVE SMOOTH",
"511 99 OFFCURVE",
"440 16 OFFCURVE",
"319 16 CURVE SMOOTH",
"193 16 OFFCURVE",
"124 98 OFFCURVE",
"124 250 CURVE SMOOTH",
"124 714 LINE",
"98 714 LINE",
"98 250 LINE",
"98 93 OFFCURVE",
"166 -10 OFFCURVE",
"319 -10 CURVE SMOOTH"
);
}
);
width = 596;
},
{
layerId = "29BFE51A-F5BD-45F8-BEBC-9AD34273B132";
paths = (
{
closed = 1;
nodes = (
"556 -10 OFFCURVE",
"670 115 OFFCURVE",
"670 258 CURVE SMOOTH",
"670 323 OFFCURVE",
"647 391 OFFCURVE",
"596 454 CURVE",
"433 385 LINE",
"456 349 OFFCURVE",
"469 312 OFFCURVE",
"469 268 CURVE SMOOTH",
"469 194 OFFCURVE",
"430 151 OFFCURVE",
"369 151 CURVE SMOOTH",
"303 151 OFFCURVE",
"266 194 OFFCURVE",
"266 293 CURVE SMOOTH",
"266 714 LINE",
"72 714 LINE",
"72 270 LINE SMOOTH",
"72 104 OFFCURVE",
"173 -10 OFFCURVE",
"364 -10 CURVE SMOOTH"
);
}
);
width = 717;
},
{
layerId = "0228171D-2638-482B-876E-783119597845";
paths = (
{
closed = 1;
nodes = (
"314 -10 OFFCURVE",
"359 87 OFFCURVE",
"359 207 CURVE SMOOTH",
"359 281 OFFCURVE",
"338 335 OFFCURVE",
"315 370 CURVE",
"295 361 LINE",
"317 325 OFFCURVE",
"332 270 OFFCURVE",
"332 208 CURVE SMOOTH",
"332 87 OFFCURVE",
"287 15 OFFCURVE",
"211 15 CURVE SMOOTH",
"131 15 OFFCURVE",
"92 88 OFFCURVE",
"92 220 CURVE SMOOTH",
"92 714 LINE",
"66 714 LINE",
"66 220 LINE SMOOTH",
"66 86 OFFCURVE",
"105 -10 OFFCURVE",
"210 -10 CURVE SMOOTH"
);
}
);
width = 408;
},
{
layerId = "5ABCF6AD-94E3-4DCD-A28A-F55CA80EA6B2";
paths = (
{
closed = 1;
nodes = (
"368 -10 OFFCURVE",
"431 84 OFFCURVE",
"431 213 CURVE SMOOTH",
"431 276 OFFCURVE",
"414 338 OFFCURVE",
"385 385 CURVE",
"311 359 LINE",
"332 313 OFFCURVE",
"342 262 OFFCURVE",
"342 210 CURVE SMOOTH",
"342 126 OFFCURVE",
"312 63 OFFCURVE",
"247 63 CURVE SMOOTH",
"180 63 OFFCURVE",
"143 126 OFFCURVE",
"143 239 CURVE SMOOTH",
"143 714 LINE",
"61 714 LINE",
"61 234 LINE",
"61 83 OFFCURVE",
"123 -10 OFFCURVE",
"245 -10 CURVE SMOOTH"
);
}
);
width = 474;
},
{
layerId = "E419AE99-0260-44D0-87A9-BD030FD7659A";
paths = (
{
closed = 1;
nodes = (
"418 -10 OFFCURVE",
"494 105 OFFCURVE",
"494 231 CURVE SMOOTH",
"494 291 OFFCURVE",
"476 353 OFFCURVE",
"436 407 CURVE",
"323 366 LINE",
"342 328 OFFCURVE",
"352 278 OFFCURVE",
"352 235 CURVE SMOOTH",
"352 164 OFFCURVE",
"326 110 OFFCURVE",
"273 110 CURVE SMOOTH",
"217 110 OFFCURVE",
"194 163 OFFCURVE",
"194 260 CURVE SMOOTH",
"194 714 LINE",
"57 714 LINE",
"57 250 LINE SMOOTH",
"57 81 OFFCURVE",
"137 -10 OFFCURVE",
"278 -10 CURVE SMOOTH"
);
}
);
width = 531;
},
{
layerId = "C7A62E0A-0606-4C56-A5B0-C8EA8B1CCAFA";
paths = (
{
closed = 1;
nodes = (
"458 -10 OFFCURVE",
"535 112 OFFCURVE",
"535 243 CURVE SMOOTH",
"535 303 OFFCURVE",
"516 366 OFFCURVE",
"477 420 CURVE",
"330 370 LINE",
"348 337 OFFCURVE",
"358 288 OFFCURVE",
"358 250 CURVE SMOOTH",
"358 187 OFFCURVE",
"337 139 OFFCURVE",
"292 139 CURVE SMOOTH",
"243 139 OFFCURVE",
"224 185 OFFCURVE",
"224 273 CURVE SMOOTH",
"224 714 LINE",
"54 714 LINE",
"54 260 LINE SMOOTH",
"54 79 OFFCURVE",
"157 -10 OFFCURVE",
"300 -10 CURVE SMOOTH"
);
}
);
width = 569;
},
{
layerId = "9503992B-9F6A-43B6-8DBC-EB382B06F8D4";
paths = (
{
closed = 1;
nodes = (
"484 -10 OFFCURVE",
"576 95 OFFCURVE",
"576 232 CURVE SMOOTH",
"576 294 OFFCURVE",
"558 346 OFFCURVE",
"521 398 CURVE",
"444 366 LINE",
"470 324 OFFCURVE",
"482 277 OFFCURVE",
"482 234 CURVE SMOOTH",
"482 145 OFFCURVE",
"431 68 OFFCURVE",
"335 68 CURVE SMOOTH",
"237 68 OFFCURVE",
"183 129 OFFCURVE",
"183 252 CURVE SMOOTH",
"183 714 LINE",
"93 714 LINE",
"93 252 LINE SMOOTH",
"93 86 OFFCURVE",
"184 -10 OFFCURVE",
"334 -10 CURVE SMOOTH"
);
}
);
width = 632;
},
{
layerId = "2D9814BA-45F0-4FCB-8967-A366BFC6AA80";
paths = (
{
closed = 1;
nodes = (
"530 -10 OFFCURVE",
"637 110 OFFCURVE",
"637 247 CURVE SMOOTH",
"637 308 OFFCURVE",
"616 373 OFFCURVE",
"570 431 CURVE",
"442 377 LINE",
"465 341 OFFCURVE",
"478 302 OFFCURVE",
"478 254 CURVE SMOOTH",
"478 169 OFFCURVE",
"433 117 OFFCURVE",
"359 117 CURVE SMOOTH",
"280 117 OFFCURVE",
"236 167 OFFCURVE",
"236 276 CURVE SMOOTH",
"236 714 LINE",
"85 714 LINE",
"85 257 LINE",
"85 91 OFFCURVE",
"182 -10 OFFCURVE",
"356 -10 CURVE SMOOTH"
);
}
);
width = 690;
}
);
leftKerningGroup = "San-oldgeorgian";
leftMetricsKey = "=Nar-oldgeorgian-5";
note = uni10B1;
rightMetricsKey = "=Don-oldgeorgian-5";
unicode = 10B1;
},
{
glyphname = "Tar-oldgeorgian";
lastChange = "2017-03-30 18:15:23 +0000";
layers = (
{
layerId = "F1E1AA8A-A3F5-4941-B4E6-C7B9A7EBF3CF";
paths = (
{
closed = 1;
nodes = (
"502 0 LINE",
"502 25 LINE",
"129 25 LINE",
"129 305 LINE",
"256 305 LINE SMOOTH",
"414 305 OFFCURVE",
"516 364 OFFCURVE",
"516 519 CURVE SMOOTH",
"516 658 OFFCURVE",
"429 714 OFFCURVE",
"270 714 CURVE SMOOTH",
"103 714 LINE",
"103 0 LINE"
);
},
{
closed = 1;
nodes = (
"129 689 LINE",
"266 689 LINE SMOOTH",
"418 689 OFFCURVE",
"489 639 OFFCURVE",
"489 518 CURVE SMOOTH",
"489 372 OFFCURVE",
"394 330 OFFCURVE",
"254 330 CURVE SMOOTH",
"129 330 LINE"
);
}
);
width = 580;
},
{
layerId = "29BFE51A-F5BD-45F8-BEBC-9AD34273B132";
paths = (
{
closed = 1;
nodes = (
"561 0 LINE",
"561 156 LINE",
"270 156 LINE",
"270 237 LINE",
"324 237 LINE SMOOTH",
"527 237 OFFCURVE",
"595 357 OFFCURVE",
"595 487 CURVE SMOOTH",
"595 632 OFFCURVE",
"505 714 OFFCURVE",
"324 714 CURVE SMOOTH",
"77 714 LINE",
"77 0 LINE"
);
},
{
closed = 1;
nodes = (
"270 558 LINE",
"320 558 LINE SMOOTH",
"376 558 OFFCURVE",
"402 527 OFFCURVE",
"402 482 CURVE SMOOTH",
"402 417 OFFCURVE",
"358 394 OFFCURVE",
"308 394 CURVE SMOOTH",
"270 394 LINE"
);
}
);
width = 647;
},
{
layerId = "0228171D-2638-482B-876E-783119597845";
paths = (
{
closed = 1;
nodes = (
"344 0 LINE",
"344 25 LINE",
"97 25 LINE",
"97 306 LINE",
"165 306 LINE SMOOTH",
"296 306 OFFCURVE",
"355 366 OFFCURVE",
"355 519 CURVE SMOOTH",
"355 663 OFFCURVE",
"293 714 OFFCURVE",
"165 714 CURVE SMOOTH",
"71 714 LINE",
"71 0 LINE"
);
},
{
closed = 1;
nodes = (
"97 689 LINE",
"164 689 LINE SMOOTH",
"275 689 OFFCURVE",
"328 645 OFFCURVE",
"328 520 CURVE SMOOTH",
"328 385 OFFCURVE",
"278 331 OFFCURVE",
"171 331 CURVE SMOOTH",
"97 331 LINE"
);
}
);
width = 409;
},
{
layerId = "5ABCF6AD-94E3-4DCD-A28A-F55CA80EA6B2";
paths = (
{
closed = 1;
nodes = (
"390 0 LINE",
"390 73 LINE",
"148 73 LINE",
"148 279 LINE",
"203 279 LINE SMOOTH",
"344 279 OFFCURVE",
"408 357 OFFCURVE",
"408 507 CURVE SMOOTH",
"408 651 OFFCURVE",
"341 714 OFFCURVE",
"206 714 CURVE SMOOTH",
"66 714 LINE",
"66 0 LINE"
);
},
{
closed = 1;
nodes = (
"148 643 LINE",
"199 643 LINE SMOOTH",
"284 643 OFFCURVE",
"325 605 OFFCURVE",
"325 507 CURVE SMOOTH",
"325 395 OFFCURVE",
"283 351 OFFCURVE",
"199 351 CURVE SMOOTH",
"148 351 LINE"
);
}
);
width = 456;
},
{
layerId = "E419AE99-0260-44D0-87A9-BD030FD7659A";
paths = (
{
closed = 1;
nodes = (
"435 0 LINE",
"435 118 LINE",
"198 118 LINE",
"198 253 LINE",
"239 253 LINE SMOOTH",
"391 253 OFFCURVE",
"460 349 OFFCURVE",
"460 495 CURVE SMOOTH",
"460 639 OFFCURVE",
"388 714 OFFCURVE",
"246 714 CURVE SMOOTH",
"62 714 LINE",
"62 0 LINE"
);
},
{
closed = 1;
nodes = (
"197 598 LINE",
"233 598 LINE SMOOTH",
"293 598 OFFCURVE",
"323 566 OFFCURVE",
"323 494 CURVE SMOOTH",
"323 404 OFFCURVE",
"287 369 OFFCURVE",
"226 369 CURVE SMOOTH",
"197 369 LINE"
);
}
);
width = 502;
},
{
layerId = "C7A62E0A-0606-4C56-A5B0-C8EA8B1CCAFA";
paths = (
{
closed = 1;
nodes = (
"463 0 LINE",
"463 147 LINE",
"229 147 LINE",
"229 237 LINE",
"262 237 LINE SMOOTH",
"420 237 OFFCURVE",
"492 344 OFFCURVE",
"492 487 CURVE SMOOTH",
"492 632 OFFCURVE",
"418 714 OFFCURVE",
"271 714 CURVE SMOOTH",
"59 714 LINE",
"59 0 LINE"
);
},
{
closed = 1;
nodes = (
"229 570 LINE",
"255 570 LINE SMOOTH",
"300 570 OFFCURVE",
"322 542 OFFCURVE",
"322 486 CURVE SMOOTH",
"322 410 OFFCURVE",
"291 381 OFFCURVE",
"244 381 CURVE SMOOTH",
"229 381 LINE"
);
}
);
width = 531;
},
{
layerId = "9503992B-9F6A-43B6-8DBC-EB382B06F8D4";
paths = (
{
closed = 1;
nodes = (
"527 0 LINE",
"527 78 LINE",
"188 78 LINE",
"188 278 LINE",
"270 278 LINE SMOOTH",
"451 278 OFFCURVE",
"555 358 OFFCURVE",
"555 504 CURVE SMOOTH",
"555 644 OFFCURVE",
"466 714 OFFCURVE",
"287 714 CURVE SMOOTH",
"98 714 LINE",
"98 0 LINE"
);
},
{
closed = 1;
nodes = (
"188 637 LINE",
"279 637 LINE SMOOTH",
"404 637 OFFCURVE",
"462 592 OFFCURVE",
"462 500 CURVE SMOOTH",
"462 398 OFFCURVE",
"402 355 OFFCURVE",
"260 355 CURVE SMOOTH",
"188 355 LINE"
);
}
);
width = 616;
},
{
layerId = "2D9814BA-45F0-4FCB-8967-A366BFC6AA80";
paths = (
{
closed = 1;
nodes = (
"549 0 LINE",
"549 126 LINE",
"241 126 LINE",
"241 254 LINE",
"306 254 LINE SMOOTH",
"483 254 OFFCURVE",
"583 337 OFFCURVE",
"583 491 CURVE SMOOTH",
"583 639 OFFCURVE",
"491 714 OFFCURVE",
"318 714 CURVE SMOOTH",
"90 714 LINE",
"90 0 LINE"
);
},
{
closed = 1;
nodes = (
"241 590 LINE",
"310 590 LINE SMOOTH",
"393 590 OFFCURVE",
"430 557 OFFCURVE",
"430 486 CURVE SMOOTH",
"430 416 OFFCURVE",
"392 378 OFFCURVE",
"304 378 CURVE SMOOTH",
"241 378 LINE"
);
}
);
width = 641;
}
);
leftKerningGroup = "Tar-oldgeorgian";
leftMetricsKey = "Nar-oldgeorgian";
note = uni10B2;
rightMetricsKey = "Don-oldgeorgian";
unicode = 10B2;
},
{
glyphname = "Un-oldgeorgian";
lastChange = "2017-03-30 18:15:23 +0000";
layers = (
{
layerId = "F1E1AA8A-A3F5-4941-B4E6-C7B9A7EBF3CF";
paths = (
{
closed = 1;
nodes = (
"681 -150 OFFCURVE",
"734 -102 OFFCURVE",
"734 -21 CURVE SMOOTH",
"734 55 OFFCURVE",
"673 95 OFFCURVE",
"624 108 CURVE",
"668 172 OFFCURVE",
"691 257 OFFCURVE",
"691 358 CURVE SMOOTH",
"691 590 OFFCURVE",
"580 725 OFFCURVE",
"383 725 CURVE SMOOTH",
"178 725 OFFCURVE",
"64 574 OFFCURVE",
"64 359 CURVE SMOOTH",
"64 143 OFFCURVE",
"169 -10 OFFCURVE",
"377 -10 CURVE SMOOTH",
"479 -10 OFFCURVE",
"557 26 OFFCURVE",
"609 88 CURVE",
"662 74 OFFCURVE",
"707 35 OFFCURVE",
"707 -22 CURVE SMOOTH",
"707 -80 OFFCURVE",
"674 -124 OFFCURVE",
"602 -124 CURVE SMOOTH",
"589 -124 OFFCURVE",
"575 -123 OFFCURVE",
"566 -122 CURVE",
"566 -147 LINE",
"574 -149 OFFCURVE",
"591 -150 OFFCURVE",
"602 -150 CURVE SMOOTH"
);
},
{
closed = 1;
nodes = (
"183 15 OFFCURVE",
"91 159 OFFCURVE",
"91 359 CURVE SMOOTH",
"91 556 OFFCURVE",
"187 700 OFFCURVE",
"383 700 CURVE SMOOTH",
"563 700 OFFCURVE",
"664 575 OFFCURVE",
"664 358 CURVE SMOOTH",
"664 156 OFFCURVE",
"574 15 OFFCURVE",
"378 15 CURVE SMOOTH"
);
}
);
width = 754;
},
{
layerId = "29BFE51A-F5BD-45F8-BEBC-9AD34273B132";
paths = (
{
closed = 1;
nodes = (
"718 -195 OFFCURVE",
"787 -145 OFFCURVE",
"787 -40 CURVE SMOOTH",
"787 41 OFFCURVE",
"728 98 OFFCURVE",
"673 125 CURVE",
"728 190 OFFCURVE",
"745 269 OFFCURVE",
"745 358 CURVE SMOOTH",
"745 579 OFFCURVE",
"643 724 OFFCURVE",
"399 724 CURVE SMOOTH",
"158 724 OFFCURVE",
"51 580 OFFCURVE",
"51 359 CURVE SMOOTH",
"51 136 OFFCURVE",
"158 -10 OFFCURVE",
"398 -10 CURVE SMOOTH",
"485 -10 OFFCURVE",
"539 5 OFFCURVE",
"587 39 CURVE",
"606 16 OFFCURVE",
"616 0 OFFCURVE",
"616 -21 CURVE SMOOTH",
"616 -43 OFFCURVE",
"598 -59 OFFCURVE",
"565 -59 CURVE SMOOTH",
"550 -59 OFFCURVE",
"536 -57 OFFCURVE",
"524 -53 CURVE",
"524 -184 LINE",
"547 -192 OFFCURVE",
"577 -195 OFFCURVE",
"609 -195 CURVE SMOOTH"
);
},
{
closed = 1;
nodes = (
"295 151 OFFCURVE",
"254 229 OFFCURVE",
"254 358 CURVE SMOOTH",
"254 486 OFFCURVE",
"294 566 OFFCURVE",
"399 566 CURVE SMOOTH",
"504 566 OFFCURVE",
"542 486 OFFCURVE",
"542 358 CURVE SMOOTH",
"542 229 OFFCURVE",
"504 151 OFFCURVE",
"398 151 CURVE SMOOTH"
);
}
);
width = 797;
},
{
layerId = "0228171D-2638-482B-876E-783119597845";
paths = (
{
closed = 1;
nodes = (
"449 -138 OFFCURVE",
"489 -103 OFFCURVE",
"489 -33 CURVE SMOOTH",
"489 37 OFFCURVE",
"449 75 OFFCURVE",
"416 100 CURVE",
"447 168 OFFCURVE",
"457 261 OFFCURVE",
"457 358 CURVE SMOOTH",
"457 570 OFFCURVE",
"404 724 OFFCURVE",
"257 724 CURVE SMOOTH",
"126 724 OFFCURVE",
"54 602 OFFCURVE",
"54 358 CURVE SMOOTH",
"54 173 OFFCURVE",
"97 -10 OFFCURVE",
"257 -10 CURVE SMOOTH",
"327 -10 OFFCURVE",
"374 24 OFFCURVE",
"405 79 CURVE",
"436 54 OFFCURVE",
"463 25 OFFCURVE",
"463 -33 CURVE SMOOTH",
"463 -84 OFFCURVE",
"436 -113 OFFCURVE",
"382 -113 CURVE SMOOTH",
"373 -113 OFFCURVE",
"364 -112 OFFCURVE",
"357 -110 CURVE",
"357 -135 LINE",
"364 -137 OFFCURVE",
"375 -138 OFFCURVE",
"382 -138 CURVE SMOOTH"
);
},
{
closed = 1;
nodes = (
"143 15 OFFCURVE",
"80 141 OFFCURVE",
"80 358 CURVE SMOOTH",
"80 574 OFFCURVE",
"137 699 OFFCURVE",
"257 699 CURVE SMOOTH",
"374 699 OFFCURVE",
"431 577 OFFCURVE",
"431 358 CURVE SMOOTH",
"431 135 OFFCURVE",
"374 15 OFFCURVE",
"257 15 CURVE SMOOTH"
);
}
);
width = 509;
},
{
layerId = "5ABCF6AD-94E3-4DCD-A28A-F55CA80EA6B2";
paths = (
{
closed = 1;
nodes = (
"496 -164 OFFCURVE",
"538 -113 OFFCURVE",
"538 -34 CURVE SMOOTH",
"538 37 OFFCURVE",
"496 84 OFFCURVE",
"464 112 CURVE",
"494 176 OFFCURVE",
"506 263 OFFCURVE",
"506 358 CURVE SMOOTH",
"506 581 OFFCURVE",
"437 724 OFFCURVE",
"278 724 CURVE SMOOTH",
"129 724 OFFCURVE",
"48 600 OFFCURVE",
"48 358 CURVE SMOOTH",
"48 152 OFFCURVE",
"112 -10 OFFCURVE",
"278 -10 CURVE SMOOTH",
"342 -10 OFFCURVE",
"389 16 OFFCURVE",
"424 59 CURVE",
"445 38 OFFCURVE",
"464 10 OFFCURVE",
"464 -29 CURVE SMOOTH",
"464 -69 OFFCURVE",
"444 -100 OFFCURVE",
"409 -100 CURVE SMOOTH",
"398 -100 OFFCURVE",
"388 -99 OFFCURVE",
"379 -96 CURVE",
"379 -157 LINE",
"392 -161 OFFCURVE",
"409 -164 OFFCURVE",
"423 -164 CURVE SMOOTH"
);
},
{
closed = 1;
nodes = (
"184 63 OFFCURVE",
"133 169 OFFCURVE",
"133 358 CURVE SMOOTH",
"133 547 OFFCURVE",
"180 652 OFFCURVE",
"278 652 CURVE SMOOTH",
"374 652 OFFCURVE",
"421 550 OFFCURVE",
"421 358 CURVE SMOOTH",
"421 163 OFFCURVE",
"374 63 OFFCURVE",
"278 63 CURVE SMOOTH"
);
}
);
width = 558;
},
{
layerId = "E419AE99-0260-44D0-87A9-BD030FD7659A";
paths = (
{
closed = 1;
nodes = (
"542 -178 OFFCURVE",
"591 -122 OFFCURVE",
"591 -35 CURVE SMOOTH",
"591 41 OFFCURVE",
"546 90 OFFCURVE",
"510 123 CURVE",
"539 183 OFFCURVE",
"553 264 OFFCURVE",
"553 358 CURVE SMOOTH",
"553 591 OFFCURVE",
"469 724 OFFCURVE",
"299 724 CURVE SMOOTH",
"133 724 OFFCURVE",
"43 597 OFFCURVE",
"43 359 CURVE SMOOTH",
"43 132 OFFCURVE",
"126 -10 OFFCURVE",
"299 -10 CURVE SMOOTH",
"357 -10 OFFCURVE",
"405 8 OFFCURVE",
"442 41 CURVE",
"458 24 OFFCURVE",
"471 4 OFFCURVE",
"471 -25 CURVE SMOOTH",
"471 -58 OFFCURVE",
"453 -78 OFFCURVE",
"427 -78 CURVE SMOOTH",
"414 -78 OFFCURVE",
"402 -76 OFFCURVE",
"391 -73 CURVE",
"391 -169 LINE",
"410 -175 OFFCURVE",
"433 -178 OFFCURVE",
"453 -178 CURVE SMOOTH"
);
},
{
closed = 1;
nodes = (
"223 110 OFFCURVE",
"184 195 OFFCURVE",
"184 358 CURVE SMOOTH",
"184 521 OFFCURVE",
"222 607 OFFCURVE",
"299 607 CURVE SMOOTH",
"374 607 OFFCURVE",
"412 525 OFFCURVE",
"412 358 CURVE SMOOTH",
"412 191 OFFCURVE",
"375 110 OFFCURVE",
"299 110 CURVE SMOOTH"
);
}
);
width = 606;
},
{
layerId = "C7A62E0A-0606-4C56-A5B0-C8EA8B1CCAFA";
paths = (
{
closed = 1;
nodes = (
"570 -188 OFFCURVE",
"624 -128 OFFCURVE",
"624 -36 CURVE SMOOTH",
"624 44 OFFCURVE",
"584 94 OFFCURVE",
"539 130 CURVE",
"567 188 OFFCURVE",
"582 265 OFFCURVE",
"582 358 CURVE SMOOTH",
"582 598 OFFCURVE",
"489 724 OFFCURVE",
"311 724 CURVE SMOOTH",
"134 724 OFFCURVE",
"39 596 OFFCURVE",
"39 359 CURVE SMOOTH",
"39 119 OFFCURVE",
"135 -10 OFFCURVE",
"311 -10 CURVE SMOOTH",
"366 -10 OFFCURVE",
"414 3 OFFCURVE",
"453 29 CURVE",
"468 14 OFFCURVE",
"475 1 OFFCURVE",
"475 -22 CURVE SMOOTH",
"475 -46 OFFCURVE",
"458 -64 OFFCURVE",
"437 -64 CURVE SMOOTH",
"423 -64 OFFCURVE",
"410 -62 OFFCURVE",
"398 -58 CURVE",
"398 -177 LINE",
"421 -184 OFFCURVE",
"448 -188 OFFCURVE",
"472 -188 CURVE SMOOTH"
);
},
{
closed = 1;
nodes = (
"248 139 OFFCURVE",
"216 212 OFFCURVE",
"216 358 CURVE SMOOTH",
"216 504 OFFCURVE",
"248 578 OFFCURVE",
"311 578 CURVE SMOOTH",
"374 578 OFFCURVE",
"405 508 OFFCURVE",
"405 358 CURVE SMOOTH",
"405 208 OFFCURVE",
"375 139 OFFCURVE",
"311 139 CURVE SMOOTH"
);
}
);
width = 634;
},
{
layerId = "9503992B-9F6A-43B6-8DBC-EB382B06F8D4";
paths = (
{
closed = 1;
nodes = (
"695 -170 OFFCURVE",
"760 -109 OFFCURVE",
"760 -17 CURVE SMOOTH",
"760 55 OFFCURVE",
"716 95 OFFCURVE",
"649 110 CURVE",
"700 187 OFFCURVE",
"720 265 OFFCURVE",
"720 358 CURVE SMOOTH",
"720 588 OFFCURVE",
"599 724 OFFCURVE",
"392 724 CURVE SMOOTH",
"179 724 OFFCURVE",
"61 591 OFFCURVE",
"61 359 CURVE SMOOTH",
"61 125 OFFCURVE",
"181 -10 OFFCURVE",
"391 -10 CURVE SMOOTH",
"476 -10 OFFCURVE",
"546 13 OFFCURVE",
"603 59 CURVE",
"642 50 OFFCURVE",
"672 21 OFFCURVE",
"672 -17 CURVE SMOOTH",
"672 -63 OFFCURVE",
"645 -92 OFFCURVE",
"595 -92 CURVE SMOOTH",
"579 -92 OFFCURVE",
"565 -90 OFFCURVE",
"553 -88 CURVE",
"553 -166 LINE",
"570 -168 OFFCURVE",
"584 -170 OFFCURVE",
"595 -170 CURVE SMOOTH"
);
},
{
closed = 1;
nodes = (
"237 68 OFFCURVE",
"156 169 OFFCURVE",
"156 358 CURVE SMOOTH",
"156 546 OFFCURVE",
"237 645 OFFCURVE",
"392 645 CURVE SMOOTH",
"545 645 OFFCURVE",
"625 549 OFFCURVE",
"625 358 CURVE SMOOTH",
"625 167 OFFCURVE",
"544 68 OFFCURVE",
"391 68 CURVE SMOOTH"
);
}
);
width = 780;
},
{
layerId = "2D9814BA-45F0-4FCB-8967-A366BFC6AA80";
paths = (
{
closed = 1;
nodes = (
"717 -185 OFFCURVE",
"780 -129 OFFCURVE",
"780 -38 CURVE SMOOTH",
"780 37 OFFCURVE",
"730 87 OFFCURVE",
"668 116 CURVE",
"713 177 OFFCURVE",
"738 265 OFFCURVE",
"738 358 CURVE SMOOTH",
"738 594 OFFCURVE",
"618 724 OFFCURVE",
"399 724 CURVE SMOOTH",
"180 724 OFFCURVE",
"58 596 OFFCURVE",
"58 359 CURVE SMOOTH",
"58 121 OFFCURVE",
"179 -10 OFFCURVE",
"398 -10 CURVE SMOOTH",
"478 -10 OFFCURVE",
"550 7 OFFCURVE",
"604 46 CURVE",
"629 28 OFFCURVE",
"642 5 OFFCURVE",
"642 -19 CURVE SMOOTH",
"642 -54 OFFCURVE",
"620 -73 OFFCURVE",
"589 -73 CURVE SMOOTH",
"575 -73 OFFCURVE",
"558 -71 OFFCURVE",
"539 -67 CURVE",
"539 -177 LINE",
"561 -182 OFFCURVE",
"581 -185 OFFCURVE",
"598 -185 CURVE SMOOTH"
);
},
{
closed = 1;
nodes = (
"277 117 OFFCURVE",
"217 198 OFFCURVE",
"217 358 CURVE SMOOTH",
"217 517 OFFCURVE",
"278 598 OFFCURVE",
"399 598 CURVE SMOOTH",
"519 598 OFFCURVE",
"579 518 OFFCURVE",
"579 358 CURVE SMOOTH",
"579 197 OFFCURVE",
"519 117 OFFCURVE",
"398 117 CURVE SMOOTH"
);
}
);
width = 795;
}
);
leftKerningGroup = "Tan-oldgeorgian";
leftMetricsKey = "Don-oldgeorgian";
note = uni10B3;
rightMetricsKey = "=Gan-oldgeorgian+10";
unicode = 10B3;
},
{
glyphname = "Phar-oldgeorgian";
lastChange = "2017-03-28 19:12:04 +0000";
layers = (
{
layerId = "F1E1AA8A-A3F5-4941-B4E6-C7B9A7EBF3CF";
paths = (
{
closed = 1;
nodes = (
"391 0 LINE",
"391 186 LINE",
"570 191 OFFCURVE",
"692 276 OFFCURVE",
"692 465 CURVE SMOOTH",
"692 655 OFFCURVE",
"546 725 OFFCURVE",
"378 725 CURVE SMOOTH",
"202 725 OFFCURVE",
"64 639 OFFCURVE",
"64 459 CURVE SMOOTH",
"64 272 OFFCURVE",
"190 189 OFFCURVE",
"365 186 CURVE",
"365 0 LINE"
);
},
{
closed = 1;
nodes = (
"196 216 OFFCURVE",
"91 289 OFFCURVE",
"91 459 CURVE SMOOTH",
"91 623 OFFCURVE",
"214 695 OFFCURVE",
"365 700 CURVE",
"365 211 LINE"
);
},
{
closed = 1;
nodes = (
"391 700 LINE",
"547 695 OFFCURVE",
"665 630 OFFCURVE",
"665 465 CURVE SMOOTH",
"665 292 OFFCURVE",
"558 216 OFFCURVE",
"391 211 CURVE"
);
}
);
width = 756;
},
{
layerId = "29BFE51A-F5BD-45F8-BEBC-9AD34273B132";
paths = (
{
closed = 1;
nodes = (
"554 0 LINE",
"554 152 LINE",
"739 157 OFFCURVE",
"871 264 OFFCURVE",
"871 438 CURVE SMOOTH",
"871 620 OFFCURVE",
"729 724 OFFCURVE",
"458 724 CURVE SMOOTH",
"237 724 OFFCURVE",
"51 649 OFFCURVE",
"51 438 CURVE SMOOTH",
"51 266 OFFCURVE",
"181 157 OFFCURVE",
"368 152 CURVE",
"368 0 LINE"
);
},
{
closed = 1;
nodes = (
"290 304 OFFCURVE",
"239 357 OFFCURVE",
"239 439 CURVE SMOOTH",
"239 519 OFFCURVE",
"290 564 OFFCURVE",
"368 569 CURVE",
"368 299 LINE"
);
},
{
closed = 1;
nodes = (
"554 569 LINE",
"632 564 OFFCURVE",
"683 516 OFFCURVE",
"683 439 CURVE SMOOTH",
"683 358 OFFCURVE",
"632 304 OFFCURVE",
"554 299 CURVE"
);
}
);
width = 923;
},
{
layerId = "0228171D-2638-482B-876E-783119597845";
paths = (
{
closed = 1;
nodes = (
"278 0 LINE",
"278 187 LINE",
"395 194 OFFCURVE",
"475 276 OFFCURVE",
"475 467 CURVE SMOOTH",
"475 657 OFFCURVE",
"384 724 OFFCURVE",
"265 724 CURVE SMOOTH",
"143 724 OFFCURVE",
"54 639 OFFCURVE",
"54 460 CURVE SMOOTH",
"54 271 OFFCURVE",
"136 192 OFFCURVE",
"252 187 CURVE",
"252 0 LINE"
);
},
{
closed = 1;
nodes = (
"149 218 OFFCURVE",
"81 285 OFFCURVE",
"81 460 CURVE SMOOTH",
"81 628 OFFCURVE",
"156 693 OFFCURVE",
"252 699 CURVE",
"252 212 LINE"
);
},
{
closed = 1;
nodes = (
"278 699 LINE",
"374 693 OFFCURVE",
"448 635 OFFCURVE",
"448 467 CURVE SMOOTH",
"448 289 OFFCURVE",
"381 219 OFFCURVE",
"278 212 CURVE"
);
}
);
width = 529;
},
{
layerId = "5ABCF6AD-94E3-4DCD-A28A-F55CA80EA6B2";
paths = (
{
closed = 1;
nodes = (
"349 0 LINE",
"349 176 LINE",
"480 183 OFFCURVE",
"571 272 OFFCURVE",
"571 456 CURVE SMOOTH",
"571 645 OFFCURVE",
"463 724 OFFCURVE",
"311 724 CURVE SMOOTH",
"158 724 OFFCURVE",
"48 634 OFFCURVE",
"48 452 CURVE SMOOTH",
"48 269 OFFCURVE",
"140 182 OFFCURVE",
"271 176 CURVE",
"271 0 LINE"
);
},
{
closed = 1;
nodes = (
"188 252 OFFCURVE",
"131 310 OFFCURVE",
"131 452 CURVE SMOOTH",
"131 591 OFFCURVE",
"192 648 OFFCURVE",
"271 654 CURVE",
"271 246 LINE"
);
},
{
closed = 1;
nodes = (
"349 654 LINE",
"427 648 OFFCURVE",
"488 594 OFFCURVE",
"488 456 CURVE SMOOTH",
"488 312 OFFCURVE",
"432 253 OFFCURVE",
"349 246 CURVE"
);
}
);
width = 619;
},
{
layerId = "E419AE99-0260-44D0-87A9-BD030FD7659A";
paths = (
{
closed = 1;
nodes = (
"417 0 LINE",
"417 166 LINE",
"562 173 OFFCURVE",
"663 269 OFFCURVE",
"663 446 CURVE SMOOTH",
"663 635 OFFCURVE",
"539 724 OFFCURVE",
"355 724 CURVE SMOOTH",
"172 724 OFFCURVE",
"43 631 OFFCURVE",
"43 444 CURVE SMOOTH",
"43 268 OFFCURVE",
"144 172 OFFCURVE",
"289 166 CURVE",
"289 0 LINE"
);
},
{
closed = 1;
nodes = (
"225 284 OFFCURVE",
"179 333 OFFCURVE",
"179 445 CURVE SMOOTH",
"179 556 OFFCURVE",
"227 606 OFFCURVE",
"289 612 CURVE",
"289 278 LINE"
);
},
{
closed = 1;
nodes = (
"417 612 LINE",
"479 606 OFFCURVE",
"527 556 OFFCURVE",
"527 446 CURVE SMOOTH",
"527 335 OFFCURVE",
"480 285 OFFCURVE",
"417 278 CURVE"
);
}
);
width = 705;
},
{
layerId = "C7A62E0A-0606-4C56-A5B0-C8EA8B1CCAFA";
paths = (
{
closed = 1;
nodes = (
"460 0 LINE",
"460 159 LINE",
"613 166 OFFCURVE",
"721 267 OFFCURVE",
"721 439 CURVE SMOOTH",
"721 628 OFFCURVE",
"587 724 OFFCURVE",
"382 724 CURVE SMOOTH",
"181 724 OFFCURVE",
"39 628 OFFCURVE",
"39 439 CURVE SMOOTH",
"39 267 OFFCURVE",
"146 166 OFFCURVE",
"300 159 CURVE",
"300 0 LINE"
);
},
{
closed = 1;
nodes = (
"248 305 OFFCURVE",
"209 348 OFFCURVE",
"209 440 CURVE SMOOTH",
"209 533 OFFCURVE",
"248 578 OFFCURVE",
"300 585 CURVE",
"300 298 LINE"
);
},
{
closed = 1;
nodes = (
"460 585 LINE",
"511 578 OFFCURVE",
"551 531 OFFCURVE",
"551 440 CURVE SMOOTH",
"551 349 OFFCURVE",
"511 305 OFFCURVE",
"460 298 CURVE"
);
}
);
width = 760;
},
{
layerId = "9503992B-9F6A-43B6-8DBC-EB382B06F8D4";
paths = (
{
closed = 1;
nodes = (
"456 0 LINE",
"456 178 LINE",
"638 178 OFFCURVE",
"762 274 OFFCURVE",
"762 448 CURVE SMOOTH",
"762 630 OFFCURVE",
"642 724 OFFCURVE",
"414 724 CURVE SMOOTH",
"187 724 OFFCURVE",
"61 626 OFFCURVE",
"61 448 CURVE SMOOTH",
"61 278 OFFCURVE",
"182 178 OFFCURVE",
"367 178 CURVE",
"367 0 LINE"
);
},
{
closed = 1;
nodes = (
"229 252 OFFCURVE",
"152 323 OFFCURVE",
"152 449 CURVE SMOOTH",
"152 572 OFFCURVE",
"230 645 OFFCURVE",
"367 648 CURVE",
"367 252 LINE"
);
},
{
closed = 1;
nodes = (
"456 648 LINE",
"594 645 OFFCURVE",
"671 574 OFFCURVE",
"671 449 CURVE SMOOTH",
"671 323 OFFCURVE",
"593 252 OFFCURVE",
"456 252 CURVE"
);
}
);
width = 823;
},
{
layerId = "2D9814BA-45F0-4FCB-8967-A366BFC6AA80";
paths = (
{
closed = 1;
nodes = (
"511 0 LINE",
"511 162 LINE",
"694 162 OFFCURVE",
"828 268 OFFCURVE",
"828 442 CURVE SMOOTH",
"828 625 OFFCURVE",
"692 724 OFFCURVE",
"442 724 CURVE SMOOTH",
"224 724 OFFCURVE",
"58 641 OFFCURVE",
"58 442 CURVE SMOOTH",
"58 271 OFFCURVE",
"189 162 OFFCURVE",
"375 162 CURVE",
"375 0 LINE"
);
},
{
closed = 1;
nodes = (
"266 279 OFFCURVE",
"200 344 OFFCURVE",
"200 443 CURVE SMOOTH",
"200 540 OFFCURVE",
"268 600 OFFCURVE",
"375 600 CURVE",
"375 279 LINE"
);
},
{
closed = 1;
nodes = (
"511 600 LINE",
"618 600 OFFCURVE",
"686 539 OFFCURVE",
"686 443 CURVE SMOOTH",
"686 345 OFFCURVE",
"620 279 OFFCURVE",
"511 279 CURVE"
);
}
);
width = 886;
}
);
leftMetricsKey = "Don-oldgeorgian";
note = uni10B4;
rightMetricsKey = "Don-oldgeorgian";
unicode = 10B4;
},
{
glyphname = "Khar-oldgeorgian";
lastChange = "2017-03-28 19:12:04 +0000";
layers = (
{
layerId = "F1E1AA8A-A3F5-4941-B4E6-C7B9A7EBF3CF";
paths = (
{
closed = 1;
nodes = (
"303 0 LINE",
"303 428 LINE",
"526 428 LINE",
"526 453 LINE",
"303 453 LINE",
"303 714 LINE",
"277 714 LINE",
"277 453 LINE",
"54 453 LINE",
"54 428 LINE",
"277 428 LINE",
"277 0 LINE"
);
}
);
width = 590;
},
{
layerId = "29BFE51A-F5BD-45F8-BEBC-9AD34273B132";
paths = (
{
closed = 1;
nodes = (
"442 0 LINE",
"442 322 LINE",
"650 322 LINE",
"650 479 LINE",
"442 479 LINE",
"442 714 LINE",
"249 714 LINE",
"249 479 LINE",
"41 479 LINE",
"41 322 LINE",
"249 322 LINE",
"249 0 LINE"
);
}
);
width = 702;
},
{
layerId = "0228171D-2638-482B-876E-783119597845";
paths = (
{
closed = 1;
nodes = (
"220 0 LINE",
"220 425 LINE",
"370 425 LINE",
"370 450 LINE",
"220 450 LINE",
"220 714 LINE",
"194 714 LINE",
"194 450 LINE",
"44 450 LINE",
"44 425 LINE",
"194 425 LINE",
"194 0 LINE"
);
}
);
width = 424;
},
{
layerId = "5ABCF6AD-94E3-4DCD-A28A-F55CA80EA6B2";
paths = (
{
closed = 1;
nodes = (
"270 0 LINE",
"270 392 LINE",
"420 392 LINE",
"420 462 LINE",
"270 462 LINE",
"270 714 LINE",
"188 714 LINE",
"188 462 LINE",
"38 462 LINE",
"38 392 LINE",
"188 392 LINE",
"188 0 LINE"
);
}
);
width = 468;
},
{
layerId = "E419AE99-0260-44D0-87A9-BD030FD7659A";
paths = (
{
closed = 1;
nodes = (
"320 0 LINE",
"320 360 LINE",
"470 360 LINE",
"470 473 LINE",
"320 473 LINE",
"320 714 LINE",
"183 714 LINE",
"183 473 LINE",
"33 473 LINE",
"33 360 LINE",
"183 360 LINE",
"183 0 LINE"
);
}
);
width = 512;
},
{
layerId = "C7A62E0A-0606-4C56-A5B0-C8EA8B1CCAFA";
paths = (
{
closed = 1;
nodes = (
"349 0 LINE",
"349 341 LINE",
"500 341 LINE",
"500 480 LINE",
"349 480 LINE",
"349 714 LINE",
"179 714 LINE",
"179 480 LINE",
"29 480 LINE",
"29 341 LINE",
"179 341 LINE",
"179 0 LINE"
);
}
);
width = 539;
},
{
layerId = "9503992B-9F6A-43B6-8DBC-EB382B06F8D4";
paths = (
{
closed = 1;
nodes = (
"348 0 LINE",
"348 399 LINE",
"555 399 LINE",
"555 477 LINE",
"348 477 LINE",
"348 714 LINE",
"258 714 LINE",
"258 477 LINE",
"51 477 LINE",
"51 399 LINE",
"258 399 LINE",
"258 0 LINE"
);
}
);
width = 616;
},
{
layerId = "2D9814BA-45F0-4FCB-8967-A366BFC6AA80";
paths = (
{
closed = 1;
nodes = (
"406 0 LINE",
"406 353 LINE",
"614 353 LINE",
"614 478 LINE",
"406 478 LINE",
"406 714 LINE",
"256 714 LINE",
"256 478 LINE",
"48 478 LINE",
"48 353 LINE",
"256 353 LINE",
"256 0 LINE"
);
}
);
width = 672;
}
);
leftMetricsKey = "=Don-oldgeorgian-10";
note = uni10B5;
rightMetricsKey = "Don-oldgeorgian";
unicode = 10B5;
},
{
glyphname = "Ghan-oldgeorgian";
lastChange = "2017-03-30 18:15:23 +0000";
layers = (
{
layerId = "F1E1AA8A-A3F5-4941-B4E6-C7B9A7EBF3CF";
paths = (
{
closed = 1;
nodes = (
"124 0 LINE",
"124 462 LINE SMOOTH",
"124 623 OFFCURVE",
"218 699 OFFCURVE",
"360 699 CURVE SMOOTH",
"509 699 OFFCURVE",
"595 620 OFFCURVE",
"595 459 CURVE SMOOTH",
"595 0 LINE",
"621 0 LINE",
"621 460 LINE SMOOTH",
"621 633 OFFCURVE",
"526 724 OFFCURVE",
"361 724 CURVE SMOOTH",
"206 724 OFFCURVE",
"98 640 OFFCURVE",
"98 462 CURVE SMOOTH",
"98 0 LINE"
);
}
);
width = 719;
},
{
layerId = "29BFE51A-F5BD-45F8-BEBC-9AD34273B132";
paths = (
{
closed = 1;
nodes = (
"265 0 LINE",
"265 418 LINE SMOOTH",
"265 520 OFFCURVE",
"298 563 OFFCURVE",
"377 563 CURVE SMOOTH",
"451 563 OFFCURVE",
"489 520 OFFCURVE",
"489 419 CURVE SMOOTH",
"489 0 LINE",
"683 0 LINE",
"683 434 LINE SMOOTH",
"683 619 OFFCURVE",
"577 724 OFFCURVE",
"380 724 CURVE SMOOTH",
"174 724 OFFCURVE",
"72 610 OFFCURVE",
"72 430 CURVE SMOOTH",
"72 0 LINE"
);
}
);
width = 755;
},
{
layerId = "0228171D-2638-482B-876E-783119597845";
paths = (
{
closed = 1;
nodes = (
"92 0 LINE",
"92 493 LINE SMOOTH",
"92 651 OFFCURVE",
"152 699 OFFCURVE",
"237 699 CURVE SMOOTH",
"328 699 OFFCURVE",
"382 643 OFFCURVE",
"382 493 CURVE SMOOTH",
"382 0 LINE",
"408 0 LINE",
"408 497 LINE SMOOTH",
"408 655 OFFCURVE",
"347 724 OFFCURVE",
"237 724 CURVE SMOOTH",
"142 724 OFFCURVE",
"66 672 OFFCURVE",
"66 497 CURVE SMOOTH",
"66 0 LINE"
);
}
);
width = 481;
},
{
layerId = "5ABCF6AD-94E3-4DCD-A28A-F55CA80EA6B2";
paths = (
{
closed = 1;
nodes = (
"143 0 LINE",
"143 483 LINE SMOOTH",
"143 610 OFFCURVE",
"188 651 OFFCURVE",
"259 651 CURVE SMOOTH",
"332 651 OFFCURVE",
"373 605 OFFCURVE",
"373 483 CURVE SMOOTH",
"373 0 LINE",
"456 0 LINE",
"456 489 LINE SMOOTH",
"456 650 OFFCURVE",
"386 724 OFFCURVE",
"259 724 CURVE SMOOTH",
"141 724 OFFCURVE",
"61 658 OFFCURVE",
"61 487 CURVE SMOOTH",
"61 0 LINE"
);
}
);
width = 523;
},
{
layerId = "E419AE99-0260-44D0-87A9-BD030FD7659A";
paths = (
{
closed = 1;
nodes = (
"193 0 LINE",
"193 473 LINE SMOOTH",
"193 572 OFFCURVE",
"223 604 OFFCURVE",
"280 604 CURVE SMOOTH",
"336 604 OFFCURVE",
"366 569 OFFCURVE",
"366 474 CURVE SMOOTH",
"366 0 LINE",
"502 0 LINE",
"502 481 LINE SMOOTH",
"502 645 OFFCURVE",
"423 724 OFFCURVE",
"281 724 CURVE SMOOTH",
"140 724 OFFCURVE",
"57 645 OFFCURVE",
"57 478 CURVE SMOOTH",
"57 0 LINE"
);
}
);
width = 561;
},
{
layerId = "C7A62E0A-0606-4C56-A5B0-C8EA8B1CCAFA";
paths = (
{
closed = 1;
nodes = (
"224 0 LINE",
"224 467 LINE SMOOTH",
"224 547 OFFCURVE",
"245 575 OFFCURVE",
"293 575 CURVE SMOOTH",
"338 575 OFFCURVE",
"361 546 OFFCURVE",
"361 468 CURVE SMOOTH",
"361 0 LINE",
"531 0 LINE",
"531 476 LINE SMOOTH",
"531 642 OFFCURVE",
"447 724 OFFCURVE",
"295 724 CURVE SMOOTH",
"139 724 OFFCURVE",
"54 637 OFFCURVE",
"54 472 CURVE SMOOTH",
"54 0 LINE"
);
}
);
width = 585;
},
{
layerId = "9503992B-9F6A-43B6-8DBC-EB382B06F8D4";
paths = (
{
closed = 1;
nodes = (
"182 0 LINE",
"182 462 LINE SMOOTH",
"182 581 OFFCURVE",
"248 646 OFFCURVE",
"366 646 CURVE SMOOTH",
"489 646 OFFCURVE",
"553 582 OFFCURVE",
"553 463 CURVE SMOOTH",
"553 0 LINE",
"643 0 LINE",
"643 460 LINE SMOOTH",
"643 624 OFFCURVE",
"544 724 OFFCURVE",
"371 724 CURVE SMOOTH",
"197 724 OFFCURVE",
"93 625 OFFCURVE",
"93 462 CURVE SMOOTH",
"93 0 LINE"
);
}
);
width = 736;
},
{
layerId = "2D9814BA-45F0-4FCB-8967-A366BFC6AA80";
paths = (
{
closed = 1;
nodes = (
"236 0 LINE",
"236 436 LINE SMOOTH",
"236 547 OFFCURVE",
"278 597 OFFCURVE",
"377 597 CURVE SMOOTH",
"479 597 OFFCURVE",
"520 548 OFFCURVE",
"520 437 CURVE SMOOTH",
"520 0 LINE",
"671 0 LINE",
"671 460 LINE SMOOTH",
"671 624 OFFCURVE",
"564 724 OFFCURVE",
"381 724 CURVE SMOOTH",
"205 724 OFFCURVE",
"85 631 OFFCURVE",
"85 462 CURVE SMOOTH",
"85 0 LINE"
);
}
);
width = 756;
}
);
leftKerningGroup = "San-oldgeorgian";
leftMetricsKey = "=Nar-oldgeorgian-5";
note = uni10B6;
rightKerningGroup = "En-oldgeorgian";
rightMetricsKey = "=En-oldgeorgian-5";
unicode = 10B6;
},
{
glyphname = "Qar-oldgeorgian";
lastChange = "2017-03-30 18:15:23 +0000";
layers = (
{
layerId = "F1E1AA8A-A3F5-4941-B4E6-C7B9A7EBF3CF";
paths = (
{
closed = 1;
nodes = (
"517 0 LINE",
"517 714 LINE",
"491 714 LINE",
"491 486 LINE SMOOTH",
"491 309 OFFCURVE",
"396 244 OFFCURVE",
"281 244 CURVE SMOOTH",
"158 244 OFFCURVE",
"86 333 OFFCURVE",
"86 457 CURVE SMOOTH",
"86 572 OFFCURVE",
"116 646 OFFCURVE",
"165 714 CURVE",
"133 714 LINE",
"83 635 OFFCURVE",
"59 566 OFFCURVE",
"59 457 CURVE SMOOTH",
"59 309 OFFCURVE",
"150 218 OFFCURVE",
"281 218 CURVE SMOOTH",
"379 218 OFFCURVE",
"459 266 OFFCURVE",
"491 353 CURVE",
"493 353 LINE",
"492 329 OFFCURVE",
"491 274 OFFCURVE",
"491 233 CURVE SMOOTH",
"491 0 LINE"
);
}
);
width = 620;
},
{
layerId = "29BFE51A-F5BD-45F8-BEBC-9AD34273B132";
paths = (
{
closed = 1;
nodes = (
"673 0 LINE",
"673 714 LINE",
"479 714 LINE",
"479 528 LINE SMOOTH",
"479 415 OFFCURVE",
"431 360 OFFCURVE",
"354 360 CURVE SMOOTH",
"285 360 OFFCURVE",
"240 396 OFFCURVE",
"240 473 CURVE SMOOTH",
"240 555 OFFCURVE",
"264 640 OFFCURVE",
"307 714 CURVE",
"104 714 LINE",
"66 640 OFFCURVE",
"46 556 OFFCURVE",
"46 461 CURVE SMOOTH",
"46 300 OFFCURVE",
"145 203 OFFCURVE",
"295 203 CURVE SMOOTH",
"381 203 OFFCURVE",
"445 238 OFFCURVE",
"483 290 CURVE",
"488 290 LINE",
"481 231 OFFCURVE",
"479 179 OFFCURVE",
"479 133 CURVE SMOOTH",
"479 0 LINE"
);
}
);
width = 750;
},
{
layerId = "0228171D-2638-482B-876E-783119597845";
paths = (
{
closed = 1;
nodes = (
"358 0 LINE",
"358 714 LINE",
"332 714 LINE",
"332 484 LINE SMOOTH",
"332 300 OFFCURVE",
"274 243 OFFCURVE",
"196 243 CURVE SMOOTH",
"113 243 OFFCURVE",
"76 327 OFFCURVE",
"76 450 CURVE SMOOTH",
"76 566 OFFCURVE",
"97 644 OFFCURVE",
"129 714 CURVE",
"100 714 LINE",
"66 635 OFFCURVE",
"49 560 OFFCURVE",
"49 450 CURVE SMOOTH",
"49 304 OFFCURVE",
"102 218 OFFCURVE",
"196 218 CURVE SMOOTH",
"261 218 OFFCURVE",
"310 255 OFFCURVE",
"332 333 CURVE",
"334 333 LINE",
"333 311 OFFCURVE",
"332 263 OFFCURVE",
"332 218 CURVE SMOOTH",
"332 0 LINE"
);
}
);
width = 436;
},
{
layerId = "5ABCF6AD-94E3-4DCD-A28A-F55CA80EA6B2";
paths = (
{
closed = 1;
nodes = (
"432 0 LINE",
"432 714 LINE",
"349 714 LINE",
"349 501 LINE SMOOTH",
"349 341 OFFCURVE",
"301 283 OFFCURVE",
"232 283 CURVE SMOOTH",
"162 283 OFFCURVE",
"128 350 OFFCURVE",
"128 461 CURVE SMOOTH",
"128 566 OFFCURVE",
"147 644 OFFCURVE",
"177 714 CURVE",
"91 714 LINE",
"60 638 OFFCURVE",
"43 561 OFFCURVE",
"43 460 CURVE SMOOTH",
"43 306 OFFCURVE",
"106 214 OFFCURVE",
"209 214 CURVE SMOOTH",
"278 214 OFFCURVE",
"324 250 OFFCURVE",
"350 322 CURVE",
"354 322 LINE",
"351 288 OFFCURVE",
"349 241 OFFCURVE",
"349 198 CURVE SMOOTH",
"349 0 LINE"
);
}
);
width = 504;
},
{
layerId = "E419AE99-0260-44D0-87A9-BD030FD7659A";
paths = (
{
closed = 1;
nodes = (
"503 0 LINE",
"503 714 LINE",
"367 714 LINE",
"367 517 LINE SMOOTH",
"367 380 OFFCURVE",
"327 321 OFFCURVE",
"267 321 CURVE SMOOTH",
"209 321 OFFCURVE",
"178 372 OFFCURVE",
"178 471 CURVE SMOOTH",
"178 567 OFFCURVE",
"195 643 OFFCURVE",
"224 714 CURVE",
"84 714 LINE",
"56 641 OFFCURVE",
"38 562 OFFCURVE",
"38 469 CURVE SMOOTH",
"38 308 OFFCURVE",
"110 211 OFFCURVE",
"222 211 CURVE SMOOTH",
"294 211 OFFCURVE",
"339 246 OFFCURVE",
"368 312 CURVE",
"373 312 LINE",
"369 265 OFFCURVE",
"367 220 OFFCURVE",
"367 179 CURVE SMOOTH",
"367 0 LINE"
);
}
);
width = 567;
},
{
layerId = "C7A62E0A-0606-4C56-A5B0-C8EA8B1CCAFA";
paths = (
{
closed = 1;
nodes = (
"547 0 LINE",
"547 714 LINE",
"377 714 LINE",
"377 527 LINE SMOOTH",
"377 405 OFFCURVE",
"343 345 OFFCURVE",
"289 345 CURVE SMOOTH",
"238 345 OFFCURVE",
"209 386 OFFCURVE",
"209 477 CURVE SMOOTH",
"209 567 OFFCURVE",
"225 643 OFFCURVE",
"253 714 CURVE",
"78 714 LINE",
"52 643 OFFCURVE",
"34 563 OFFCURVE",
"34 475 CURVE SMOOTH",
"34 309 OFFCURVE",
"112 209 OFFCURVE",
"230 209 CURVE SMOOTH",
"304 209 OFFCURVE",
"347 243 OFFCURVE",
"379 305 CURVE",
"385 305 LINE",
"380 251 OFFCURVE",
"377 206 OFFCURVE",
"377 167 CURVE SMOOTH",
"377 0 LINE"
);
}
);
width = 606;
},
{
layerId = "9503992B-9F6A-43B6-8DBC-EB382B06F8D4";
paths = (
{
closed = 1;
nodes = (
"581 0 LINE",
"581 714 LINE",
"491 714 LINE",
"491 507 LINE SMOOTH",
"491 356 OFFCURVE",
"431 293 OFFCURVE",
"300 293 CURVE SMOOTH",
"198 293 OFFCURVE",
"151 358 OFFCURVE",
"151 469 CURVE SMOOTH",
"151 561 OFFCURVE",
"187 659 OFFCURVE",
"235 714 CURVE",
"130 714 LINE",
"81 635 OFFCURVE",
"56 554 OFFCURVE",
"56 470 CURVE SMOOTH",
"56 308 OFFCURVE",
"140 215 OFFCURVE",
"286 215 CURVE SMOOTH",
"371 215 OFFCURVE",
"451 253 OFFCURVE",
"490 312 CURVE",
"495 312 LINE",
"492 274 OFFCURVE",
"490 250 OFFCURVE",
"490 242 CURVE SMOOTH",
"490 0 LINE"
);
}
);
width = 679;
},
{
layerId = "2D9814BA-45F0-4FCB-8967-A366BFC6AA80";
paths = (
{
closed = 1;
nodes = (
"644 0 LINE",
"644 714 LINE",
"493 714 LINE",
"493 527 LINE SMOOTH",
"493 401 OFFCURVE",
"443 338 OFFCURVE",
"342 338 CURVE SMOOTH",
"250 338 OFFCURVE",
"209 382 OFFCURVE",
"209 489 CURVE SMOOTH",
"209 574 OFFCURVE",
"235 659 OFFCURVE",
"276 714 CURVE",
"120 714 LINE",
"82 660 OFFCURVE",
"53 564 OFFCURVE",
"53 482 CURVE SMOOTH",
"53 313 OFFCURVE",
"145 212 OFFCURVE",
"298 212 CURVE SMOOTH",
"385 212 OFFCURVE",
"450 245 OFFCURVE",
"492 311 CURVE",
"500 311 LINE",
"496 260 OFFCURVE",
"493 217 OFFCURVE",
"493 182 CURVE SMOOTH",
"493 0 LINE"
);
}
);
width = 734;
}
);
leftKerningGroup = "Ban-oldgeorgian";
leftMetricsKey = "=Don-oldgeorgian-5";
note = uni10B7;
rightKerningGroup = "En-oldgeorgian";
rightMetricsKey = "En-oldgeorgian";
unicode = 10B7;
},
{
glyphname = "Shin-oldgeorgian";
lastChange = "2017-03-30 18:15:23 +0000";
layers = (
{
layerId = "F1E1AA8A-A3F5-4941-B4E6-C7B9A7EBF3CF";
paths = (
{
closed = 1;
nodes = (
"457 -10 OFFCURVE",
"547 86 OFFCURVE",
"547 230 CURVE SMOOTH",
"547 714 LINE",
"521 714 LINE",
"521 584 LINE SMOOTH",
"521 433 OFFCURVE",
"441 352 OFFCURVE",
"314 352 CURVE SMOOTH",
"193 352 OFFCURVE",
"124 423 OFFCURVE",
"124 565 CURVE SMOOTH",
"124 714 LINE",
"98 714 LINE",
"98 565 LINE SMOOTH",
"98 408 OFFCURVE",
"176 326 OFFCURVE",
"314 326 CURVE SMOOTH",
"397 326 OFFCURVE",
"476 358 OFFCURVE",
"521 457 CURVE",
"524 457 LINE",
"522 427 OFFCURVE",
"521 362 OFFCURVE",
"521 348 CURVE SMOOTH",
"521 230 LINE SMOOTH",
"521 113 OFFCURVE",
"448 16 OFFCURVE",
"325 16 CURVE SMOOTH",
"216 16 OFFCURVE",
"134 86 OFFCURVE",
"134 187 CURVE SMOOTH",
"134 211 OFFCURVE",
"137 233 OFFCURVE",
"145 257 CURVE",
"122 264 LINE",
"113 239 OFFCURVE",
"107 213 OFFCURVE",
"107 186 CURVE SMOOTH",
"107 72 OFFCURVE",
"200 -10 OFFCURVE",
"325 -10 CURVE SMOOTH"
);
}
);
width = 650;
},
{
layerId = "29BFE51A-F5BD-45F8-BEBC-9AD34273B132";
paths = (
{
closed = 1;
nodes = (
"554 -10 OFFCURVE",
"669 82 OFFCURVE",
"669 269 CURVE SMOOTH",
"669 714 LINE",
"475 714 LINE",
"475 648 LINE SMOOTH",
"475 535 OFFCURVE",
"440 480 OFFCURVE",
"368 480 CURVE SMOOTH",
"309 480 OFFCURVE",
"266 519 OFFCURVE",
"266 600 CURVE SMOOTH",
"266 714 LINE",
"72 714 LINE",
"72 581 LINE SMOOTH",
"72 422 OFFCURVE",
"158 323 OFFCURVE",
"311 323 CURVE SMOOTH",
"386 323 OFFCURVE",
"440 354 OFFCURVE",
"479 410 CURVE",
"484 410 LINE",
"477 359 OFFCURVE",
"475 333 OFFCURVE",
"475 301 CURVE SMOOTH",
"475 263 LINE SMOOTH",
"475 186 OFFCURVE",
"429 146 OFFCURVE",
"373 146 CURVE SMOOTH",
"316 146 OFFCURVE",
"275 173 OFFCURVE",
"275 220 CURVE SMOOTH",
"275 229 OFFCURVE",
"276 239 OFFCURVE",
"279 249 CURVE",
"106 306 LINE",
"88 272 OFFCURVE",
"79 236 OFFCURVE",
"79 198 CURVE SMOOTH",
"79 69 OFFCURVE",
"212 -10 OFFCURVE",
"373 -10 CURVE SMOOTH"
);
}
);
width = 746;
},
{
layerId = "0228171D-2638-482B-876E-783119597845";
paths = (
{
closed = 1;
nodes = (
"336 -10 OFFCURVE",
"381 74 OFFCURVE",
"381 198 CURVE SMOOTH",
"381 714 LINE",
"355 714 LINE",
"355 583 LINE SMOOTH",
"355 422 OFFCURVE",
"305 351 OFFCURVE",
"219 351 CURVE SMOOTH",
"131 351 OFFCURVE",
"92 413 OFFCURVE",
"92 542 CURVE SMOOTH",
"92 714 LINE",
"66 714 LINE",
"66 535 LINE SMOOTH",
"66 376 OFFCURVE",
"126 326 OFFCURVE",
"217 326 CURVE SMOOTH",
"295 326 OFFCURVE",
"334 376 OFFCURVE",
"355 440 CURVE",
"357 440 LINE",
"355 413 OFFCURVE",
"355 371 OFFCURVE",
"355 333 CURVE SMOOTH",
"355 198 LINE SMOOTH",
"355 78 OFFCURVE",
"310 15 OFFCURVE",
"225 15 CURVE SMOOTH",
"156 15 OFFCURVE",
"100 65 OFFCURVE",
"100 149 CURVE SMOOTH",
"100 181 OFFCURVE",
"106 211 OFFCURVE",
"118 238 CURVE",
"96 246 LINE",
"82 219 OFFCURVE",
"73 185 OFFCURVE",
"73 146 CURVE SMOOTH",
"73 49 OFFCURVE",
"139 -10 OFFCURVE",
"225 -10 CURVE SMOOTH"
);
}
);
width = 459;
},
{
layerId = "5ABCF6AD-94E3-4DCD-A28A-F55CA80EA6B2";
paths = (
{
closed = 1;
nodes = (
"388 -10 OFFCURVE",
"448 76 OFFCURVE",
"448 223 CURVE SMOOTH",
"448 714 LINE",
"366 714 LINE",
"366 596 LINE SMOOTH",
"366 454 OFFCURVE",
"325 395 OFFCURVE",
"251 395 CURVE SMOOTH",
"176 395 OFFCURVE",
"144 448 OFFCURVE",
"144 572 CURVE SMOOTH",
"144 714 LINE",
"61 714 LINE",
"61 566 LINE SMOOTH",
"61 396 OFFCURVE",
"120 327 OFFCURVE",
"224 327 CURVE SMOOTH",
"300 327 OFFCURVE",
"341 369 OFFCURVE",
"367 428 CURVE",
"370 428 LINE",
"367 397 OFFCURVE",
"366 354 OFFCURVE",
"366 318 CURVE SMOOTH",
"366 224 LINE SMOOTH",
"366 120 OFFCURVE",
"331 63 OFFCURVE",
"255 63 CURVE SMOOTH",
"185 63 OFFCURVE",
"152 115 OFFCURVE",
"152 173 CURVE SMOOTH",
"152 195 OFFCURVE",
"157 220 OFFCURVE",
"166 243 CURVE",
"91 266 LINE",
"72 233 OFFCURVE",
"66 199 OFFCURVE",
"66 167 CURVE SMOOTH",
"66 72 OFFCURVE",
"138 -10 OFFCURVE",
"256 -10 CURVE SMOOTH"
);
}
);
width = 520;
},
{
layerId = "E419AE99-0260-44D0-87A9-BD030FD7659A";
paths = (
{
closed = 1;
nodes = (
"439 -10 OFFCURVE",
"514 78 OFFCURVE",
"514 246 CURVE SMOOTH",
"514 714 LINE",
"377 714 LINE",
"377 608 LINE SMOOTH",
"377 485 OFFCURVE",
"344 437 OFFCURVE",
"282 437 CURVE SMOOTH",
"220 437 OFFCURVE",
"194 482 OFFCURVE",
"194 582 CURVE SMOOTH",
"194 714 LINE",
"57 714 LINE",
"57 572 LINE SMOOTH",
"57 411 OFFCURVE",
"114 328 OFFCURVE",
"231 328 CURVE SMOOTH",
"304 328 OFFCURVE",
"348 363 OFFCURVE",
"378 416 CURVE",
"382 416 LINE",
"378 382 OFFCURVE",
"377 338 OFFCURVE",
"377 304 CURVE SMOOTH",
"377 241 LINE SMOOTH",
"377 159 OFFCURVE",
"352 108 OFFCURVE",
"290 108 CURVE SMOOTH",
"235 108 OFFCURVE",
"206 144 OFFCURVE",
"206 194 CURVE SMOOTH",
"206 209 OFFCURVE",
"209 227 OFFCURVE",
"215 243 CURVE",
"88 278 LINE",
"72 244 OFFCURVE",
"66 211 OFFCURVE",
"66 181 CURVE SMOOTH",
"66 70 OFFCURVE",
"154 -10 OFFCURVE",
"290 -10 CURVE SMOOTH"
);
}
);
width = 578;
},
{
layerId = "C7A62E0A-0606-4C56-A5B0-C8EA8B1CCAFA";
paths = (
{
closed = 1;
nodes = (
"471 -10 OFFCURVE",
"554 79 OFFCURVE",
"554 260 CURVE SMOOTH",
"554 714 LINE",
"384 714 LINE",
"384 616 LINE SMOOTH",
"384 503 OFFCURVE",
"356 463 OFFCURVE",
"302 463 CURVE SMOOTH",
"248 463 OFFCURVE",
"225 502 OFFCURVE",
"225 588 CURVE SMOOTH",
"225 714 LINE",
"54 714 LINE",
"54 576 LINE SMOOTH",
"54 420 OFFCURVE",
"112 328 OFFCURVE",
"237 328 CURVE SMOOTH",
"308 328 OFFCURVE",
"354 359 OFFCURVE",
"386 409 CURVE",
"390 409 LINE",
"386 373 OFFCURVE",
"384 328 OFFCURVE",
"384 295 CURVE SMOOTH",
"384 251 LINE SMOOTH",
"384 182 OFFCURVE",
"365 136 OFFCURVE",
"312 136 CURVE SMOOTH",
"266 136 OFFCURVE",
"239 161 OFFCURVE",
"239 207 CURVE SMOOTH",
"239 218 OFFCURVE",
"241 231 OFFCURVE",
"245 243 CURVE",
"87 285 LINE",
"73 251 OFFCURVE",
"67 218 OFFCURVE",
"67 189 CURVE SMOOTH",
"67 69 OFFCURVE",
"165 -10 OFFCURVE",
"311 -10 CURVE SMOOTH"
);
}
);
width = 613;
},
{
layerId = "9503992B-9F6A-43B6-8DBC-EB382B06F8D4";
paths = (
{
closed = 1;
nodes = (
"504 -10 OFFCURVE",
"602 87 OFFCURVE",
"602 242 CURVE SMOOTH",
"602 714 LINE",
"512 714 LINE",
"512 594 LINE SMOOTH",
"512 477 OFFCURVE",
"442 404 OFFCURVE",
"336 404 CURVE SMOOTH",
"237 404 OFFCURVE",
"183 464 OFFCURVE",
"183 584 CURVE SMOOTH",
"183 714 LINE",
"93 714 LINE",
"93 585 LINE SMOOTH",
"93 421 OFFCURVE",
"180 326 OFFCURVE",
"319 326 CURVE SMOOTH",
"397 326 OFFCURVE",
"462 357 OFFCURVE",
"511 428 CURVE",
"517 428 LINE",
"514 388 OFFCURVE",
"512 348 OFFCURVE",
"512 326 CURVE SMOOTH",
"512 242 LINE SMOOTH",
"512 133 OFFCURVE",
"451 68 OFFCURVE",
"350 68 CURVE SMOOTH",
"254 68 OFFCURVE",
"200 119 OFFCURVE",
"200 199 CURVE SMOOTH",
"200 215 OFFCURVE",
"202 231 OFFCURVE",
"208 248 CURVE",
"128 274 LINE",
"113 247 OFFCURVE",
"107 224 OFFCURVE",
"107 193 CURVE SMOOTH",
"107 77 OFFCURVE",
"207 -10 OFFCURVE",
"351 -10 CURVE SMOOTH"
);
}
);
width = 700;
},
{
layerId = "2D9814BA-45F0-4FCB-8967-A366BFC6AA80";
paths = (
{
closed = 1;
nodes = (
"538 -10 OFFCURVE",
"646 84 OFFCURVE",
"646 258 CURVE SMOOTH",
"646 714 LINE",
"495 714 LINE",
"495 626 LINE SMOOTH",
"495 511 OFFCURVE",
"445 449 OFFCURVE",
"359 449 CURVE SMOOTH",
"284 449 OFFCURVE",
"236 496 OFFCURVE",
"236 593 CURVE SMOOTH",
"236 714 LINE",
"85 714 LINE",
"85 583 LINE SMOOTH",
"85 422 OFFCURVE",
"171 324 OFFCURVE",
"319 324 CURVE SMOOTH",
"395 324 OFFCURVE",
"453 355 OFFCURVE",
"497 417 CURVE",
"502 417 LINE",
"497 371 OFFCURVE",
"495 339 OFFCURVE",
"495 311 CURVE SMOOTH",
"495 254 LINE SMOOTH",
"495 164 OFFCURVE",
"442 114 OFFCURVE",
"368 114 CURVE SMOOTH",
"293 114 OFFCURVE",
"246 151 OFFCURVE",
"246 211 CURVE SMOOTH",
"246 223 OFFCURVE",
"248 236 OFFCURVE",
"252 249 CURVE",
"117 293 LINE",
"100 262 OFFCURVE",
"92 231 OFFCURVE",
"92 196 CURVE SMOOTH",
"92 72 OFFCURVE",
"212 -10 OFFCURVE",
"368 -10 CURVE SMOOTH"
);
}
);
width = 736;
}
);
leftKerningGroup = "San-oldgeorgian";
leftMetricsKey = "=Nar-oldgeorgian-5";
note = uni10B8;
rightKerningGroup = "En-oldgeorgian";
rightMetricsKey = "En-oldgeorgian";
unicode = 10B8;
},
{
glyphname = "Chin-oldgeorgian";
lastChange = "2017-03-30 18:15:23 +0000";
layers = (
{
layerId = "F1E1AA8A-A3F5-4941-B4E6-C7B9A7EBF3CF";
paths = (
{
closed = 1;
nodes = (
"129 0 LINE",
"129 406 LINE",
"516 406 LINE",
"516 0 LINE",
"542 0 LINE",
"542 432 LINE",
"129 432 LINE",
"129 714 LINE",
"103 714 LINE",
"103 0 LINE"
);
}
);
width = 635;
},
{
layerId = "29BFE51A-F5BD-45F8-BEBC-9AD34273B132";
paths = (
{
closed = 1;
nodes = (
"271 0 LINE",
"271 315 LINE",
"470 315 LINE",
"470 0 LINE",
"664 0 LINE",
"664 472 LINE",
"271 472 LINE",
"271 714 LINE",
"77 714 LINE",
"77 0 LINE"
);
}
);
width = 731;
},
{
layerId = "0228171D-2638-482B-876E-783119597845";
paths = (
{
closed = 1;
nodes = (
"104 0 LINE",
"104 406 LINE",
"362 406 LINE",
"362 0 LINE",
"388 0 LINE",
"388 431 LINE",
"104 431 LINE",
"104 714 LINE",
"78 714 LINE",
"78 0 LINE"
);
}
);
width = 456;
},
{
layerId = "5ABCF6AD-94E3-4DCD-A28A-F55CA80EA6B2";
paths = (
{
closed = 1;
nodes = (
"154 0 LINE",
"154 380 LINE",
"357 380 LINE",
"357 0 LINE",
"439 0 LINE",
"439 448 LINE",
"154 448 LINE",
"154 714 LINE",
"72 714 LINE",
"72 0 LINE"
);
}
);
width = 501;
},
{
layerId = "E419AE99-0260-44D0-87A9-BD030FD7659A";
paths = (
{
closed = 1;
nodes = (
"201 0 LINE",
"201 353 LINE",
"355 353 LINE",
"355 0 LINE",
"492 0 LINE",
"492 463 LINE",
"201 463 LINE",
"201 714 LINE",
"64 714 LINE",
"64 0 LINE"
);
}
);
width = 546;
},
{
layerId = "C7A62E0A-0606-4C56-A5B0-C8EA8B1CCAFA";
paths = (
{
closed = 1;
nodes = (
"229 0 LINE",
"229 337 LINE",
"353 337 LINE",
"353 0 LINE",
"524 0 LINE",
"524 472 LINE",
"229 472 LINE",
"229 714 LINE",
"59 714 LINE",
"59 0 LINE"
);
}
);
width = 573;
},
{
layerId = "9503992B-9F6A-43B6-8DBC-EB382B06F8D4";
paths = (
{
closed = 1;
nodes = (
"188 0 LINE",
"188 370 LINE",
"507 370 LINE",
"507 0 LINE",
"597 0 LINE",
"597 448 LINE",
"188 448 LINE",
"188 714 LINE",
"98 714 LINE",
"98 0 LINE"
);
}
);
width = 685;
},
{
layerId = "2D9814BA-45F0-4FCB-8967-A366BFC6AA80";
paths = (
{
closed = 1;
nodes = (
"237 0 LINE",
"237 338 LINE",
"486 338 LINE",
"486 0 LINE",
"637 0 LINE",
"637 462 LINE",
"237 462 LINE",
"237 714 LINE",
"86 714 LINE",
"86 0 LINE"
);
}
);
width = 717;
}
);
leftKerningGroup = "Tar-oldgeorgian";
note = uni10B9;
rightKerningGroup = "Chin-oldgeorgian";
rightMetricsKey = "=En-oldgeorgian-10";
unicode = 10B9;
},
{
glyphname = "Can-oldgeorgian";
lastChange = "2017-03-30 18:15:23 +0000";
layers = (
{
layerId = "F1E1AA8A-A3F5-4941-B4E6-C7B9A7EBF3CF";
paths = (
{
closed = 1;
nodes = (
"454 -10 OFFCURVE",
"526 21 OFFCURVE",
"587 56 CURVE",
"587 0 LINE",
"613 0 LINE",
"613 295 LINE",
"587 295 LINE",
"587 85 LINE",
"526 46 OFFCURVE",
"443 15 OFFCURVE",
"361 15 CURVE SMOOTH",
"195 15 OFFCURVE",
"90 151 OFFCURVE",
"90 358 CURVE SMOOTH",
"90 565 OFFCURVE",
"204 699 OFFCURVE",
"376 699 CURVE SMOOTH",
"435 699 OFFCURVE",
"497 686 OFFCURVE",
"547 663 CURVE",
"559 688 LINE",
"504 713 OFFCURVE",
"448 724 OFFCURVE",
"376 724 CURVE SMOOTH",
"184 724 OFFCURVE",
"63 572 OFFCURVE",
"63 358 CURVE SMOOTH",
"63 133 OFFCURVE",
"181 -10 OFFCURVE",
"360 -10 CURVE SMOOTH"
);
}
);
width = 694;
},
{
layerId = "29BFE51A-F5BD-45F8-BEBC-9AD34273B132";
paths = (
{
closed = 1;
nodes = (
"423 -8 OFFCURVE",
"464 2 OFFCURVE",
"491 18 CURVE",
"491 0 LINE",
"672 0 LINE",
"672 307 LINE",
"491 307 LINE",
"491 167 LINE",
"470 156 OFFCURVE",
"436 149 OFFCURVE",
"406 149 CURVE SMOOTH",
"310 149 OFFCURVE",
"250 219 OFFCURVE",
"250 354 CURVE SMOOTH",
"250 482 OFFCURVE",
"308 566 OFFCURVE",
"427 566 CURVE SMOOTH",
"490 566 OFFCURVE",
"550 550 OFFCURVE",
"597 528 CURVE",
"657 679 LINE",
"599 706 OFFCURVE",
"515 724 OFFCURVE",
"427 724 CURVE SMOOTH",
"191 724 OFFCURVE",
"51 592 OFFCURVE",
"51 356 CURVE SMOOTH",
"51 120 OFFCURVE",
"176 -8 OFFCURVE",
"381 -8 CURVE SMOOTH"
);
}
);
width = 740;
},
{
layerId = "0228171D-2638-482B-876E-783119597845";
paths = (
{
closed = 1;
nodes = (
"317 -10 OFFCURVE",
"357 17 OFFCURVE",
"391 50 CURVE",
"391 0 LINE",
"417 0 LINE",
"417 295 LINE",
"391 295 LINE",
"391 82 LINE",
"353 42 OFFCURVE",
"311 15 OFFCURVE",
"253 15 CURVE SMOOTH",
"138 15 OFFCURVE",
"81 145 OFFCURVE",
"81 358 CURVE SMOOTH",
"81 568 OFFCURVE",
"147 699 OFFCURVE",
"263 699 CURVE SMOOTH",
"305 699 OFFCURVE",
"341 684 OFFCURVE",
"372 665 CURVE",
"385 689 LINE",
"349 711 OFFCURVE",
"312 724 OFFCURVE",
"263 724 CURVE SMOOTH",
"122 724 OFFCURVE",
"54 571 OFFCURVE",
"54 358 CURVE SMOOTH",
"54 133 OFFCURVE",
"118 -10 OFFCURVE",
"253 -10 CURVE SMOOTH"
);
}
);
width = 473;
},
{
layerId = "5ABCF6AD-94E3-4DCD-A28A-F55CA80EA6B2";
paths = (
{
closed = 1;
nodes = (
"318 -10 OFFCURVE",
"355 10 OFFCURVE",
"385 38 CURVE",
"385 0 LINE",
"466 0 LINE",
"466 300 LINE",
"385 300 LINE",
"385 109 LINE",
"358 82 OFFCURVE",
"324 63 OFFCURVE",
"277 63 CURVE SMOOTH",
"183 63 OFFCURVE",
"134 170 OFFCURVE",
"134 358 CURVE SMOOTH",
"134 541 OFFCURVE",
"192 652 OFFCURVE",
"297 652 CURVE SMOOTH",
"342 652 OFFCURVE",
"382 637 OFFCURVE",
"416 616 CURVE",
"443 685 LINE",
"400 710 OFFCURVE",
"352 724 OFFCURVE",
"296 724 CURVE SMOOTH",
"134 724 OFFCURVE",
"48 578 OFFCURVE",
"48 358 CURVE SMOOTH",
"48 129 OFFCURVE",
"123 -10 OFFCURVE",
"263 -10 CURVE SMOOTH"
);
}
);
width = 520;
},
{
layerId = "E419AE99-0260-44D0-87A9-BD030FD7659A";
paths = (
{
closed = 1;
nodes = (
"320 -9 OFFCURVE",
"354 4 OFFCURVE",
"381 27 CURVE",
"381 0 LINE",
"514 0 LINE",
"514 304 LINE",
"381 304 LINE",
"381 135 LINE",
"363 120 OFFCURVE",
"337 108 OFFCURVE",
"301 108 CURVE SMOOTH",
"226 109 OFFCURVE",
"184 194 OFFCURVE",
"184 357 CURVE SMOOTH",
"184 516 OFFCURVE",
"236 607 OFFCURVE",
"330 607 CURVE SMOOTH",
"378 607 OFFCURVE",
"422 593 OFFCURVE",
"459 570 CURVE",
"498 682 LINE",
"450 708 OFFCURVE",
"390 724 OFFCURVE",
"327 724 CURVE SMOOTH",
"145 724 OFFCURVE",
"43 585 OFFCURVE",
"43 357 CURVE SMOOTH",
"43 126 OFFCURVE",
"129 -9 OFFCURVE",
"272 -9 CURVE SMOOTH"
);
}
);
width = 564;
},
{
layerId = "C7A62E0A-0606-4C56-A5B0-C8EA8B1CCAFA";
paths = (
{
closed = 1;
nodes = (
"320 -9 OFFCURVE",
"352 0 OFFCURVE",
"377 20 CURVE",
"377 0 LINE",
"544 0 LINE",
"544 307 LINE",
"377 307 LINE",
"377 152 LINE",
"365 144 OFFCURVE",
"345 137 OFFCURVE",
"316 137 CURVE SMOOTH",
"253 138 OFFCURVE",
"216 209 OFFCURVE",
"216 357 CURVE SMOOTH",
"216 499 OFFCURVE",
"263 578 OFFCURVE",
"350 578 CURVE SMOOTH",
"400 578 OFFCURVE",
"447 564 OFFCURVE",
"486 540 CURVE",
"533 679 LINE",
"481 707 OFFCURVE",
"414 724 OFFCURVE",
"347 724 CURVE SMOOTH",
"152 724 OFFCURVE",
"39 589 OFFCURVE",
"39 357 CURVE SMOOTH",
"39 124 OFFCURVE",
"132 -9 OFFCURVE",
"278 -9 CURVE SMOOTH"
);
}
);
width = 593;
},
{
layerId = "9503992B-9F6A-43B6-8DBC-EB382B06F8D4";
paths = (
{
closed = 1;
nodes = (
"430 -10 OFFCURVE",
"493 5 OFFCURVE",
"549 35 CURVE",
"549 0 LINE",
"639 0 LINE",
"639 295 LINE",
"549 295 LINE",
"549 114 LINE",
"492 84 OFFCURVE",
"434 69 OFFCURVE",
"375 69 CURVE SMOOTH",
"240 69 OFFCURVE",
"156 178 OFFCURVE",
"156 357 CURVE SMOOTH",
"156 535 OFFCURVE",
"249 645 OFFCURVE",
"403 645 CURVE SMOOTH",
"454 645 OFFCURVE",
"508 632 OFFCURVE",
"565 606 CURVE",
"601 682 LINE",
"545 710 OFFCURVE",
"479 724 OFFCURVE",
"404 724 CURVE SMOOTH",
"191 724 OFFCURVE",
"61 581 OFFCURVE",
"61 358 CURVE SMOOTH",
"61 129 OFFCURVE",
"173 -10 OFFCURVE",
"361 -10 CURVE SMOOTH"
);
}
);
width = 704;
},
{
layerId = "2D9814BA-45F0-4FCB-8967-A366BFC6AA80";
paths = (
{
closed = 1;
nodes = (
"420 -10 OFFCURVE",
"469 3 OFFCURVE",
"513 28 CURVE",
"513 0 LINE",
"664 0 LINE",
"664 295 LINE",
"513 295 LINE",
"513 146 LINE",
"478 126 OFFCURVE",
"436 116 OFFCURVE",
"388 116 CURVE SMOOTH",
"276 116 OFFCURVE",
"214 203 OFFCURVE",
"214 355 CURVE SMOOTH",
"214 503 OFFCURVE",
"299 598 OFFCURVE",
"430 598 CURVE SMOOTH",
"486 598 OFFCURVE",
"541 585 OFFCURVE",
"593 559 CURVE",
"643 680 LINE",
"575 709 OFFCURVE",
"504 724 OFFCURVE",
"431 724 CURVE SMOOTH",
"197 724 OFFCURVE",
"58 588 OFFCURVE",
"58 358 CURVE SMOOTH",
"58 125 OFFCURVE",
"170 -10 OFFCURVE",
"367 -10 CURVE SMOOTH"
);
}
);
width = 724;
}
);
leftKerningGroup = "Tan-oldgeorgian";
note = uni10BA;
unicode = 10BA;
},
{
glyphname = "Jil-oldgeorgian";
lastChange = "2017-03-28 19:12:04 +0000";
layers = (
{
layerId = "F1E1AA8A-A3F5-4941-B4E6-C7B9A7EBF3CF";
paths = (
{
closed = 1;
nodes = (
"435 -10 OFFCURVE",
"513 87 OFFCURVE",
"513 242 CURVE SMOOTH",
"513 428 LINE",
"740 428 LINE",
"740 0 LINE",
"766 0 LINE",
"766 453 LINE",
"513 453 LINE",
"513 714 LINE",
"487 714 LINE",
"487 453 LINE",
"309 453 LINE SMOOTH",
"149 453 OFFCURVE",
"64 363 OFFCURVE",
"64 226 CURVE SMOOTH",
"64 89 OFFCURVE",
"145 -10 OFFCURVE",
"290 -10 CURVE SMOOTH"
);
},
{
closed = 1;
nodes = (
"166 15 OFFCURVE",
"91 101 OFFCURVE",
"91 226 CURVE SMOOTH",
"91 351 OFFCURVE",
"169 428 OFFCURVE",
"309 428 CURVE SMOOTH",
"487 428 LINE",
"487 242 LINE SMOOTH",
"487 102 OFFCURVE",
"414 15 OFFCURVE",
"290 15 CURVE SMOOTH"
);
}
);
width = 859;
},
{
layerId = "9503992B-9F6A-43B6-8DBC-EB382B06F8D4";
paths = (
{
closed = 1;
nodes = (
"456 -10 OFFCURVE",
"543 79 OFFCURVE",
"543 248 CURVE SMOOTH",
"543 399 LINE",
"714 399 LINE",
"714 0 LINE",
"800 0 LINE",
"800 477 LINE",
"543 477 LINE",
"543 714 LINE",
"453 714 LINE",
"453 477 LINE",
"314 477 LINE SMOOTH",
"153 477 OFFCURVE",
"61 383 OFFCURVE",
"61 233 CURVE SMOOTH",
"61 87 OFFCURVE",
"153 -10 OFFCURVE",
"305 -10 CURVE SMOOTH"
);
},
{
closed = 1;
nodes = (
"205 68 OFFCURVE",
"150 132 OFFCURVE",
"150 233 CURVE SMOOTH",
"150 343 OFFCURVE",
"205 399 OFFCURVE",
"317 399 CURVE SMOOTH",
"453 399 LINE",
"453 242 LINE SMOOTH",
"453 123 OFFCURVE",
"402 68 OFFCURVE",
"300 68 CURVE SMOOTH"
);
}
);
width = 888;
},
{
layerId = "2D9814BA-45F0-4FCB-8967-A366BFC6AA80";
paths = (
{
closed = 1;
nodes = (
"489 -10 OFFCURVE",
"590 83 OFFCURVE",
"590 245 CURVE SMOOTH",
"590 362 LINE",
"724 362 LINE",
"724 0 LINE",
"859 0 LINE",
"859 483 LINE",
"590 483 LINE",
"590 714 LINE",
"438 714 LINE",
"438 483 LINE",
"325 483 LINE SMOOTH",
"157 483 OFFCURVE",
"58 388 OFFCURVE",
"58 238 CURVE SMOOTH",
"58 86 OFFCURVE",
"164 -10 OFFCURVE",
"326 -10 CURVE SMOOTH"
);
},
{
closed = 1;
nodes = (
"257 116 OFFCURVE",
"214 162 OFFCURVE",
"214 239 CURVE SMOOTH",
"214 319 OFFCURVE",
"257 362 OFFCURVE",
"332 362 CURVE SMOOTH",
"438 362 LINE",
"438 242 LINE SMOOTH",
"438 159 OFFCURVE",
"398 116 OFFCURVE",
"326 116 CURVE SMOOTH"
);
}
);
width = 939;
},
{
layerId = "29BFE51A-F5BD-45F8-BEBC-9AD34273B132";
paths = (
{
closed = 1;
nodes = (
"506 -10 OFFCURVE",
"615 86 OFFCURVE",
"615 243 CURVE SMOOTH",
"615 330 LINE",
"726 330 LINE",
"726 0 LINE",
"893 0 LINE",
"893 487 LINE",
"615 487 LINE",
"615 714 LINE",
"424 714 LINE",
"424 487 LINE",
"327 487 LINE SMOOTH",
"155 487 OFFCURVE",
"51 392 OFFCURVE",
"51 241 CURVE SMOOTH",
"51 86 OFFCURVE",
"166 -10 OFFCURVE",
"335 -10 CURVE SMOOTH"
);
},
{
closed = 1;
nodes = (
"286 147 OFFCURVE",
"250 182 OFFCURVE",
"250 243 CURVE SMOOTH",
"250 295 OFFCURVE",
"286 330 OFFCURVE",
"337 330 CURVE SMOOTH",
"424 330 LINE",
"424 242 LINE SMOOTH",
"424 182 OFFCURVE",
"390 147 OFFCURVE",
"337 147 CURVE SMOOTH"
);
}
);
width = 960;
},
{
layerId = "0228171D-2638-482B-876E-783119597845";
paths = (
{
closed = 1;
nodes = (
"298 -10 OFFCURVE",
"342 83 OFFCURVE",
"342 225 CURVE SMOOTH",
"342 425 LINE",
"508 425 LINE",
"508 0 LINE",
"534 0 LINE",
"534 450 LINE",
"342 450 LINE",
"342 714 LINE",
"316 714 LINE",
"316 450 LINE",
"225 450 LINE SMOOTH",
"116 450 OFFCURVE",
"54 364 OFFCURVE",
"54 225 CURVE SMOOTH",
"54 83 OFFCURVE",
"102 -10 OFFCURVE",
"199 -10 CURVE SMOOTH"
);
},
{
closed = 1;
nodes = (
"122 15 OFFCURVE",
"81 93 OFFCURVE",
"81 225 CURVE SMOOTH",
"81 353 OFFCURVE",
"134 425 OFFCURVE",
"225 425 CURVE SMOOTH",
"316 425 LINE",
"316 226 LINE SMOOTH",
"316 93 OFFCURVE",
"278 15 OFFCURVE",
"199 15 CURVE SMOOTH"
);
}
);
width = 602;
},
{
layerId = "5ABCF6AD-94E3-4DCD-A28A-F55CA80EA6B2";
paths = (
{
closed = 1;
nodes = (
"355 -10 OFFCURVE",
"415 80 OFFCURVE",
"415 227 CURVE SMOOTH",
"415 392 LINE",
"546 392 LINE",
"546 0 LINE",
"620 0 LINE",
"620 462 LINE",
"415 462 LINE",
"415 714 LINE",
"333 714 LINE",
"333 462 LINE",
"251 462 LINE SMOOTH",
"124 462 OFFCURVE",
"48 376 OFFCURVE",
"48 230 CURVE SMOOTH",
"48 85 OFFCURVE",
"116 -10 OFFCURVE",
"234 -10 CURVE SMOOTH"
);
},
{
closed = 1;
nodes = (
"168 63 OFFCURVE",
"133 127 OFFCURVE",
"133 231 CURVE SMOOTH",
"133 333 OFFCURVE",
"174 392 OFFCURVE",
"251 392 CURVE SMOOTH",
"332 392 LINE",
"332 227 LINE SMOOTH",
"332 122 OFFCURVE",
"300 63 OFFCURVE",
"233 63 CURVE SMOOTH"
);
}
);
width = 682;
},
{
layerId = "E419AE99-0260-44D0-87A9-BD030FD7659A";
paths = (
{
closed = 1;
nodes = (
"391 -10 OFFCURVE",
"468 83 OFFCURVE",
"468 232 CURVE SMOOTH",
"468 360 LINE",
"570 360 LINE",
"570 0 LINE",
"690 0 LINE",
"690 473 LINE",
"468 473 LINE",
"468 714 LINE",
"332 714 LINE",
"332 473 LINE",
"268 473 LINE SMOOTH",
"132 473 OFFCURVE",
"43 388 OFFCURVE",
"43 234 CURVE SMOOTH",
"43 86 OFFCURVE",
"129 -10 OFFCURVE",
"259 -10 CURVE SMOOTH"
);
},
{
closed = 1;
nodes = (
"210 109 OFFCURVE",
"184 159 OFFCURVE",
"184 236 CURVE SMOOTH",
"184 314 OFFCURVE",
"213 360 OFFCURVE",
"271 360 CURVE SMOOTH",
"332 360 LINE",
"332 237 LINE SMOOTH",
"332 155 OFFCURVE",
"308 109 OFFCURVE",
"258 109 CURVE SMOOTH"
);
}
);
width = 744;
},
{
layerId = "C7A62E0A-0606-4C56-A5B0-C8EA8B1CCAFA";
paths = (
{
closed = 1;
nodes = (
"413 -10 OFFCURVE",
"501 85 OFFCURVE",
"501 236 CURVE SMOOTH",
"501 341 LINE",
"585 341 LINE",
"585 0 LINE",
"734 0 LINE",
"734 480 LINE",
"501 480 LINE",
"501 714 LINE",
"331 714 LINE",
"331 480 LINE",
"279 480 LINE SMOOTH",
"137 480 OFFCURVE",
"39 396 OFFCURVE",
"39 237 CURVE SMOOTH",
"39 87 OFFCURVE",
"137 -10 OFFCURVE",
"274 -10 CURVE SMOOTH"
);
},
{
closed = 1;
nodes = (
"237 139 OFFCURVE",
"216 179 OFFCURVE",
"216 240 CURVE SMOOTH",
"216 301 OFFCURVE",
"238 341 OFFCURVE",
"283 341 CURVE SMOOTH",
"331 341 LINE",
"331 243 LINE SMOOTH",
"331 177 OFFCURVE",
"312 139 OFFCURVE",
"274 139 CURVE SMOOTH"
);
}
);
width = 783;
}
);
leftMetricsKey = "Don-oldgeorgian";
rightMetricsKey = "=En-oldgeorgian-10";
unicode = 10BB;
},
{
glyphname = "Cil-oldgeorgian";
lastChange = "2017-03-30 18:15:23 +0000";
layers = (
{
layerId = "F1E1AA8A-A3F5-4941-B4E6-C7B9A7EBF3CF";
paths = (
{
closed = 1;
nodes = (
"129 0 LINE",
"129 174 LINE",
"313 174 LINE",
"313 50 LINE",
"339 50 LINE",
"339 199 LINE",
"129 199 LINE",
"129 305 LINE",
"256 305 LINE SMOOTH",
"414 305 OFFCURVE",
"516 364 OFFCURVE",
"516 519 CURVE SMOOTH",
"516 658 OFFCURVE",
"429 714 OFFCURVE",
"270 714 CURVE SMOOTH",
"103 714 LINE",
"103 0 LINE"
);
},
{
closed = 1;
nodes = (
"129 689 LINE",
"266 689 LINE SMOOTH",
"418 689 OFFCURVE",
"489 639 OFFCURVE",
"489 518 CURVE SMOOTH",
"489 372 OFFCURVE",
"394 330 OFFCURVE",
"254 330 CURVE SMOOTH",
"129 330 LINE"
);
}
);
width = 573;
},
{
layerId = "29BFE51A-F5BD-45F8-BEBC-9AD34273B132";
paths = (
{
closed = 1;
nodes = (
"270 0 LINE",
"270 91 LINE",
"361 91 LINE",
"361 34 LINE",
"528 34 LINE",
"528 248 LINE",
"270 248 LINE",
"270 284 LINE",
"324 284 LINE SMOOTH",
"527 284 OFFCURVE",
"595 392 OFFCURVE",
"595 509 CURVE SMOOTH",
"595 640 OFFCURVE",
"505 714 OFFCURVE",
"324 714 CURVE SMOOTH",
"77 714 LINE",
"77 0 LINE"
);
},
{
closed = 1;
nodes = (
"270 559 LINE",
"320 559 LINE SMOOTH",
"376 559 OFFCURVE",
"402 536 OFFCURVE",
"402 504 CURVE SMOOTH",
"402 457 OFFCURVE",
"358 440 OFFCURVE",
"308 440 CURVE SMOOTH",
"270 440 LINE"
);
}
);
width = 632;
},
{
layerId = "0228171D-2638-482B-876E-783119597845";
paths = (
{
closed = 1;
nodes = (
"104 0 LINE",
"104 173 LINE",
"230 173 LINE",
"230 60 LINE",
"256 60 LINE",
"256 198 LINE",
"104 198 LINE",
"104 306 LINE",
"172 306 LINE SMOOTH",
"303 306 OFFCURVE",
"362 366 OFFCURVE",
"362 519 CURVE SMOOTH",
"362 663 OFFCURVE",
"300 714 OFFCURVE",
"172 714 CURVE SMOOTH",
"78 714 LINE",
"78 0 LINE"
);
},
{
closed = 1;
nodes = (
"104 689 LINE",
"171 689 LINE SMOOTH",
"282 689 OFFCURVE",
"335 645 OFFCURVE",
"335 520 CURVE SMOOTH",
"335 385 OFFCURVE",
"285 331 OFFCURVE",
"178 331 CURVE SMOOTH",
"104 331 LINE"
);
}
);
width = 395;
},
{
layerId = "5ABCF6AD-94E3-4DCD-A28A-F55CA80EA6B2";
paths = (
{
closed = 1;
nodes = (
"153 0 LINE",
"153 148 LINE",
"262 148 LINE",
"262 48 LINE",
"336 48 LINE",
"336 218 LINE",
"153 218 LINE",
"153 297 LINE",
"208 297 LINE SMOOTH",
"349 297 OFFCURVE",
"413 376 OFFCURVE",
"413 513 CURVE SMOOTH",
"413 651 OFFCURVE",
"346 714 OFFCURVE",
"211 714 CURVE SMOOTH",
"71 714 LINE",
"71 0 LINE"
);
},
{
closed = 1;
nodes = (
"153 643 LINE",
"204 643 LINE SMOOTH",
"289 643 OFFCURVE",
"330 607 OFFCURVE",
"330 513 CURVE SMOOTH",
"330 413 OFFCURVE",
"288 369 OFFCURVE",
"204 369 CURVE SMOOTH",
"153 369 LINE"
);
}
);
width = 444;
},
{
layerId = "E419AE99-0260-44D0-87A9-BD030FD7659A";
paths = (
{
closed = 1;
nodes = (
"200 0 LINE",
"200 124 LINE",
"292 124 LINE",
"292 55 LINE",
"412 55 LINE",
"412 236 LINE",
"200 236 LINE",
"200 289 LINE",
"241 289 LINE SMOOTH",
"393 289 OFFCURVE",
"462 385 OFFCURVE",
"462 507 CURVE SMOOTH",
"462 639 OFFCURVE",
"390 714 OFFCURVE",
"248 714 CURVE SMOOTH",
"64 714 LINE",
"64 0 LINE"
);
},
{
closed = 1;
nodes = (
"199 598 LINE",
"235 598 LINE SMOOTH",
"295 598 OFFCURVE",
"325 571 OFFCURVE",
"325 506 CURVE SMOOTH",
"325 439 OFFCURVE",
"289 405 OFFCURVE",
"228 405 CURVE SMOOTH",
"199 405 LINE"
);
}
);
width = 490;
},
{
layerId = "C7A62E0A-0606-4C56-A5B0-C8EA8B1CCAFA";
paths = (
{
closed = 1;
nodes = (
"229 0 LINE",
"229 109 LINE",
"311 109 LINE",
"311 44 LINE",
"460 44 LINE",
"460 248 LINE",
"229 248 LINE",
"229 284 LINE",
"262 284 LINE SMOOTH",
"420 284 OFFCURVE",
"492 391 OFFCURVE",
"492 503 CURVE SMOOTH",
"492 632 OFFCURVE",
"418 714 OFFCURVE",
"271 714 CURVE SMOOTH",
"59 714 LINE",
"59 0 LINE"
);
},
{
closed = 1;
nodes = (
"229 570 LINE",
"255 570 LINE SMOOTH",
"300 570 OFFCURVE",
"322 548 OFFCURVE",
"322 502 CURVE SMOOTH",
"322 456 OFFCURVE",
"291 428 OFFCURVE",
"244 428 CURVE SMOOTH",
"229 428 LINE"
);
}
);
width = 520;
},
{
layerId = "9503992B-9F6A-43B6-8DBC-EB382B06F8D4";
paths = (
{
closed = 1;
nodes = (
"188 0 LINE",
"188 131 LINE",
"339 131 LINE",
"339 50 LINE",
"425 50 LINE",
"425 208 LINE",
"188 208 LINE",
"188 292 LINE",
"270 292 LINE SMOOTH",
"454 292 OFFCURVE",
"555 371 OFFCURVE",
"555 511 CURVE SMOOTH",
"555 646 OFFCURVE",
"466 714 OFFCURVE",
"287 714 CURVE SMOOTH",
"98 714 LINE",
"98 0 LINE"
);
},
{
closed = 1;
nodes = (
"188 637 LINE",
"279 637 LINE SMOOTH",
"404 637 OFFCURVE",
"462 594 OFFCURVE",
"462 507 CURVE SMOOTH",
"462 411 OFFCURVE",
"401 369 OFFCURVE",
"260 369 CURVE SMOOTH",
"188 369 LINE"
);
}
);
width = 606;
},
{
layerId = "2D9814BA-45F0-4FCB-8967-A366BFC6AA80";
paths = (
{
closed = 1;
nodes = (
"241 0 LINE",
"241 108 LINE",
"363 108 LINE",
"363 34 LINE",
"501 34 LINE",
"501 232 LINE",
"241 232 LINE",
"241 287 LINE",
"306 287 LINE SMOOTH",
"483 287 OFFCURVE",
"583 364 OFFCURVE",
"583 507 CURVE SMOOTH",
"583 644 OFFCURVE",
"492 714 OFFCURVE",
"318 714 CURVE SMOOTH",
"90 714 LINE",
"90 0 LINE"
);
},
{
closed = 1;
nodes = (
"241 590 LINE",
"310 590 LINE SMOOTH",
"393 590 OFFCURVE",
"430 561 OFFCURVE",
"430 502 CURVE SMOOTH",
"430 441 OFFCURVE",
"384 411 OFFCURVE",
"291 411 CURVE SMOOTH",
"241 411 LINE"
);
}
);
width = 628;
}
);
leftKerningGroup = "Tar-oldgeorgian";
note = uni10BC;
rightKerningGroup = "Cil-oldgeorgian";
unicode = 10BC;
},
{
glyphname = "Char-oldgeorgian";
lastChange = "2017-03-28 19:12:04 +0000";
layers = (
{
layerId = "F1E1AA8A-A3F5-4941-B4E6-C7B9A7EBF3CF";
paths = (
{
closed = 1;
nodes = (
"427 -10 OFFCURVE",
"499 63 OFFCURVE",
"499 175 CURVE SMOOTH",
"499 289 OFFCURVE",
"434 332 OFFCURVE",
"296 383 CURVE SMOOTH",
"180 426 OFFCURVE",
"127 466 OFFCURVE",
"127 555 CURVE SMOOTH",
"127 644 OFFCURVE",
"191 699 OFFCURVE",
"296 699 CURVE SMOOTH",
"391 699 OFFCURVE",
"455 642 OFFCURVE",
"455 575 CURVE SMOOTH",
"455 565 OFFCURVE",
"454 555 OFFCURVE",
"452 547 CURVE",
"479 547 LINE",
"481 555 OFFCURVE",
"482 567 OFFCURVE",
"482 576 CURVE SMOOTH",
"482 658 OFFCURVE",
"407 724 OFFCURVE",
"297 724 CURVE SMOOTH",
"179 724 OFFCURVE",
"100 660 OFFCURVE",
"100 555 CURVE SMOOTH",
"100 464 OFFCURVE",
"139 411 OFFCURVE",
"287 356 CURVE SMOOTH",
"414 309 OFFCURVE",
"472 277 OFFCURVE",
"472 174 CURVE SMOOTH",
"472 80 OFFCURVE",
"414 15 OFFCURVE",
"288 15 CURVE SMOOTH",
"157 15 OFFCURVE",
"84 84 OFFCURVE",
"84 175 CURVE SMOOTH",
"84 197 OFFCURVE",
"86 217 OFFCURVE",
"92 234 CURVE",
"64 234 LINE",
"60 216 OFFCURVE",
"57 197 OFFCURVE",
"57 175 CURVE SMOOTH",
"57 63 OFFCURVE",
"147 -10 OFFCURVE",
"287 -10 CURVE SMOOTH"
);
}
);
width = 569;
},
{
layerId = "29BFE51A-F5BD-45F8-BEBC-9AD34273B132";
paths = (
{
closed = 1;
nodes = (
"471 -10 OFFCURVE",
"561 67 OFFCURVE",
"561 207 CURVE SMOOTH",
"561 338 OFFCURVE",
"469 388 OFFCURVE",
"363 432 CURVE SMOOTH",
"294 461 OFFCURVE",
"238 477 OFFCURVE",
"238 519 CURVE SMOOTH",
"238 549 OFFCURVE",
"262 567 OFFCURVE",
"298 567 CURVE SMOOTH",
"334 567 OFFCURVE",
"361 549 OFFCURVE",
"361 515 CURVE SMOOTH",
"361 509 OFFCURVE",
"360 503 OFFCURVE",
"359 498 CURVE",
"544 498 LINE",
"545 502 OFFCURVE",
"546 512 OFFCURVE",
"546 520 CURVE SMOOTH",
"546 657 OFFCURVE",
"438 724 OFFCURVE",
"296 724 CURVE SMOOTH",
"157 724 OFFCURVE",
"53 656 OFFCURVE",
"53 512 CURVE SMOOTH",
"53 381 OFFCURVE",
"166 330 OFFCURVE",
"261 287 CURVE SMOOTH",
"323 259 OFFCURVE",
"375 243 OFFCURVE",
"375 201 CURVE SMOOTH",
"375 164 OFFCURVE",
"346 146 OFFCURVE",
"300 146 CURVE SMOOTH",
"253 146 OFFCURVE",
"226 168 OFFCURVE",
"226 204 CURVE SMOOTH",
"226 214 OFFCURVE",
"228 227 OFFCURVE",
"231 234 CURVE",
"47 234 LINE",
"43 222 OFFCURVE",
"40 202 OFFCURVE",
"40 185 CURVE SMOOTH",
"40 63 OFFCURVE",
"126 -10 OFFCURVE",
"295 -10 CURVE SMOOTH"
);
}
);
width = 606;
},
{
layerId = "0228171D-2638-482B-876E-783119597845";
paths = (
{
closed = 1;
nodes = (
"288 -10 OFFCURVE",
"342 55 OFFCURVE",
"342 165 CURVE SMOOTH",
"342 287 OFFCURVE",
"277 335 OFFCURVE",
"215 378 CURVE SMOOTH",
"153 421 OFFCURVE",
"100 455 OFFCURVE",
"100 555 CURVE SMOOTH",
"100 643 OFFCURVE",
"134 699 OFFCURVE",
"206 699 CURVE SMOOTH",
"274 699 OFFCURVE",
"308 645 OFFCURVE",
"308 575 CURVE SMOOTH",
"308 565 OFFCURVE",
"307 555 OFFCURVE",
"305 547 CURVE",
"332 547 LINE",
"334 555 OFFCURVE",
"335 567 OFFCURVE",
"335 576 CURVE SMOOTH",
"335 658 OFFCURVE",
"290 724 OFFCURVE",
"207 724 CURVE SMOOTH",
"122 724 OFFCURVE",
"73 659 OFFCURVE",
"73 555 CURVE SMOOTH",
"73 441 OFFCURVE",
"137 399 OFFCURVE",
"199 356 CURVE SMOOTH",
"258 315 OFFCURVE",
"315 271 OFFCURVE",
"315 164 CURVE SMOOTH",
"315 72 OFFCURVE",
"271 15 OFFCURVE",
"201 15 CURVE SMOOTH",
"120 15 OFFCURVE",
"77 74 OFFCURVE",
"77 165 CURVE SMOOTH",
"77 188 OFFCURVE",
"79 212 OFFCURVE",
"85 234 CURVE",
"57 234 LINE",
"53 216 OFFCURVE",
"50 188 OFFCURVE",
"50 165 CURVE SMOOTH",
"50 53 OFFCURVE",
"110 -10 OFFCURVE",
"200 -10 CURVE SMOOTH"
);
}
);
width = 396;
},
{
layerId = "5ABCF6AD-94E3-4DCD-A28A-F55CA80EA6B2";
paths = (
{
closed = 1;
nodes = (
"327 -10 OFFCURVE",
"389 58 OFFCURVE",
"389 174 CURVE SMOOTH",
"389 296 OFFCURVE",
"322 347 OFFCURVE",
"255 393 CURVE SMOOTH",
"190 438 OFFCURVE",
"143 467 OFFCURVE",
"143 546 CURVE SMOOTH",
"143 613 OFFCURVE",
"167 655 OFFCURVE",
"221 655 CURVE SMOOTH",
"272 655 OFFCURVE",
"297 614 OFFCURVE",
"297 555 CURVE SMOOTH",
"297 547 OFFCURVE",
"296 538 OFFCURVE",
"294 531 CURVE",
"376 531 LINE",
"377 538 OFFCURVE",
"378 549 OFFCURVE",
"378 557 CURVE SMOOTH",
"378 657 OFFCURVE",
"320 724 OFFCURVE",
"222 724 CURVE SMOOTH",
"121 724 OFFCURVE",
"60 655 OFFCURVE",
"60 543 CURVE SMOOTH",
"60 427 OFFCURVE",
"131 382 OFFCURVE",
"199 333 CURVE SMOOTH",
"252 295 OFFCURVE",
"306 258 OFFCURVE",
"306 171 CURVE SMOOTH",
"306 101 OFFCURVE",
"271 59 OFFCURVE",
"218 59 CURVE SMOOTH",
"158 59 OFFCURVE",
"125 103 OFFCURVE",
"125 172 CURVE SMOOTH",
"125 196 OFFCURVE",
"127 216 OFFCURVE",
"131 234 CURVE",
"50 234 LINE",
"47 217 OFFCURVE",
"44 193 OFFCURVE",
"44 170 CURVE SMOOTH",
"44 57 OFFCURVE",
"109 -10 OFFCURVE",
"218 -10 CURVE SMOOTH"
);
}
);
width = 435;
},
{
layerId = "E419AE99-0260-44D0-87A9-BD030FD7659A";
paths = (
{
closed = 1;
nodes = (
"365 -10 OFFCURVE",
"434 61 OFFCURVE",
"434 183 CURVE SMOOTH",
"434 305 OFFCURVE",
"365 358 OFFCURVE",
"293 408 CURVE SMOOTH",
"226 455 OFFCURVE",
"184 478 OFFCURVE",
"184 538 CURVE SMOOTH",
"184 584 OFFCURVE",
"200 612 OFFCURVE",
"236 612 CURVE SMOOTH",
"271 612 OFFCURVE",
"287 585 OFFCURVE",
"287 537 CURVE SMOOTH",
"287 530 OFFCURVE",
"286 521 OFFCURVE",
"285 516 CURVE",
"418 516 LINE",
"419 522 OFFCURVE",
"419 531 OFFCURVE",
"419 539 CURVE SMOOTH",
"419 656 OFFCURVE",
"350 724 OFFCURVE",
"236 724 CURVE SMOOTH",
"120 724 OFFCURVE",
"49 651 OFFCURVE",
"49 532 CURVE SMOOTH",
"49 414 OFFCURVE",
"127 366 OFFCURVE",
"199 312 CURVE SMOOTH",
"249 275 OFFCURVE",
"298 245 OFFCURVE",
"298 178 CURVE SMOOTH",
"298 128 OFFCURVE",
"272 102 OFFCURVE",
"236 102 CURVE SMOOTH",
"196 102 OFFCURVE",
"171 131 OFFCURVE",
"171 179 CURVE SMOOTH",
"171 204 OFFCURVE",
"173 220 OFFCURVE",
"176 234 CURVE",
"44 234 LINE",
"41 218 OFFCURVE",
"39 198 OFFCURVE",
"39 176 CURVE SMOOTH",
"39 61 OFFCURVE",
"109 -10 OFFCURVE",
"235 -10 CURVE SMOOTH"
);
}
);
width = 473;
},
{
layerId = "C7A62E0A-0606-4C56-A5B0-C8EA8B1CCAFA";
paths = (
{
closed = 1;
nodes = (
"388 -10 OFFCURVE",
"462 63 OFFCURVE",
"462 189 CURVE SMOOTH",
"462 310 OFFCURVE",
"392 365 OFFCURVE",
"317 417 CURVE SMOOTH",
"248 465 OFFCURVE",
"210 485 OFFCURVE",
"210 533 CURVE SMOOTH",
"210 566 OFFCURVE",
"220 585 OFFCURVE",
"245 585 CURVE SMOOTH",
"269 585 OFFCURVE",
"280 566 OFFCURVE",
"280 525 CURVE SMOOTH",
"280 519 OFFCURVE",
"279 511 OFFCURVE",
"278 506 CURVE",
"444 506 LINE",
"445 512 OFFCURVE",
"445 520 OFFCURVE",
"445 527 CURVE SMOOTH",
"445 656 OFFCURVE",
"368 724 OFFCURVE",
"245 724 CURVE SMOOTH",
"119 724 OFFCURVE",
"41 649 OFFCURVE",
"41 525 CURVE SMOOTH",
"41 406 OFFCURVE",
"123 356 OFFCURVE",
"199 298 CURVE SMOOTH",
"245 263 OFFCURVE",
"292 237 OFFCURVE",
"292 183 CURVE SMOOTH",
"292 146 OFFCURVE",
"272 129 OFFCURVE",
"246 129 CURVE SMOOTH",
"219 129 OFFCURVE",
"200 149 OFFCURVE",
"200 184 CURVE SMOOTH",
"200 209 OFFCURVE",
"202 223 OFFCURVE",
"204 234 CURVE",
"40 234 LINE",
"37 219 OFFCURVE",
"35 201 OFFCURVE",
"35 179 CURVE SMOOTH",
"35 63 OFFCURVE",
"108 -10 OFFCURVE",
"246 -10 CURVE SMOOTH"
);
}
);
width = 497;
},
{
layerId = "9503992B-9F6A-43B6-8DBC-EB382B06F8D4";
paths = (
{
closed = 1;
nodes = (
"433 -10 OFFCURVE",
"518 66 OFFCURVE",
"518 188 CURVE SMOOTH",
"518 302 OFFCURVE",
"449 350 OFFCURVE",
"323 397 CURVE SMOOTH",
"224 434 OFFCURVE",
"167 462 OFFCURVE",
"167 541 CURVE SMOOTH",
"167 606 OFFCURVE",
"217 645 OFFCURVE",
"295 645 CURVE SMOOTH",
"369 645 OFFCURVE",
"411 606 OFFCURVE",
"411 551 CURVE SMOOTH",
"411 543 OFFCURVE",
"410 535 OFFCURVE",
"409 528 CURVE",
"499 528 LINE",
"500 535 OFFCURVE",
"501 544 OFFCURVE",
"501 552 CURVE",
"501 656 OFFCURVE",
"428 724 OFFCURVE",
"297 724 CURVE SMOOTH",
"167 724 OFFCURVE",
"76 653 OFFCURVE",
"76 542 CURVE SMOOTH",
"76 440 OFFCURVE",
"128 379 OFFCURVE",
"260 330 CURVE SMOOTH",
"364 291 OFFCURVE",
"428 262 OFFCURVE",
"428 183 CURVE SMOOTH",
"428 111 OFFCURVE",
"383 68 OFFCURVE",
"283 68 CURVE SMOOTH",
"183 68 OFFCURVE",
"135 112 OFFCURVE",
"135 181 CURVE SMOOTH",
"135 201 OFFCURVE",
"137 218 OFFCURVE",
"142 234 CURVE",
"52 234 LINE",
"48 217 OFFCURVE",
"45 199 OFFCURVE",
"45 179 CURVE SMOOTH",
"45 61 OFFCURVE",
"131 -10 OFFCURVE",
"282 -10 CURVE SMOOTH"
);
}
);
width = 576;
},
{
layerId = "2D9814BA-45F0-4FCB-8967-A366BFC6AA80";
paths = (
{
closed = 1;
nodes = (
"451 -10 OFFCURVE",
"547 67 OFFCURVE",
"547 198 CURVE SMOOTH",
"547 309 OFFCURVE",
"478 363 OFFCURVE",
"359 412 CURVE SMOOTH",
"255 455 OFFCURVE",
"213 479 OFFCURVE",
"213 528 CURVE SMOOTH",
"213 570 OFFCURVE",
"242 598 OFFCURVE",
"295 598 CURVE SMOOTH",
"352 598 OFFCURVE",
"383 573 OFFCURVE",
"383 529 CURVE",
"383 523 OFFCURVE",
"382 515 OFFCURVE",
"381 510 CURVE",
"529 510 LINE",
"530 516 OFFCURVE",
"531 523 OFFCURVE",
"531 530 CURVE",
"531 655 OFFCURVE",
"447 724 OFFCURVE",
"296 724 CURVE SMOOTH",
"153 724 OFFCURVE",
"65 648 OFFCURVE",
"65 521 CURVE SMOOTH",
"65 415 OFFCURVE",
"136 359 OFFCURVE",
"251 310 CURVE SMOOTH",
"336 274 OFFCURVE",
"399 246 OFFCURVE",
"399 193 CURVE SMOOTH",
"399 142 OFFCURVE",
"361 115 OFFCURVE",
"295 115 CURVE SMOOTH",
"226 115 OFFCURVE",
"193 145 OFFCURVE",
"193 193 CURVE SMOOTH",
"193 207 OFFCURVE",
"195 221 OFFCURVE",
"199 234 CURVE",
"52 234 LINE",
"47 218 OFFCURVE",
"45 201 OFFCURVE",
"45 183 CURVE SMOOTH",
"45 63 OFFCURVE",
"128 -10 OFFCURVE",
"289 -10 CURVE SMOOTH"
);
}
);
width = 597;
}
);
note = uni10BD;
unicode = 10BD;
},
{
glyphname = "Xan-oldgeorgian";
lastChange = "2017-03-30 18:15:23 +0000";
layers = (
{
layerId = "F1E1AA8A-A3F5-4941-B4E6-C7B9A7EBF3CF";
paths = (
{
closed = 1;
nodes = (
"103 0 LINE",
"523 0 LINE",
"523 25 LINE",
"129 25 LINE",
"129 302 LINE",
"542 302 LINE",
"542 714 LINE",
"516 714 LINE",
"516 328 LINE",
"129 328 LINE",
"129 714 LINE",
"103 714 LINE"
);
}
);
width = 645;
},
{
layerId = "29BFE51A-F5BD-45F8-BEBC-9AD34273B132";
paths = (
{
closed = 1;
nodes = (
"77 0 LINE",
"657 0 LINE",
"657 156 LINE",
"271 156 LINE",
"271 262 LINE",
"664 262 LINE",
"664 714 LINE",
"470 714 LINE",
"470 419 LINE",
"271 419 LINE",
"271 714 LINE",
"77 714 LINE"
);
}
);
width = 741;
},
{
layerId = "0228171D-2638-482B-876E-783119597845";
paths = (
{
closed = 1;
nodes = (
"71 0 LINE",
"365 0 LINE",
"365 25 LINE",
"97 25 LINE",
"97 303 LINE",
"381 303 LINE",
"381 714 LINE",
"355 714 LINE",
"355 328 LINE",
"97 328 LINE",
"97 714 LINE",
"71 714 LINE"
);
}
);
width = 459;
},
{
layerId = "5ABCF6AD-94E3-4DCD-A28A-F55CA80EA6B2";
paths = (
{
closed = 1;
nodes = (
"66 0 LINE",
"423 0 LINE",
"423 73 LINE",
"148 73 LINE",
"148 286 LINE",
"433 286 LINE",
"433 714 LINE",
"351 714 LINE",
"351 354 LINE",
"148 354 LINE",
"148 714 LINE",
"66 714 LINE"
);
}
);
width = 505;
},
{
layerId = "E419AE99-0260-44D0-87A9-BD030FD7659A";
paths = (
{
closed = 1;
nodes = (
"62 0 LINE",
"473 0 LINE",
"473 119 LINE",
"199 119 LINE",
"199 271 LINE",
"490 271 LINE",
"490 714 LINE",
"353 714 LINE",
"353 381 LINE",
"199 381 LINE",
"199 714 LINE",
"62 714 LINE"
);
}
);
width = 554;
},
{
layerId = "C7A62E0A-0606-4C56-A5B0-C8EA8B1CCAFA";
paths = (
{
closed = 1;
nodes = (
"59 0 LINE",
"502 0 LINE",
"502 147 LINE",
"229 147 LINE",
"229 262 LINE",
"524 262 LINE",
"524 714 LINE",
"353 714 LINE",
"353 397 LINE",
"229 397 LINE",
"229 714 LINE",
"59 714 LINE"
);
}
);
width = 583;
},
{
layerId = "9503992B-9F6A-43B6-8DBC-EB382B06F8D4";
paths = (
{
closed = 1;
nodes = (
"98 0 LINE",
"577 0 LINE",
"577 78 LINE",
"188 78 LINE",
"188 286 LINE",
"597 286 LINE",
"597 714 LINE",
"507 714 LINE",
"507 364 LINE",
"188 364 LINE",
"188 714 LINE",
"98 714 LINE"
);
}
);
width = 695;
},
{
layerId = "2D9814BA-45F0-4FCB-8967-A366BFC6AA80";
paths = (
{
closed = 1;
nodes = (
"90 0 LINE",
"629 0 LINE",
"629 124 LINE",
"241 124 LINE",
"241 272 LINE",
"641 272 LINE",
"641 714 LINE",
"490 714 LINE",
"490 396 LINE",
"241 396 LINE",
"241 714 LINE",
"90 714 LINE"
);
}
);
width = 731;
}
);
leftKerningGroup = "Tar-oldgeorgian";
leftMetricsKey = "Nar-oldgeorgian";
note = uni10BE;
rightKerningGroup = "En-oldgeorgian";
rightMetricsKey = "En-oldgeorgian";
unicode = 10BE;
},
{
glyphname = "Jhan-oldgeorgian";
lastChange = "2017-03-28 19:12:04 +0000";
layers = (
{
layerId = "F1E1AA8A-A3F5-4941-B4E6-C7B9A7EBF3CF";
paths = (
{
closed = 1;
nodes = (
"87 0 LINE",
"325 350 LINE",
"563 0 LINE",
"594 0 LINE",
"343 370 LINE",
"556 696 LINE",
"556 714 LINE",
"15 714 LINE",
"15 689 LINE",
"97 689 LINE",
"308 370 LINE",
"56 0 LINE"
);
},
{
closed = 1;
nodes = (
"127 689 LINE",
"520 689 LINE",
"326 390 LINE"
);
}
);
width = 604;
},
{
layerId = "29BFE51A-F5BD-45F8-BEBC-9AD34273B132";
paths = (
{
closed = 1;
nodes = (
"224 0 LINE",
"362 228 LINE",
"500 0 LINE",
"716 0 LINE",
"481 355 LINE",
"654 595 LINE",
"654 714 LINE",
"20 714 LINE",
"20 558 LINE",
"120 558 LINE",
"243 370 LINE",
"6 0 LINE"
);
},
{
closed = 1;
nodes = (
"312 564 LINE",
"419 564 LINE",
"365 473 LINE"
);
}
);
width = 716;
},
{
layerId = "0228171D-2638-482B-876E-783119597845";
paths = (
{
closed = 1;
nodes = (
"70 0 LINE",
"226 349 LINE",
"382 0 LINE",
"410 0 LINE",
"242 371 LINE",
"382 699 LINE",
"382 714 LINE",
"10 714 LINE",
"10 689 LINE",
"76 689 LINE",
"209 370 LINE",
"42 0 LINE"
);
},
{
closed = 1;
nodes = (
"104 689 LINE",
"351 689 LINE",
"226 391 LINE"
);
}
);
width = 420;
},
{
layerId = "5ABCF6AD-94E3-4DCD-A28A-F55CA80EA6B2";
paths = (
{
closed = 1;
nodes = (
"121 0 LINE",
"254 301 LINE",
"387 0 LINE",
"476 0 LINE",
"306 367 LINE",
"436 660 LINE",
"436 714 LINE",
"14 714 LINE",
"14 641 LINE",
"84 641 LINE",
"202 367 LINE",
"30 0 LINE"
);
},
{
closed = 1;
nodes = (
"165 641 LINE",
"345 641 LINE",
"254 429 LINE"
);
}
);
width = 486;
},
{
layerId = "E419AE99-0260-44D0-87A9-BD030FD7659A";
paths = (
{
closed = 1;
nodes = (
"170 0 LINE",
"281 256 LINE",
"392 0 LINE",
"540 0 LINE",
"367 363 LINE",
"488 624 LINE",
"488 714 LINE",
"18 714 LINE",
"18 596 LINE",
"91 596 LINE",
"196 364 LINE",
"18 0 LINE"
);
},
{
closed = 1;
nodes = (
"220 600 LINE",
"345 600 LINE",
"282 455 LINE"
);
}
);
width = 545;
},
{
layerId = "C7A62E0A-0606-4C56-A5B0-C8EA8B1CCAFA";
paths = (
{
closed = 1;
nodes = (
"201 0 LINE",
"298 227 LINE",
"395 0 LINE",
"580 0 LINE",
"397 360 LINE",
"520 600 LINE",
"520 714 LINE",
"20 714 LINE",
"20 567 LINE",
"95 567 LINE",
"200 362 LINE",
"16 0 LINE"
);
},
{
closed = 1;
nodes = (
"247 571 LINE",
"351 571 LINE",
"299 463 LINE"
);
}
);
width = 580;
},
{
layerId = "9503992B-9F6A-43B6-8DBC-EB382B06F8D4";
paths = (
{
closed = 1;
nodes = (
"131 0 LINE",
"336 307 LINE",
"541 0 LINE",
"641 0 LINE",
"389 371 LINE",
"577 645 LINE",
"577 714 LINE",
"15 714 LINE",
"15 636 LINE",
"111 636 LINE",
"286 369 LINE",
"36 0 LINE"
);
},
{
closed = 1;
nodes = (
"209 636 LINE",
"478 636 LINE",
"339 431 LINE"
);
}
);
width = 651;
},
{
layerId = "2D9814BA-45F0-4FCB-8967-A366BFC6AA80";
paths = (
{
closed = 1;
nodes = (
"197 0 LINE",
"359 263 LINE",
"521 0 LINE",
"687 0 LINE",
"457 353 LINE",
"615 603 LINE",
"615 714 LINE",
"20 714 LINE",
"20 594 LINE",
"118 594 LINE",
"268 361 LINE",
"35 0 LINE"
);
},
{
closed = 1;
nodes = (
"280 594 LINE",
"451 594 LINE",
"367 450 LINE"
);
}
);
width = 692;
}
);
note = uni10BF;
rightMetricsKey = "Gan-oldgeorgian";
unicode = 10BF;
},
{
glyphname = "Hae-oldgeorgian";
lastChange = "2017-03-30 18:15:23 +0000";
layers = (
{
layerId = "F1E1AA8A-A3F5-4941-B4E6-C7B9A7EBF3CF";
paths = (
{
closed = 1;
nodes = (
"788 -10 OFFCURVE",
"869 87 OFFCURVE",
"869 218 CURVE SMOOTH",
"869 271 OFFCURVE",
"854 326 OFFCURVE",
"821 377 CURVE",
"800 367 LINE",
"829 319 OFFCURVE",
"843 267 OFFCURVE",
"843 219 CURVE SMOOTH",
"843 99 OFFCURVE",
"772 16 OFFCURVE",
"651 16 CURVE SMOOTH",
"525 16 OFFCURVE",
"456 98 OFFCURVE",
"456 250 CURVE SMOOTH",
"456 714 LINE",
"86 714 LINE",
"86 407 LINE",
"112 407 LINE",
"112 688 LINE",
"430 688 LINE",
"430 250 LINE SMOOTH",
"430 93 OFFCURVE",
"498 -10 OFFCURVE",
"651 -10 CURVE SMOOTH"
);
}
);
width = 928;
},
{
layerId = "29BFE51A-F5BD-45F8-BEBC-9AD34273B132";
paths = (
{
closed = 1;
nodes = (
"872 -10 OFFCURVE",
"986 115 OFFCURVE",
"986 258 CURVE SMOOTH",
"986 323 OFFCURVE",
"963 391 OFFCURVE",
"912 454 CURVE",
"749 385 LINE",
"772 349 OFFCURVE",
"785 312 OFFCURVE",
"785 268 CURVE SMOOTH",
"785 194 OFFCURVE",
"746 151 OFFCURVE",
"685 151 CURVE SMOOTH",
"619 151 OFFCURVE",
"582 194 OFFCURVE",
"582 293 CURVE SMOOTH",
"582 714 LINE",
"63 714 LINE",
"63 363 LINE",
"254 363 LINE",
"254 555 LINE",
"388 555 LINE",
"388 270 LINE SMOOTH",
"388 104 OFFCURVE",
"489 -10 OFFCURVE",
"680 -10 CURVE SMOOTH"
);
}
);
width = 1033;
},
{
layerId = "0228171D-2638-482B-876E-783119597845";
paths = (
{
closed = 1;
nodes = (
"552 -10 OFFCURVE",
"597 87 OFFCURVE",
"597 207 CURVE SMOOTH",
"597 281 OFFCURVE",
"576 335 OFFCURVE",
"553 370 CURVE",
"533 361 LINE",
"555 325 OFFCURVE",
"570 270 OFFCURVE",
"570 208 CURVE SMOOTH",
"570 87 OFFCURVE",
"525 15 OFFCURVE",
"449 15 CURVE SMOOTH",
"369 15 OFFCURVE",
"330 88 OFFCURVE",
"330 220 CURVE SMOOTH",
"330 714 LINE",
"68 714 LINE",
"68 407 LINE",
"94 407 LINE",
"94 689 LINE",
"304 689 LINE",
"304 220 LINE SMOOTH",
"304 86 OFFCURVE",
"343 -10 OFFCURVE",
"448 -10 CURVE SMOOTH"
);
}
);
width = 646;
},
{
layerId = "5ABCF6AD-94E3-4DCD-A28A-F55CA80EA6B2";
paths = (
{
closed = 1;
nodes = (
"599 -10 OFFCURVE",
"664 84 OFFCURVE",
"664 213 CURVE SMOOTH",
"664 276 OFFCURVE",
"647 338 OFFCURVE",
"618 385 CURVE",
"544 359 LINE",
"565 313 OFFCURVE",
"575 262 OFFCURVE",
"575 210 CURVE SMOOTH",
"575 126 OFFCURVE",
"543 63 OFFCURVE",
"478 63 CURVE SMOOTH",
"411 63 OFFCURVE",
"376 126 OFFCURVE",
"376 239 CURVE SMOOTH",
"376 714 LINE",
"60 714 LINE",
"60 396 LINE",
"142 396 LINE",
"142 641 LINE",
"294 641 LINE",
"294 234 LINE SMOOTH",
"294 83 OFFCURVE",
"354 -10 OFFCURVE",
"476 -10 CURVE SMOOTH"
);
}
);
width = 707;
},
{
layerId = "E419AE99-0260-44D0-87A9-BD030FD7659A";
paths = (
{
closed = 1;
nodes = (
"663 -10 OFFCURVE",
"742 105 OFFCURVE",
"742 231 CURVE SMOOTH",
"742 291 OFFCURVE",
"724 353 OFFCURVE",
"684 407 CURVE",
"571 366 LINE",
"590 328 OFFCURVE",
"600 278 OFFCURVE",
"600 235 CURVE SMOOTH",
"600 164 OFFCURVE",
"574 110 OFFCURVE",
"521 110 CURVE SMOOTH",
"465 110 OFFCURVE",
"440 163 OFFCURVE",
"440 260 CURVE SMOOTH",
"440 715 LINE",
"57 715 LINE",
"57 382 LINE",
"193 382 LINE",
"193 596 LINE",
"304 596 LINE",
"304 250 LINE SMOOTH",
"304 81 OFFCURVE",
"384 -10 OFFCURVE",
"522 -10 CURVE SMOOTH"
);
}
);
width = 779;
},
{
layerId = "C7A62E0A-0606-4C56-A5B0-C8EA8B1CCAFA";
paths = (
{
closed = 1;
nodes = (
"716 -10 OFFCURVE",
"793 103 OFFCURVE",
"793 234 CURVE SMOOTH",
"793 303 OFFCURVE",
"774 366 OFFCURVE",
"735 420 CURVE",
"588 370 LINE",
"606 337 OFFCURVE",
"616 288 OFFCURVE",
"616 250 CURVE SMOOTH",
"616 187 OFFCURVE",
"595 139 OFFCURVE",
"550 139 CURVE SMOOTH",
"501 139 OFFCURVE",
"482 185 OFFCURVE",
"482 273 CURVE SMOOTH",
"482 714 LINE",
"48 714 LINE",
"48 369 LINE",
"218 369 LINE",
"218 567 LINE",
"312 567 LINE",
"312 250 LINE SMOOTH",
"312 69 OFFCURVE",
"407 -10 OFFCURVE",
"550 -10 CURVE SMOOTH"
);
}
);
width = 827;
},
{
layerId = "9503992B-9F6A-43B6-8DBC-EB382B06F8D4";
paths = (
{
closed = 1;
nodes = (
"805 -10 OFFCURVE",
"897 95 OFFCURVE",
"897 232 CURVE SMOOTH",
"897 294 OFFCURVE",
"879 346 OFFCURVE",
"842 398 CURVE",
"765 366 LINE",
"791 324 OFFCURVE",
"803 277 OFFCURVE",
"803 234 CURVE SMOOTH",
"803 145 OFFCURVE",
"752 68 OFFCURVE",
"656 68 CURVE SMOOTH",
"558 68 OFFCURVE",
"504 129 OFFCURVE",
"504 252 CURVE SMOOTH",
"504 714 LINE",
"76 714 LINE",
"76 390 LINE",
"166 390 LINE",
"166 636 LINE",
"414 636 LINE",
"414 252 LINE SMOOTH",
"414 86 OFFCURVE",
"505 -10 OFFCURVE",
"655 -10 CURVE SMOOTH"
);
}
);
width = 953;
},
{
layerId = "2D9814BA-45F0-4FCB-8967-A366BFC6AA80";
paths = (
{
closed = 1;
nodes = (
"837 -10 OFFCURVE",
"944 110 OFFCURVE",
"944 247 CURVE SMOOTH",
"944 308 OFFCURVE",
"923 373 OFFCURVE",
"877 431 CURVE",
"749 377 LINE",
"772 341 OFFCURVE",
"785 302 OFFCURVE",
"785 254 CURVE SMOOTH",
"785 169 OFFCURVE",
"740 117 OFFCURVE",
"666 117 CURVE SMOOTH",
"587 117 OFFCURVE",
"543 167 OFFCURVE",
"543 276 CURVE SMOOTH",
"543 714 LINE",
"71 714 LINE",
"71 370 LINE",
"222 370 LINE",
"222 587 LINE",
"392 587 LINE",
"392 257 LINE SMOOTH",
"392 91 OFFCURVE",
"489 -10 OFFCURVE",
"663 -10 CURVE SMOOTH"
);
}
);
width = 997;
}
);
leftKerningGroup = "Gan-oldgeorgian";
leftMetricsKey = "En-oldgeorgian";
note = uni10C0;
rightKerningGroup = "Zen-oldgeorgian";
rightMetricsKey = "=Don-oldgeorgian-5";
unicode = 10C0;
},
{
glyphname = "He-oldgeorgian";
lastChange = "2017-03-30 18:15:23 +0000";
layers = (
{
layerId = "F1E1AA8A-A3F5-4941-B4E6-C7B9A7EBF3CF";
paths = (
{
closed = 1;
nodes = (
"129 0 LINE",
"129 313 LINE SMOOTH",
"129 416 OFFCURVE",
"196 513 OFFCURVE",
"310 513 CURVE SMOOTH",
"401 513 OFFCURVE",
"444 453 OFFCURVE",
"444 313 CURVE SMOOTH",
"444 283 LINE",
"592 283 LINE",
"592 308 LINE",
"470 308 LINE",
"470 465 OFFCURVE",
"428 538 OFFCURVE",
"311 538 CURVE SMOOTH",
"249 538 OFFCURVE",
"167 509 OFFCURVE",
"129 418 CURVE",
"127 418 LINE",
"128 454 OFFCURVE",
"129 488 OFFCURVE",
"129 524 CURVE SMOOTH",
"129 714 LINE",
"103 714 LINE",
"103 0 LINE"
);
}
);
width = 612;
},
{
layerId = "29BFE51A-F5BD-45F8-BEBC-9AD34273B132";
paths = (
{
closed = 1;
nodes = (
"271 0 LINE",
"271 243 LINE SMOOTH",
"271 356 OFFCURVE",
"304 411 OFFCURVE",
"381 411 CURVE SMOOTH",
"451 411 OFFCURVE",
"481 362 OFFCURVE",
"481 281 CURVE SMOOTH",
"481 222 LINE",
"763 222 LINE",
"763 380 LINE",
"666 380 LINE",
"647 490 OFFCURVE",
"574 568 OFFCURVE",
"451 568 CURVE SMOOTH",
"366 568 OFFCURVE",
"306 537 OFFCURVE",
"267 481 CURVE",
"262 481 LINE",
"269 540 OFFCURVE",
"271 592 OFFCURVE",
"271 638 CURVE SMOOTH",
"271 714 LINE",
"77 714 LINE",
"77 0 LINE"
);
}
);
width = 783;
},
{
layerId = "0228171D-2638-482B-876E-783119597845";
paths = (
{
closed = 1;
nodes = (
"104 0 LINE",
"104 311 LINE SMOOTH",
"104 420 OFFCURVE",
"141 512 OFFCURVE",
"214 512 CURVE SMOOTH",
"280 512 OFFCURVE",
"305 456 OFFCURVE",
"305 311 CURVE SMOOTH",
"305 286 LINE",
"410 286 LINE",
"410 311 LINE",
"331 311 LINE",
"331 470 OFFCURVE",
"299 537 OFFCURVE",
"216 537 CURVE SMOOTH",
"164 537 OFFCURVE",
"123 503 OFFCURVE",
"102 433 CURVE",
"101 433 LINE",
"103 465 OFFCURVE",
"104 490 OFFCURVE",
"104 524 CURVE SMOOTH",
"104 714 LINE",
"78 714 LINE",
"78 0 LINE"
);
}
);
width = 430;
},
{
layerId = "5ABCF6AD-94E3-4DCD-A28A-F55CA80EA6B2";
paths = (
{
closed = 1;
nodes = (
"153 0 LINE",
"153 296 LINE SMOOTH",
"153 406 OFFCURVE",
"187 478 OFFCURVE",
"252 478 CURVE SMOOTH",
"314 478 OFFCURVE",
"338 429 OFFCURVE",
"338 307 CURVE SMOOTH",
"338 261 LINE",
"495 261 LINE",
"495 331 LINE",
"419 331 LINE",
"414 475 OFFCURVE",
"372 546 OFFCURVE",
"279 546 CURVE SMOOTH",
"218 546 OFFCURVE",
"175 513 OFFCURVE",
"151 451 CURVE",
"149 451 LINE",
"152 485 OFFCURVE",
"153 517 OFFCURVE",
"153 551 CURVE SMOOTH",
"153 714 LINE",
"71 714 LINE",
"71 0 LINE"
);
}
);
width = 515;
},
{
layerId = "E419AE99-0260-44D0-87A9-BD030FD7659A";
paths = (
{
closed = 1;
nodes = (
"200 0 LINE",
"200 281 LINE SMOOTH",
"200 393 OFFCURVE",
"230 446 OFFCURVE",
"288 446 CURVE SMOOTH",
"345 446 OFFCURVE",
"369 403 OFFCURVE",
"369 303 CURVE SMOOTH",
"369 237 LINE",
"576 237 LINE",
"576 349 LINE",
"503 349 LINE",
"493 479 OFFCURVE",
"440 555 OFFCURVE",
"338 555 CURVE SMOOTH",
"270 555 OFFCURVE",
"225 523 OFFCURVE",
"198 468 CURVE",
"194 468 LINE",
"198 503 OFFCURVE",
"200 543 OFFCURVE",
"200 577 CURVE SMOOTH",
"200 714 LINE",
"64 714 LINE",
"64 0 LINE"
);
}
);
width = 595;
},
{
layerId = "C7A62E0A-0606-4C56-A5B0-C8EA8B1CCAFA";
paths = (
{
closed = 1;
nodes = (
"229 0 LINE",
"229 272 LINE SMOOTH",
"229 385 OFFCURVE",
"257 425 OFFCURVE",
"311 425 CURVE SMOOTH",
"365 425 OFFCURVE",
"388 386 OFFCURVE",
"388 300 CURVE SMOOTH",
"388 222 LINE",
"627 222 LINE",
"627 361 LINE",
"556 361 LINE",
"543 482 OFFCURVE",
"484 560 OFFCURVE",
"376 560 CURVE SMOOTH",
"302 560 OFFCURVE",
"256 529 OFFCURVE",
"227 479 CURVE",
"223 479 LINE",
"227 515 OFFCURVE",
"229 560 OFFCURVE",
"229 593 CURVE SMOOTH",
"229 714 LINE",
"59 714 LINE",
"59 0 LINE"
);
}
);
width = 647;
},
{
layerId = "9503992B-9F6A-43B6-8DBC-EB382B06F8D4";
paths = (
{
closed = 1;
nodes = (
"188 0 LINE",
"188 286 LINE SMOOTH",
"188 407 OFFCURVE",
"241 468 OFFCURVE",
"346 468 CURVE SMOOTH",
"434 468 OFFCURVE",
"470 421 OFFCURVE",
"470 332 CURVE SMOOTH",
"470 252 LINE",
"674 252 LINE",
"674 330 LINE",
"560 330 LINE",
"560 469 OFFCURVE",
"489 546 OFFCURVE",
"358 546 CURVE SMOOTH",
"287 546 OFFCURVE",
"230 518 OFFCURVE",
"189 462 CURVE",
"184 462 LINE",
"187 491 OFFCURVE",
"188 515 OFFCURVE",
"188 532 CURVE",
"188 714 LINE",
"98 714 LINE",
"98 0 LINE"
);
}
);
width = 694;
},
{
layerId = "2D9814BA-45F0-4FCB-8967-A366BFC6AA80";
paths = (
{
closed = 1;
nodes = (
"241 0 LINE",
"241 241 LINE SMOOTH",
"241 378 OFFCURVE",
"278 430 OFFCURVE",
"377 430 CURVE SMOOTH",
"455 430 OFFCURVE",
"494 383 OFFCURVE",
"494 289 CURVE SMOOTH",
"494 222 LINE",
"749 222 LINE",
"749 347 LINE",
"643 347 LINE",
"629 480 OFFCURVE",
"548 556 OFFCURVE",
"423 556 CURVE SMOOTH",
"343 556 OFFCURVE",
"283 525 OFFCURVE",
"242 463 CURVE",
"234 463 LINE",
"239 526 OFFCURVE",
"241 569 OFFCURVE",
"241 592 CURVE SMOOTH",
"241 714 LINE",
"90 714 LINE",
"90 0 LINE"
);
}
);
width = 769;
}
);
leftKerningGroup = "Tar-oldgeorgian";
note = uni10C1;
unicode = 10C1;
},
{
glyphname = "Hie-oldgeorgian";
lastChange = "2017-03-30 18:15:23 +0000";
layers = (
{
layerId = "F1E1AA8A-A3F5-4941-B4E6-C7B9A7EBF3CF";
paths = (
{
closed = 1;
nodes = (
"409 -10 OFFCURVE",
"524 111 OFFCURVE",
"524 309 CURVE SMOOTH",
"524 508 OFFCURVE",
"401 625 OFFCURVE",
"215 625 CURVE SMOOTH",
"143 625 LINE",
"143 714 LINE",
"117 714 LINE",
"117 600 LINE",
"212 600 LINE SMOOTH",
"381 600 OFFCURVE",
"497 497 OFFCURVE",
"497 309 CURVE SMOOTH",
"497 133 OFFCURVE",
"400 15 OFFCURVE",
"230 15 CURVE SMOOTH",
"162 15 OFFCURVE",
"117 26 OFFCURVE",
"63 41 CURVE",
"63 15 LINE",
"111 0 OFFCURVE",
"153 -10 OFFCURVE",
"230 -10 CURVE SMOOTH"
);
}
);
width = 588;
},
{
layerId = "29BFE51A-F5BD-45F8-BEBC-9AD34273B132";
paths = (
{
closed = 1;
nodes = (
"504 -10 OFFCURVE",
"646 104 OFFCURVE",
"646 320 CURVE SMOOTH",
"646 525 OFFCURVE",
"509 630 OFFCURVE",
"259 630 CURVE SMOOTH",
"248 630 LINE",
"248 714 LINE",
"65 714 LINE",
"65 474 LINE",
"245 474 LINE SMOOTH",
"386 474 OFFCURVE",
"447 419 OFFCURVE",
"447 314 CURVE SMOOTH",
"447 205 OFFCURVE",
"374 148 OFFCURVE",
"240 148 CURVE SMOOTH",
"174 148 OFFCURVE",
"99 168 OFFCURVE",
"42 193 CURVE",
"42 30 LINE",
"107 0 OFFCURVE",
"175 -10 OFFCURVE",
"253 -10 CURVE SMOOTH"
);
}
);
width = 698;
},
{
layerId = "0228171D-2638-482B-876E-783119597845";
paths = (
{
closed = 1;
nodes = (
"289 -10 OFFCURVE",
"363 121 OFFCURVE",
"363 308 CURVE SMOOTH",
"363 478 OFFCURVE",
"303 625 OFFCURVE",
"148 625 CURVE SMOOTH",
"113 625 LINE",
"113 714 LINE",
"87 714 LINE",
"87 600 LINE",
"148 600 LINE SMOOTH",
"284 600 OFFCURVE",
"336 459 OFFCURVE",
"336 307 CURVE SMOOTH",
"336 144 OFFCURVE",
"274 15 OFFCURVE",
"154 15 CURVE SMOOTH",
"109 15 OFFCURVE",
"77 30 OFFCURVE",
"53 41 CURVE",
"53 14 LINE",
"82 0 OFFCURVE",
"116 -10 OFFCURVE",
"154 -10 CURVE SMOOTH"
);
}
);
width = 417;
},
{
layerId = "5ABCF6AD-94E3-4DCD-A28A-F55CA80EA6B2";
paths = (
{
closed = 1;
nodes = (
"322 -10 OFFCURVE",
"408 115 OFFCURVE",
"408 312 CURVE SMOOTH",
"408 495 OFFCURVE",
"331 627 OFFCURVE",
"181 627 CURVE SMOOTH",
"153 627 LINE",
"153 714 LINE",
"74 714 LINE",
"74 557 LINE",
"153 557 LINE SMOOTH",
"275 557 OFFCURVE",
"322 449 OFFCURVE",
"322 310 CURVE SMOOTH",
"322 164 OFFCURVE",
"267 63 OFFCURVE",
"166 63 CURVE SMOOTH",
"118 63 OFFCURVE",
"81 79 OFFCURVE",
"51 96 CURVE",
"51 19 LINE",
"89 1 OFFCURVE",
"125 -10 OFFCURVE",
"176 -10 CURVE SMOOTH"
);
}
);
width = 456;
},
{
layerId = "E419AE99-0260-44D0-87A9-BD030FD7659A";
paths = (
{
closed = 1;
nodes = (
"354 -10 OFFCURVE",
"451 109 OFFCURVE",
"451 315 CURVE SMOOTH",
"451 512 OFFCURVE",
"359 629 OFFCURVE",
"213 629 CURVE SMOOTH",
"192 629 LINE",
"192 714 LINE",
"63 714 LINE",
"63 517 LINE",
"159 517 LINE SMOOTH",
"267 517 OFFCURVE",
"310 440 OFFCURVE",
"310 313 CURVE SMOOTH",
"310 183 OFFCURVE",
"261 108 OFFCURVE",
"178 108 CURVE SMOOTH",
"128 108 OFFCURVE",
"85 126 OFFCURVE",
"50 148 CURVE",
"50 25 LINE",
"96 2 OFFCURVE",
"135 -10 OFFCURVE",
"197 -10 CURVE SMOOTH"
);
}
);
width = 494;
},
{
layerId = "C7A62E0A-0606-4C56-A5B0-C8EA8B1CCAFA";
paths = (
{
closed = 1;
nodes = (
"374 -10 OFFCURVE",
"479 105 OFFCURVE",
"479 317 CURVE SMOOTH",
"479 522 OFFCURVE",
"376 630 OFFCURVE",
"233 630 CURVE SMOOTH",
"216 630 LINE",
"216 714 LINE",
"56 714 LINE",
"56 491 LINE",
"163 491 LINE SMOOTH",
"262 491 OFFCURVE",
"302 434 OFFCURVE",
"302 315 CURVE SMOOTH",
"302 195 OFFCURVE",
"257 137 OFFCURVE",
"185 137 CURVE SMOOTH",
"134 137 OFFCURVE",
"88 156 OFFCURVE",
"49 182 CURVE",
"49 28 LINE",
"100 2 OFFCURVE",
"141 -10 OFFCURVE",
"211 -10 CURVE SMOOTH"
);
}
);
width = 518;
},
{
layerId = "9503992B-9F6A-43B6-8DBC-EB382B06F8D4";
paths = (
{
closed = 1;
nodes = (
"425 -10 OFFCURVE",
"554 114 OFFCURVE",
"554 312 CURVE SMOOTH",
"554 517 OFFCURVE",
"437 630 OFFCURVE",
"226 630 CURVE SMOOTH",
"166 630 LINE",
"166 714 LINE",
"80 714 LINE",
"80 551 LINE",
"212 551 LINE SMOOTH",
"370 551 OFFCURVE",
"459 467 OFFCURVE",
"459 312 CURVE SMOOTH",
"459 162 OFFCURVE",
"365 69 OFFCURVE",
"219 69 CURVE SMOOTH",
"162 69 OFFCURVE",
"105 78 OFFCURVE",
"42 97 CURVE",
"42 19 LINE",
"99 -2 OFFCURVE",
"152 -10 OFFCURVE",
"226 -10 CURVE SMOOTH"
);
}
);
width = 615;
},
{
layerId = "2D9814BA-45F0-4FCB-8967-A366BFC6AA80";
paths = (
{
closed = 1;
nodes = (
"456 -10 OFFCURVE",
"609 106 OFFCURVE",
"609 315 CURVE SMOOTH",
"609 520 OFFCURVE",
"487 630 OFFCURVE",
"252 630 CURVE SMOOTH",
"209 630 LINE",
"209 714 LINE",
"71 714 LINE",
"71 504 LINE",
"238 504 LINE SMOOTH",
"388 504 OFFCURVE",
"453 441 OFFCURVE",
"453 316 CURVE SMOOTH",
"453 191 OFFCURVE",
"375 116 OFFCURVE",
"236 116 CURVE SMOOTH",
"183 116 OFFCURVE",
"120 129 OFFCURVE",
"48 154 CURVE",
"48 27 LINE",
"114 0 OFFCURVE",
"167 -10 OFFCURVE",
"238 -10 CURVE SMOOTH"
);
}
);
width = 663;
}
);
note = uni10C2;
rightKerningGroup = "Don-oldgeorgian";
unicode = 10C2;
},
{
glyphname = "We-oldgeorgian";
lastChange = "2017-03-30 18:15:23 +0000";
layers = (
{
layerId = "F1E1AA8A-A3F5-4941-B4E6-C7B9A7EBF3CF";
paths = (
{
closed = 1;
nodes = (
"497 0 LINE",
"497 714 LINE",
"471 714 LINE",
"471 456 LINE SMOOTH",
"471 283 OFFCURVE",
"379 218 OFFCURVE",
"269 218 CURVE SMOOTH",
"160 218 OFFCURVE",
"86 287 OFFCURVE",
"86 417 CURVE SMOOTH",
"86 465 OFFCURVE",
"99 518 OFFCURVE",
"128 566 CURVE",
"107 576 LINE",
"74 525 OFFCURVE",
"59 470 OFFCURVE",
"59 417 CURVE SMOOTH",
"59 273 OFFCURVE",
"143 191 OFFCURVE",
"269 191 CURVE SMOOTH",
"362 191 OFFCURVE",
"435 240 OFFCURVE",
"469 323 CURVE",
"474 323 LINE",
"473 303 OFFCURVE",
"471 263 OFFCURVE",
"471 218 CURVE SMOOTH",
"471 0 LINE"
);
}
);
width = 600;
},
{
layerId = "29BFE51A-F5BD-45F8-BEBC-9AD34273B132";
paths = (
{
closed = 1;
nodes = (
"663 0 LINE",
"663 714 LINE",
"469 714 LINE",
"469 475 LINE SMOOTH",
"469 365 OFFCURVE",
"417 316 OFFCURVE",
"340 316 CURVE SMOOTH",
"285 316 OFFCURVE",
"247 352 OFFCURVE",
"247 411 CURVE SMOOTH",
"247 455 OFFCURVE",
"260 492 OFFCURVE",
"283 528 CURVE",
"120 597 LINE",
"69 534 OFFCURVE",
"46 466 OFFCURVE",
"46 401 CURVE SMOOTH",
"46 249 OFFCURVE",
"145 159 OFFCURVE",
"282 159 CURVE SMOOTH",
"371 159 OFFCURVE",
"436 194 OFFCURVE",
"473 246 CURVE",
"478 246 LINE",
"471 187 OFFCURVE",
"469 135 OFFCURVE",
"469 89 CURVE SMOOTH",
"469 0 LINE"
);
}
);
width = 740;
},
{
layerId = "0228171D-2638-482B-876E-783119597845";
paths = (
{
closed = 1;
nodes = (
"358 0 LINE",
"358 714 LINE",
"332 714 LINE",
"332 454 LINE SMOOTH",
"332 270 OFFCURVE",
"274 213 OFFCURVE",
"196 213 CURVE SMOOTH",
"113 213 OFFCURVE",
"76 297 OFFCURVE",
"76 410 CURVE SMOOTH",
"76 482 OFFCURVE",
"91 537 OFFCURVE",
"113 573 CURVE",
"93 582 LINE",
"70 547 OFFCURVE",
"49 493 OFFCURVE",
"49 409 CURVE SMOOTH",
"49 274 OFFCURVE",
"102 188 OFFCURVE",
"196 188 CURVE SMOOTH",
"261 188 OFFCURVE",
"310 225 OFFCURVE",
"332 303 CURVE",
"334 303 LINE",
"333 281 OFFCURVE",
"332 233 OFFCURVE",
"332 188 CURVE SMOOTH",
"332 0 LINE"
);
}
);
width = 436;
},
{
layerId = "5ABCF6AD-94E3-4DCD-A28A-F55CA80EA6B2";
paths = (
{
closed = 1;
nodes = (
"432 0 LINE",
"432 714 LINE",
"349 714 LINE",
"349 464 LINE SMOOTH",
"349 311 OFFCURVE",
"302 246 OFFCURVE",
"231 246 CURVE SMOOTH",
"162 246 OFFCURVE",
"128 309 OFFCURVE",
"128 398 CURVE SMOOTH",
"128 450 OFFCURVE",
"138 501 OFFCURVE",
"159 547 CURVE",
"85 573 LINE",
"56 526 OFFCURVE",
"43 459 OFFCURVE",
"43 396 CURVE SMOOTH",
"43 265 OFFCURVE",
"105 177 OFFCURVE",
"209 177 CURVE SMOOTH",
"278 177 OFFCURVE",
"324 213 OFFCURVE",
"350 285 CURVE",
"354 285 LINE",
"351 251 OFFCURVE",
"349 204 OFFCURVE",
"349 161 CURVE SMOOTH",
"349 0 LINE"
);
}
);
width = 502;
},
{
layerId = "E419AE99-0260-44D0-87A9-BD030FD7659A";
paths = (
{
closed = 1;
nodes = (
"496 0 LINE",
"496 714 LINE",
"360 714 LINE",
"360 493 LINE SMOOTH",
"360 370 OFFCURVE",
"324 297 OFFCURVE",
"264 297 CURVE SMOOTH",
"209 297 OFFCURVE",
"178 341 OFFCURVE",
"178 413 CURVE SMOOTH",
"178 456 OFFCURVE",
"189 506 OFFCURVE",
"208 545 CURVE",
"90 585 LINE",
"55 534 OFFCURVE",
"38 470 OFFCURVE",
"38 408 CURVE SMOOTH",
"38 277 OFFCURVE",
"108 187 OFFCURVE",
"216 187 CURVE SMOOTH",
"288 187 OFFCURVE",
"332 222 OFFCURVE",
"362 288 CURVE",
"367 288 LINE",
"363 242 OFFCURVE",
"360 196 OFFCURVE",
"360 156 CURVE SMOOTH",
"360 0 LINE"
);
}
);
width = 545;
},
{
layerId = "C7A62E0A-0606-4C56-A5B0-C8EA8B1CCAFA";
paths = (
{
closed = 1;
nodes = (
"537 0 LINE",
"537 714 LINE",
"367 714 LINE",
"367 499 LINE SMOOTH",
"367 395 OFFCURVE",
"337 317 OFFCURVE",
"285 317 CURVE SMOOTH",
"239 317 OFFCURVE",
"209 348 OFFCURVE",
"209 409 CURVE SMOOTH",
"209 447 OFFCURVE",
"221 497 OFFCURVE",
"239 530 CURVE",
"92 580 LINE",
"53 526 OFFCURVE",
"34 464 OFFCURVE",
"34 403 CURVE SMOOTH",
"34 271 OFFCURVE",
"109 181 OFFCURVE",
"220 181 CURVE SMOOTH",
"294 181 OFFCURVE",
"337 215 OFFCURVE",
"369 277 CURVE",
"375 277 LINE",
"370 223 OFFCURVE",
"367 178 OFFCURVE",
"367 139 CURVE SMOOTH",
"367 0 LINE"
);
}
);
width = 596;
},
{
layerId = "9503992B-9F6A-43B6-8DBC-EB382B06F8D4";
paths = (
{
closed = 1;
nodes = (
"571 0 LINE",
"571 714 LINE",
"481 714 LINE",
"481 477 LINE SMOOTH",
"481 324 OFFCURVE",
"420 263 OFFCURVE",
"295 263 CURVE SMOOTH",
"198 263 OFFCURVE",
"151 321 OFFCURVE",
"151 415 CURVE SMOOTH",
"151 452 OFFCURVE",
"162 499 OFFCURVE",
"188 541 CURVE",
"111 573 LINE",
"74 521 OFFCURVE",
"56 469 OFFCURVE",
"56 407 CURVE SMOOTH",
"56 263 OFFCURVE",
"150 185 OFFCURVE",
"286 185 CURVE SMOOTH",
"361 185 OFFCURVE",
"441 223 OFFCURVE",
"480 282 CURVE",
"485 282 LINE",
"482 244 OFFCURVE",
"480 220 OFFCURVE",
"480 212 CURVE SMOOTH",
"480 0 LINE"
);
}
);
width = 669;
},
{
layerId = "2D9814BA-45F0-4FCB-8967-A366BFC6AA80";
paths = (
{
closed = 1;
nodes = (
"624 0 LINE",
"624 714 LINE",
"473 714 LINE",
"473 482 LINE SMOOTH",
"473 366 OFFCURVE",
"423 303 OFFCURVE",
"333 303 CURVE SMOOTH",
"251 303 OFFCURVE",
"210 342 OFFCURVE",
"210 420 CURVE SMOOTH",
"210 462 OFFCURVE",
"223 493 OFFCURVE",
"247 531 CURVE",
"119 585 LINE",
"74 527 OFFCURVE",
"53 465 OFFCURVE",
"53 401 CURVE SMOOTH",
"53 262 OFFCURVE",
"143 177 OFFCURVE",
"274 177 CURVE SMOOTH",
"361 177 OFFCURVE",
"431 210 OFFCURVE",
"472 276 CURVE",
"480 276 LINE",
"476 226 OFFCURVE",
"473 183 OFFCURVE",
"473 147 CURVE SMOOTH",
"473 0 LINE"
);
}
);
width = 714;
}
);
leftMetricsKey = "=Don-oldgeorgian-5";
note = uni10C3;
rightKerningGroup = "En-oldgeorgian";
unicode = 10C3;
},
{
glyphname = "Har-oldgeorgian";
lastChange = "2017-03-30 18:15:23 +0000";
layers = (
{
layerId = "F1E1AA8A-A3F5-4941-B4E6-C7B9A7EBF3CF";
paths = (
{
closed = 1;
nodes = (
"368 0 LINE",
"368 265 LINE",
"515 270 OFFCURVE",
"616 355 OFFCURVE",
"616 527 CURVE SMOOTH",
"616 714 LINE",
"590 714 LINE",
"590 519 LINE SMOOTH",
"590 367 OFFCURVE",
"496 290 OFFCURVE",
"354 290 CURVE SMOOTH",
"204 290 OFFCURVE",
"120 371 OFFCURVE",
"120 531 CURVE SMOOTH",
"120 714 LINE",
"94 714 LINE",
"94 529 LINE SMOOTH",
"94 360 OFFCURVE",
"184 269 OFFCURVE",
"342 265 CURVE",
"342 0 LINE"
);
}
);
width = 710;
},
{
layerId = "29BFE51A-F5BD-45F8-BEBC-9AD34273B132";
paths = (
{
closed = 1;
nodes = (
"472 0 LINE",
"472 225 LINE",
"611 257 OFFCURVE",
"680 361 OFFCURVE",
"680 509 CURVE SMOOTH",
"680 714 LINE",
"487 714 LINE",
"487 521 LINE SMOOTH",
"487 419 OFFCURVE",
"454 376 OFFCURVE",
"375 376 CURVE SMOOTH",
"301 376 OFFCURVE",
"263 419 OFFCURVE",
"263 520 CURVE SMOOTH",
"263 714 LINE",
"69 714 LINE",
"69 505 LINE SMOOTH",
"69 352 OFFCURVE",
"141 254 OFFCURVE",
"278 224 CURVE",
"278 0 LINE"
);
}
);
width = 749;
},
{
layerId = "0228171D-2638-482B-876E-783119597845";
paths = (
{
closed = 1;
nodes = (
"255 0 LINE",
"255 266 LINE",
"354 273 OFFCURVE",
"415 353 OFFCURVE",
"415 528 CURVE SMOOTH",
"415 714 LINE",
"389 714 LINE",
"389 528 LINE SMOOTH",
"389 358 OFFCURVE",
"331 291 OFFCURVE",
"242 291 CURVE SMOOTH",
"148 291 OFFCURVE",
"95 358 OFFCURVE",
"95 531 CURVE SMOOTH",
"95 714 LINE",
"69 714 LINE",
"69 530 LINE SMOOTH",
"69 352 OFFCURVE",
"127 273 OFFCURVE",
"229 266 CURVE",
"229 0 LINE"
);
}
);
width = 484;
},
{
layerId = "5ABCF6AD-94E3-4DCD-A28A-F55CA80EA6B2";
paths = (
{
closed = 1;
nodes = (
"303 0 LINE",
"303 251 LINE",
"402 266 OFFCURVE",
"461 345 OFFCURVE",
"461 503 CURVE SMOOTH",
"461 714 LINE",
"379 714 LINE",
"379 505 LINE SMOOTH",
"379 370 OFFCURVE",
"335 318 OFFCURVE",
"262 318 CURVE SMOOTH",
"187 318 OFFCURVE",
"146 370 OFFCURVE",
"146 506 CURVE SMOOTH",
"146 714 LINE",
"64 714 LINE",
"64 502 LINE SMOOTH",
"64 342 OFFCURVE",
"121 265 OFFCURVE",
"221 251 CURVE",
"221 0 LINE"
);
}
);
width = 524;
},
{
layerId = "E419AE99-0260-44D0-87A9-BD030FD7659A";
paths = (
{
closed = 1;
nodes = (
"348 0 LINE",
"348 237 LINE",
"447 259 OFFCURVE",
"504 337 OFFCURVE",
"504 478 CURVE SMOOTH",
"504 714 LINE",
"368 714 LINE",
"368 482 LINE SMOOTH",
"368 381 OFFCURVE",
"338 344 OFFCURVE",
"281 344 CURVE SMOOTH",
"224 344 OFFCURVE",
"194 382 OFFCURVE",
"194 482 CURVE SMOOTH",
"194 714 LINE",
"58 714 LINE",
"58 476 LINE SMOOTH",
"58 333 OFFCURVE",
"114 258 OFFCURVE",
"213 237 CURVE",
"213 0 LINE"
);
}
);
width = 563;
},
{
layerId = "C7A62E0A-0606-4C56-A5B0-C8EA8B1CCAFA";
paths = (
{
closed = 1;
nodes = (
"378 0 LINE",
"378 228 LINE",
"476 255 OFFCURVE",
"532 332 OFFCURVE",
"532 463 CURVE SMOOTH",
"532 714 LINE",
"362 714 LINE",
"362 468 LINE SMOOTH",
"362 388 OFFCURVE",
"341 360 OFFCURVE",
"293 360 CURVE SMOOTH",
"248 360 OFFCURVE",
"225 389 OFFCURVE",
"225 467 CURVE SMOOTH",
"225 714 LINE",
"55 714 LINE",
"55 459 LINE SMOOTH",
"55 327 OFFCURVE",
"111 253 OFFCURVE",
"208 228 CURVE",
"208 0 LINE"
);
}
);
width = 587;
},
{
layerId = "9503992B-9F6A-43B6-8DBC-EB382B06F8D4";
paths = (
{
closed = 1;
nodes = (
"395 0 LINE",
"395 243 LINE",
"542 261 OFFCURVE",
"625 355 OFFCURVE",
"625 502 CURVE SMOOTH",
"625 714 LINE",
"536 714 LINE",
"536 502 LINE SMOOTH",
"536 384 OFFCURVE",
"471 318 OFFCURVE",
"352 318 CURVE SMOOTH",
"227 318 OFFCURVE",
"165 384 OFFCURVE",
"165 501 CURVE SMOOTH",
"165 714 LINE",
"75 714 LINE",
"75 504 LINE SMOOTH",
"75 354 OFFCURVE",
"157 258 OFFCURVE",
"305 242 CURVE",
"305 0 LINE"
);
}
);
width = 700;
},
{
layerId = "2D9814BA-45F0-4FCB-8967-A366BFC6AA80";
paths = (
{
closed = 1;
nodes = (
"444 0 LINE",
"444 232 LINE",
"582 257 OFFCURVE",
"661 353 OFFCURVE",
"661 488 CURVE SMOOTH",
"661 714 LINE",
"510 714 LINE",
"510 514 LINE SMOOTH",
"510 401 OFFCURVE",
"468 353 OFFCURVE",
"370 353 CURVE SMOOTH",
"269 353 OFFCURVE",
"227 402 OFFCURVE",
"227 513 CURVE SMOOTH",
"227 714 LINE",
"76 714 LINE",
"76 490 LINE SMOOTH",
"76 349 OFFCURVE",
"155 255 OFFCURVE",
"293 232 CURVE",
"293 0 LINE"
);
}
);
width = 737;
}
);
leftKerningGroup = "Ban-oldgeorgian";
note = uni10C4;
unicode = 10C4;
},
